ISO-10303-21;
HEADER;
FILE_DESCRIPTION(('Open CASCADE Model'),'2;1');
FILE_NAME('Open CASCADE Shape Model','2026-09-13T11:36:35',('Author'),(
    'Open CASCADE'),'Open CASCADE STEP processor 7.9','Open CASCADE 7.9'
  ,'Unknown');
FILE_SCHEMA(('AUTOMOTIVE_DESIGN { 1 0 10303 214 1 1 1 1 }'));
ENDSEC;
DATA;
#1 = APPLICATION_PROTOCOL_DEFINITION('international standard',
  'automotive_design',2000,#2);
#2 = APPLICATION_CONTEXT(
  'core data for automotive mechanical design processes');
#3 = SHAPE_DEFINITION_REPRESENTATION(#4,#10);
#4 = PRODUCT_DEFINITION_SHAPE('','',#5);
#5 = PRODUCT_DEFINITION('design','',#6,#9);
#6 = PRODUCT_DEFINITION_FORMATION('','',#7);
#7 = PRODUCT('Open CASCADE STEP translator 7.9 21',
  'Open CASCADE STEP translator 7.9 21','',(#8));
#8 = PRODUCT_CONTEXT('',#2,'mechanical');
#9 = PRODUCT_DEFINITION_CONTEXT('part definition',#2,'design');
#10 = ADVANCED_BREP_SHAPE_REPRESENTATION('',(#11,#15),#686);
#11 = AXIS2_PLACEMENT_3D('',#12,#13,#14);
#12 = CARTESIAN_POINT('',(0.,0.,0.));
#13 = DIRECTION('',(0.,0.,1.));
#14 = DIRECTION('',(1.,0.,-0.));
#15 = BREP_WITH_VOIDS('',#16,(#434));
#16 = CLOSED_SHELL('',(#17,#246,#285,#340,#375,#430));
#17 = ADVANCED_FACE('',(#18,#22),#35,.T.);
#18 = FACE_BOUND('',#19,.T.);
#19 = VERTEX_LOOP('',#20);
#20 = VERTEX_POINT('',#21);
#21 = CARTESIAN_POINT('',(27.,-30.,261.));
#22 = FACE_BOUND('',#23,.T.);
#23 = EDGE_LOOP('',(#24));
#24 = ORIENTED_EDGE('',*,*,#25,.F.);
#25 = EDGE_CURVE('',#26,#26,#28,.T.);
#26 = VERTEX_POINT('',#27);
#27 = CARTESIAN_POINT('',(27.,-27.,260.69693845669));
#28 = SURFACE_CURVE('',#29,(#34,#234),.PCURVE_S1.);
#29 = CIRCLE('',#30,14.696938456699);
#30 = AXIS2_PLACEMENT_3D('',#31,#32,#33);
#31 = CARTESIAN_POINT('',(27.,-27.,246.));
#32 = DIRECTION('',(0.,1.,0.));
#33 = DIRECTION('',(0.,-0.,1.));
#34 = PCURVE('',#35,#40);
#35 = SPHERICAL_SURFACE('',#36,15.);
#36 = AXIS2_PLACEMENT_3D('',#37,#38,#39);
#37 = CARTESIAN_POINT('',(27.,-30.,246.));
#38 = DIRECTION('',(0.,0.,1.));
#39 = DIRECTION('',(1.,0.,0.));
#40 = DEFINITIONAL_REPRESENTATION('',(#41),#233);
#41 = B_SPLINE_CURVE_WITH_KNOTS('',8,(#42,#43,#44,#45,#46,#47,#48,#49,
    #50,#51,#52,#53,#54,#55,#56,#57,#58,#59,#60,#61,#62,#63,#64,#65,#66,
    #67,#68,#69,#70,#71,#72,#73,#74,#75,#76,#77,#78,#79,#80,#81,#82,#83,
    #84,#85,#86,#87,#88,#89,#90,#91,#92,#93,#94,#95,#96,#97,#98,#99,#100
    ,#101,#102,#103,#104,#105,#106,#107,#108,#109,#110,#111,#112,#113,
    #114,#115,#116,#117,#118,#119,#120,#121,#122,#123,#124,#125,#126,
    #127,#128,#129,#130,#131,#132,#133,#134,#135,#136,#137,#138,#139,
    #140,#141,#142,#143,#144,#145,#146,#147,#148,#149,#150,#151,#152,
    #153,#154,#155,#156,#157,#158,#159,#160,#161,#162,#163,#164,#165,
    #166,#167,#168,#169,#170,#171,#172,#173,#174,#175,#176,#177,#178,
    #179,#180,#181,#182,#183,#184,#185,#186,#187,#188,#189,#190,#191,
    #192,#193,#194,#195,#196,#197,#198,#199,#200,#201,#202,#203,#204,
    #205,#206,#207,#208,#209,#210,#211,#212,#213,#214,#215,#216,#217,
    #218,#219,#220,#221,#222,#223,#224,#225,#226,#227,#228,#229,#230,
    #231,#232),.UNSPECIFIED.,.F.,.F.,(9,7,7,7,7,7,7,7,7,7,7,7,7,7,7,7,7,
    7,7,7,7,7,7,7,7,7,7,9),(0.,9.817477042468E-02,0.194815560061,
    0.385077114659,0.753708876691,1.099301153597,1.747286672795,
    2.314274002093,2.562330958661,2.794884355443,2.903893760185,
    3.009496621029,3.111799392471,3.210905202306,3.306913955583,
    3.492930915058,3.667321814565,3.994304751142,4.566524890151,
    4.995689994408,5.317563822601,5.558969193746,5.740023222104,
    5.875813743373,5.977656634325,6.130420970752,6.206803138966,
    6.28318530718),.UNSPECIFIED.);
#42 = CARTESIAN_POINT('',(1.570796326795,1.369438406005));
#43 = CARTESIAN_POINT('',(1.510676803506,1.369438406005));
#44 = CARTESIAN_POINT('',(1.450557296414,1.368595229023));
#45 = CARTESIAN_POINT('',(1.391113698242,1.366908899298));
#46 = CARTESIAN_POINT('',(1.333022486327,1.364399085538));
#47 = CARTESIAN_POINT('',(1.276863874588,1.36110564748));
#48 = CARTESIAN_POINT('',(1.22302748481,1.357081378986));
#49 = CARTESIAN_POINT('',(1.171746358896,1.3523840064));
#50 = CARTESIAN_POINT('',(1.075267021429,1.341842881227));
#51 = CARTESIAN_POINT('',(1.029986235192,1.336018186607));
#52 = CARTESIAN_POINT('',(0.987386672286,1.329653549529));
#53 = CARTESIAN_POINT('',(0.947450705236,1.322805254845));
#54 = CARTESIAN_POINT('',(0.910080143045,1.315525734506));
#55 = CARTESIAN_POINT('',(0.875134271349,1.307861974338));
#56 = CARTESIAN_POINT('',(0.842457831041,1.299855525144));
#57 = CARTESIAN_POINT('',(0.751709815353,1.2751773244));
#58 = CARTESIAN_POINT('',(0.699703112192,1.257624909769));
#59 = CARTESIAN_POINT('',(0.654645588644,1.239164147343));
#60 = CARTESIAN_POINT('',(0.615257621181,1.219996614653));
#61 = CARTESIAN_POINT('',(0.580580449208,1.200262012333));
#62 = CARTESIAN_POINT('',(0.549829116987,1.180066442196));
#63 = CARTESIAN_POINT('',(0.522392161716,1.159489310588));
#64 = CARTESIAN_POINT('',(0.450079898853,1.098105568246));
#65 = CARTESIAN_POINT('',(0.412971155544,1.056419193216));
#66 = CARTESIAN_POINT('',(0.382858431982,1.013984048108));
#67 = CARTESIAN_POINT('',(0.35787735328,0.971001670935));
#68 = CARTESIAN_POINT('',(0.336807210426,0.927614716511));
#69 = CARTESIAN_POINT('',(0.318819746729,0.883910912195));
#70 = CARTESIAN_POINT('',(0.303321594923,0.839956819005));
#71 = CARTESIAN_POINT('',(0.277266649293,0.754403498582));
#72 = CARTESIAN_POINT('',(0.266461529734,0.712828829263));
#73 = CARTESIAN_POINT('',(0.257097396593,0.671115907334));
#74 = CARTESIAN_POINT('',(0.248931194229,0.629291479101));
#75 = CARTESIAN_POINT('',(0.241784243221,0.587375519229));
#76 = CARTESIAN_POINT('',(0.235519106152,0.545383788614));
#77 = CARTESIAN_POINT('',(0.230030789833,0.503328762843));
#78 = CARTESIAN_POINT('',(0.216245943634,0.382268584698));
#79 = CARTESIAN_POINT('',(0.209694330812,0.303130437408));
#80 = CARTESIAN_POINT('',(0.205034772813,0.223874921696));
#81 = CARTESIAN_POINT('',(0.202000707009,0.144543945898));
#82 = CARTESIAN_POINT('',(0.200435611703,6.517186490067E-02));
#83 = CARTESIAN_POINT('',(0.200285988014,-1.421169388737E-02));
#84 = CARTESIAN_POINT('',(0.201576248973,-9.357691850335E-02));
#85 = CARTESIAN_POINT('',(0.206960838086,-0.242285524752));
#86 = CARTESIAN_POINT('',(0.210684568724,-0.31164154051));
#87 = CARTESIAN_POINT('',(0.215713164242,-0.380932421768));
#88 = CARTESIAN_POINT('',(0.222212657134,-0.450130343298));
#89 = CARTESIAN_POINT('',(0.230423783986,-0.519202047525));
#90 = CARTESIAN_POINT('',(0.240739411263,-0.588099563114));
#91 = CARTESIAN_POINT('',(0.253720708453,-0.656758995065));
#92 = CARTESIAN_POINT('',(0.277842530956,-0.754934860538));
#93 = CARTESIAN_POINT('',(0.28591113162,-0.784744957332));
#94 = CARTESIAN_POINT('',(0.294802042892,-0.814475032628));
#95 = CARTESIAN_POINT('',(0.30463113647,-0.84411238066));
#96 = CARTESIAN_POINT('',(0.315543305333,-0.873641103711));
#97 = CARTESIAN_POINT('',(0.327721306644,-0.903041163306));
#98 = CARTESIAN_POINT('',(0.341403957127,-0.932286242449));
#99 = CARTESIAN_POINT('',(0.371471084081,-0.988576319672));
#100 = CARTESIAN_POINT('',(0.387633323746,-1.015644598798));
#101 = CARTESIAN_POINT('',(0.405681893255,-1.042513269026));
#102 = CARTESIAN_POINT('',(0.425962470618,-1.069143574937));
#103 = CARTESIAN_POINT('',(0.448918869548,-1.095483930641));
#104 = CARTESIAN_POINT('',(0.475137819273,-1.1214657686));
#105 = CARTESIAN_POINT('',(0.505427338589,-1.146992109009));
#106 = CARTESIAN_POINT('',(0.557590490903,-1.183591572362));
#107 = CARTESIAN_POINT('',(0.575386542108,-1.195138750927));
#108 = CARTESIAN_POINT('',(0.594449657876,-1.206536756554));
#109 = CARTESIAN_POINT('',(0.614915499118,-1.217767218899));
#110 = CARTESIAN_POINT('',(0.636938312649,-1.228808467099));
#111 = CARTESIAN_POINT('',(0.660694327456,-1.239634644969));
#112 = CARTESIAN_POINT('',(0.686382576545,-1.250214600693));
#113 = CARTESIAN_POINT('',(0.741185390792,-1.270484865889));
#114 = CARTESIAN_POINT('',(0.770167763129,-1.2801926422));
#115 = CARTESIAN_POINT('',(0.801362366183,-1.289599666025));
#116 = CARTESIAN_POINT('',(0.834979563759,-1.298665807264));
#117 = CARTESIAN_POINT('',(0.871238944583,-1.307344305006));
#118 = CARTESIAN_POINT('',(0.910354755738,-1.315580400069));
#119 = CARTESIAN_POINT('',(0.952503267606,-1.323311142992));
#120 = CARTESIAN_POINT('',(1.04160984641,-1.337401497392));
#121 = CARTESIAN_POINT('',(1.088376508817,-1.343796428423));
#122 = CARTESIAN_POINT('',(1.138136020839,-1.349590665036));
#123 = CARTESIAN_POINT('',(1.190876105386,-1.354717689788));
#124 = CARTESIAN_POINT('',(1.246455502853,-1.359107909907));
#125 = CARTESIAN_POINT('',(1.304537515961,-1.362695821355));
#126 = CARTESIAN_POINT('',(1.364570502724,-1.365429126465));
#127 = CARTESIAN_POINT('',(1.485282035065,-1.369064686859));
#128 = CARTESIAN_POINT('',(1.54588173006,-1.370021474027));
#129 = CARTESIAN_POINT('',(1.607072955404,-1.370116878094));
#130 = CARTESIAN_POINT('',(1.668139892474,-1.369338974968));
#131 = CARTESIAN_POINT('',(1.728321873367,-1.367698368952));
#132 = CARTESIAN_POINT('',(1.786970223298,-1.365228400595));
#133 = CARTESIAN_POINT('',(1.843603506525,-1.361976004733));
#134 = CARTESIAN_POINT('',(1.950494430105,-1.354139738605));
#135 = CARTESIAN_POINT('',(2.000896119616,-1.349600657031));
#136 = CARTESIAN_POINT('',(2.048807101291,-1.344427911947));
#137 = CARTESIAN_POINT('',(2.094073713128,-1.338677713245));
#138 = CARTESIAN_POINT('',(2.136672878464,-1.332406753225));
#139 = CARTESIAN_POINT('',(2.176669604493,-1.32566845683));
#140 = CARTESIAN_POINT('',(2.214172815628,-1.318511317537));
#141 = CARTESIAN_POINT('',(2.317415698979,-1.296384853973));
#142 = CARTESIAN_POINT('',(2.376664922778,-1.280382021723));
#143 = CARTESIAN_POINT('',(2.428057489557,-1.263287251726));
#144 = CARTESIAN_POINT('',(2.47294603016,-1.245345339967));
#145 = CARTESIAN_POINT('',(2.51240532987,-1.226725120892));
#146 = CARTESIAN_POINT('',(2.547325799592,-1.207555993839));
#147 = CARTESIAN_POINT('',(2.578415750421,-1.187934298014));
#148 = CARTESIAN_POINT('',(2.632342972037,-1.149186243208));
#149 = CARTESIAN_POINT('',(2.65557455247,-1.130105591791));
#150 = CARTESIAN_POINT('',(2.676416522683,-1.110755068259));
#151 = CARTESIAN_POINT('',(2.695235404952,-1.091179995974));
#152 = CARTESIAN_POINT('',(2.71231961559,-1.071414702821));
#153 = CARTESIAN_POINT('',(2.727900947391,-1.051486328194));
#154 = CARTESIAN_POINT('',(2.742169536506,-1.031417035257));
#155 = CARTESIAN_POINT('',(2.779868771047,-0.973363865821));
#156 = CARTESIAN_POINT('',(2.800391966634,-0.935070392086));
#157 = CARTESIAN_POINT('',(2.817887381918,-0.896462466456));
#158 = CARTESIAN_POINT('',(2.832988249751,-0.857609444299));
#159 = CARTESIAN_POINT('',(2.846147830087,-0.818561336897));
#160 = CARTESIAN_POINT('',(2.857694403572,-0.779353887059));
#161 = CARTESIAN_POINT('',(2.867879073837,-0.740014740261));
#162 = CARTESIAN_POINT('',(2.892675666564,-0.63152904651));
#163 = CARTESIAN_POINT('',(2.904879314076,-0.562155244969));
#164 = CARTESIAN_POINT('',(2.914547489259,-0.49255928659));
#165 = CARTESIAN_POINT('',(2.922200534514,-0.422801241708));
#166 = CARTESIAN_POINT('',(2.928200550325,-0.352926344237));
#167 = CARTESIAN_POINT('',(2.932768418586,-0.282966517786));
#168 = CARTESIAN_POINT('',(2.936052919636,-0.212948736929));
#169 = CARTESIAN_POINT('',(2.939691923098,-9.035749620949E-02));
#170 = CARTESIAN_POINT('',(2.940573669444,-3.779908145406E-02));
#171 = CARTESIAN_POINT('',(2.940810991404,1.476869554506E-02));
#172 = CARTESIAN_POINT('',(2.940415942637,6.733670429232E-02));
#173 = CARTESIAN_POINT('',(2.939382934144,0.119896096144));
#174 = CARTESIAN_POINT('',(2.937688844353,0.172437657253));
#175 = CARTESIAN_POINT('',(2.935289533441,0.224951051466));
#176 = CARTESIAN_POINT('',(2.929730183185,0.316778629426));
#177 = CARTESIAN_POINT('',(2.926910208024,0.356110517128));
#178 = CARTESIAN_POINT('',(2.923622539724,0.395414426809));
#179 = CARTESIAN_POINT('',(2.919827121108,0.434684419392));
#180 = CARTESIAN_POINT('',(2.915473351546,0.473913677313));
#181 = CARTESIAN_POINT('',(2.910496558422,0.513094087309));
#182 = CARTESIAN_POINT('',(2.904811723016,0.552215534833));
#183 = CARTESIAN_POINT('',(2.893424014134,0.620551941567));
#184 = CARTESIAN_POINT('',(2.88808086096,0.649798421428));
#185 = CARTESIAN_POINT('',(2.882226856929,0.678998833902));
#186 = CARTESIAN_POINT('',(2.875803577165,0.708146596584));
#187 = CARTESIAN_POINT('',(2.868740890946,0.737233915569));
#188 = CARTESIAN_POINT('',(2.860952732117,0.766251312797));
#189 = CARTESIAN_POINT('',(2.852330065223,0.79518682561));
#190 = CARTESIAN_POINT('',(2.835531783989,0.845653418244));
#191 = CARTESIAN_POINT('',(2.827783248581,0.867227126364));
#192 = CARTESIAN_POINT('',(2.819425649037,0.888739442927));
#193 = CARTESIAN_POINT('',(2.810388022975,0.910182553146));
#194 = CARTESIAN_POINT('',(2.800586333198,0.931547194692));
#195 = CARTESIAN_POINT('',(2.789919192144,0.952822144571));
#196 = CARTESIAN_POINT('',(2.778261215342,0.973993385585));
#197 = CARTESIAN_POINT('',(2.755848595272,1.010830127502));
#198 = CARTESIAN_POINT('',(2.74559670584,1.026548853184));
#199 = CARTESIAN_POINT('',(2.73463147513,1.042191553573));
#200 = CARTESIAN_POINT('',(2.72287523824,1.057749323059));
#201 = CARTESIAN_POINT('',(2.710237382122,1.073211690642));
#202 = CARTESIAN_POINT('',(2.696610911821,1.08856613639));
#203 = CARTESIAN_POINT('',(2.681867726665,1.103797359973));
#204 = CARTESIAN_POINT('',(2.653841266176,1.130203007289));
#205 = CARTESIAN_POINT('',(2.641114471601,1.141439703492));
#206 = CARTESIAN_POINT('',(2.627606652473,1.152588255158));
#207 = CARTESIAN_POINT('',(2.613243770702,1.163639465295));
#208 = CARTESIAN_POINT('',(2.59794158072,1.174582653159));
#209 = CARTESIAN_POINT('',(2.581603889911,1.185405232755));
#210 = CARTESIAN_POINT('',(2.564120819038,1.196092291337));
#211 = CARTESIAN_POINT('',(2.517236428125,1.222426982745));
#212 = CARTESIAN_POINT('',(2.486246750758,1.237883077873));
#213 = CARTESIAN_POINT('',(2.451975526768,1.252934488656));
#214 = CARTESIAN_POINT('',(2.413922308957,1.267506639342));
#215 = CARTESIAN_POINT('',(2.371502164129,1.281504732784));
#216 = CARTESIAN_POINT('',(2.32404328973,1.294809041364));
#217 = CARTESIAN_POINT('',(2.270830468799,1.307261895312));
#218 = CARTESIAN_POINT('',(2.181684120302,1.32438140751));
#219 = CARTESIAN_POINT('',(2.150414154319,1.329827952028));
#220 = CARTESIAN_POINT('',(2.117531495654,1.33499098665));
#221 = CARTESIAN_POINT('',(2.082993880237,1.339845074366));
#222 = CARTESIAN_POINT('',(2.046782565979,1.344363079254));
#223 = CARTESIAN_POINT('',(2.008915726291,1.348516832541));
#224 = CARTESIAN_POINT('',(1.969461136269,1.352278343479));
#225 = CARTESIAN_POINT('',(1.887622184796,1.358964899679));
#226 = CARTESIAN_POINT('',(1.84523776335,1.361889943507));
#227 = CARTESIAN_POINT('',(1.801511472262,1.364370756237));
#228 = CARTESIAN_POINT('',(1.756619921855,1.366383306888));
#229 = CARTESIAN_POINT('',(1.710801129525,1.367907242407));
#230 = CARTESIAN_POINT('',(1.664344949177,1.368928015769));
#231 = CARTESIAN_POINT('',(1.617570661188,1.369438406005));
#232 = CARTESIAN_POINT('',(1.570796326795,1.369438406005));
#233 = ( GEOMETRIC_REPRESENTATION_CONTEXT(2) 
PARAMETRIC_REPRESENTATION_CONTEXT() REPRESENTATION_CONTEXT('2D SPACE',''
  ) );
#234 = PCURVE('',#235,#240);
#235 = PLANE('',#236);
#236 = AXIS2_PLACEMENT_3D('',#237,#238,#239);
#237 = CARTESIAN_POINT('',(0.,-27.,220.));
#238 = DIRECTION('',(0.,1.,0.));
#239 = DIRECTION('',(0.,0.,1.));
#240 = DEFINITIONAL_REPRESENTATION('',(#241),#245);
#241 = CIRCLE('',#242,14.696938456699);
#242 = AXIS2_PLACEMENT_2D('',#243,#244);
#243 = CARTESIAN_POINT('',(26.,27.));
#244 = DIRECTION('',(1.,0.));
#245 = ( GEOMETRIC_REPRESENTATION_CONTEXT(2) 
PARAMETRIC_REPRESENTATION_CONTEXT() REPRESENTATION_CONTEXT('2D SPACE',''
  ) );
#246 = ADVANCED_FACE('',(#247,#250),#235,.T.);
#247 = FACE_BOUND('',#248,.T.);
#248 = EDGE_LOOP('',(#249));
#249 = ORIENTED_EDGE('',*,*,#25,.T.);
#250 = FACE_BOUND('',#251,.T.);
#251 = EDGE_LOOP('',(#252));
#252 = ORIENTED_EDGE('',*,*,#253,.T.);
#253 = EDGE_CURVE('',#254,#254,#256,.T.);
#254 = VERTEX_POINT('',#255);
#255 = CARTESIAN_POINT('',(32.,-27.,246.));
#256 = SURFACE_CURVE('',#257,(#262,#273),.PCURVE_S1.);
#257 = CIRCLE('',#258,5.);
#258 = AXIS2_PLACEMENT_3D('',#259,#260,#261);
#259 = CARTESIAN_POINT('',(27.,-27.,246.));
#260 = DIRECTION('',(0.,-1.,0.));
#261 = DIRECTION('',(1.,0.,0.));
#262 = PCURVE('',#235,#263);
#263 = DEFINITIONAL_REPRESENTATION('',(#264),#272);
#264 = ( BOUNDED_CURVE() B_SPLINE_CURVE(2,(#265,#266,#267,#268,#269,#270
,#271),.UNSPECIFIED.,.T.,.F.) B_SPLINE_CURVE_WITH_KNOTS((1,2,2,2,2,1),(
    -2.094395102393,0.,2.094395102393,4.188790204786,6.28318530718,
8.377580409573),.UNSPECIFIED.) CURVE() GEOMETRIC_REPRESENTATION_ITEM() 
RATIONAL_B_SPLINE_CURVE((1.,0.5,1.,0.5,1.,0.5,1.)) REPRESENTATION_ITEM(
  '') );
#265 = CARTESIAN_POINT('',(26.,32.));
#266 = CARTESIAN_POINT('',(34.660254037844,32.));
#267 = CARTESIAN_POINT('',(30.330127018922,24.5));
#268 = CARTESIAN_POINT('',(26.,17.));
#269 = CARTESIAN_POINT('',(21.669872981078,24.5));
#270 = CARTESIAN_POINT('',(17.339745962156,32.));
#271 = CARTESIAN_POINT('',(26.,32.));
#272 = ( GEOMETRIC_REPRESENTATION_CONTEXT(2) 
PARAMETRIC_REPRESENTATION_CONTEXT() REPRESENTATION_CONTEXT('2D SPACE',''
  ) );
#273 = PCURVE('',#274,#279);
#274 = CYLINDRICAL_SURFACE('',#275,5.);
#275 = AXIS2_PLACEMENT_3D('',#276,#277,#278);
#276 = CARTESIAN_POINT('',(27.,-19.,246.));
#277 = DIRECTION('',(-0.,1.,-0.));
#278 = DIRECTION('',(1.,0.,0.));
#279 = DEFINITIONAL_REPRESENTATION('',(#280),#284);
#280 = LINE('',#281,#282);
#281 = CARTESIAN_POINT('',(-0.,-8.));
#282 = VECTOR('',#283,1.);
#283 = DIRECTION('',(-1.,0.));
#284 = ( GEOMETRIC_REPRESENTATION_CONTEXT(2) 
PARAMETRIC_REPRESENTATION_CONTEXT() REPRESENTATION_CONTEXT('2D SPACE',''
  ) );
#285 = ADVANCED_FACE('',(#286),#274,.T.);
#286 = FACE_BOUND('',#287,.F.);
#287 = EDGE_LOOP('',(#288,#311,#312,#313));
#288 = ORIENTED_EDGE('',*,*,#289,.T.);
#289 = EDGE_CURVE('',#290,#254,#292,.T.);
#290 = VERTEX_POINT('',#291);
#291 = CARTESIAN_POINT('',(32.,-19.,246.));
#292 = SEAM_CURVE('',#293,(#297,#304),.PCURVE_S1.);
#293 = LINE('',#294,#295);
#294 = CARTESIAN_POINT('',(32.,-19.,246.));
#295 = VECTOR('',#296,1.);
#296 = DIRECTION('',(0.,-1.,0.));
#297 = PCURVE('',#274,#298);
#298 = DEFINITIONAL_REPRESENTATION('',(#299),#303);
#299 = LINE('',#300,#301);
#300 = CARTESIAN_POINT('',(-0.,0.));
#301 = VECTOR('',#302,1.);
#302 = DIRECTION('',(-0.,-1.));
#303 = ( GEOMETRIC_REPRESENTATION_CONTEXT(2) 
PARAMETRIC_REPRESENTATION_CONTEXT() REPRESENTATION_CONTEXT('2D SPACE',''
  ) );
#304 = PCURVE('',#274,#305);
#305 = DEFINITIONAL_REPRESENTATION('',(#306),#310);
#306 = LINE('',#307,#308);
#307 = CARTESIAN_POINT('',(-6.28318530718,0.));
#308 = VECTOR('',#309,1.);
#309 = DIRECTION('',(-0.,-1.));
#310 = ( GEOMETRIC_REPRESENTATION_CONTEXT(2) 
PARAMETRIC_REPRESENTATION_CONTEXT() REPRESENTATION_CONTEXT('2D SPACE',''
  ) );
#311 = ORIENTED_EDGE('',*,*,#253,.T.);
#312 = ORIENTED_EDGE('',*,*,#289,.F.);
#313 = ORIENTED_EDGE('',*,*,#314,.F.);
#314 = EDGE_CURVE('',#290,#290,#315,.T.);
#315 = SURFACE_CURVE('',#316,(#321,#328),.PCURVE_S1.);
#316 = CIRCLE('',#317,5.);
#317 = AXIS2_PLACEMENT_3D('',#318,#319,#320);
#318 = CARTESIAN_POINT('',(27.,-19.,246.));
#319 = DIRECTION('',(0.,-1.,0.));
#320 = DIRECTION('',(1.,0.,0.));
#321 = PCURVE('',#274,#322);
#322 = DEFINITIONAL_REPRESENTATION('',(#323),#327);
#323 = LINE('',#324,#325);
#324 = CARTESIAN_POINT('',(-0.,0.));
#325 = VECTOR('',#326,1.);
#326 = DIRECTION('',(-1.,0.));
#327 = ( GEOMETRIC_REPRESENTATION_CONTEXT(2) 
PARAMETRIC_REPRESENTATION_CONTEXT() REPRESENTATION_CONTEXT('2D SPACE',''
  ) );
#328 = PCURVE('',#329,#334);
#329 = PLANE('',#330);
#330 = AXIS2_PLACEMENT_3D('',#331,#332,#333);
#331 = CARTESIAN_POINT('',(27.,-19.,246.));
#332 = DIRECTION('',(-0.,-1.,-0.));
#333 = DIRECTION('',(0.,0.,-1.));
#334 = DEFINITIONAL_REPRESENTATION('',(#335),#339);
#335 = CIRCLE('',#336,5.);
#336 = AXIS2_PLACEMENT_2D('',#337,#338);
#337 = CARTESIAN_POINT('',(5.684341886081E-14,0.));
#338 = DIRECTION('',(0.,1.));
#339 = ( GEOMETRIC_REPRESENTATION_CONTEXT(2) 
PARAMETRIC_REPRESENTATION_CONTEXT() REPRESENTATION_CONTEXT('2D SPACE',''
  ) );
#340 = ADVANCED_FACE('',(#341,#344),#329,.F.);
#341 = FACE_BOUND('',#342,.F.);
#342 = EDGE_LOOP('',(#343));
#343 = ORIENTED_EDGE('',*,*,#314,.T.);
#344 = FACE_BOUND('',#345,.F.);
#345 = EDGE_LOOP('',(#346));
#346 = ORIENTED_EDGE('',*,*,#347,.F.);
#347 = EDGE_CURVE('',#348,#348,#350,.T.);
#348 = VERTEX_POINT('',#349);
#349 = CARTESIAN_POINT('',(28.3,-19.,246.));
#350 = SURFACE_CURVE('',#351,(#356,#363),.PCURVE_S1.);
#351 = CIRCLE('',#352,1.3);
#352 = AXIS2_PLACEMENT_3D('',#353,#354,#355);
#353 = CARTESIAN_POINT('',(27.,-19.,246.));
#354 = DIRECTION('',(0.,-1.,0.));
#355 = DIRECTION('',(1.,0.,0.));
#356 = PCURVE('',#329,#357);
#357 = DEFINITIONAL_REPRESENTATION('',(#358),#362);
#358 = CIRCLE('',#359,1.3);
#359 = AXIS2_PLACEMENT_2D('',#360,#361);
#360 = CARTESIAN_POINT('',(5.684341886081E-14,0.));
#361 = DIRECTION('',(0.,1.));
#362 = ( GEOMETRIC_REPRESENTATION_CONTEXT(2) 
PARAMETRIC_REPRESENTATION_CONTEXT() REPRESENTATION_CONTEXT('2D SPACE',''
  ) );
#363 = PCURVE('',#364,#369);
#364 = CYLINDRICAL_SURFACE('',#365,1.3);
#365 = AXIS2_PLACEMENT_3D('',#366,#367,#368);
#366 = CARTESIAN_POINT('',(27.,-19.,246.));
#367 = DIRECTION('',(-0.,1.,-0.));
#368 = DIRECTION('',(1.,0.,0.));
#369 = DEFINITIONAL_REPRESENTATION('',(#370),#374);
#370 = LINE('',#371,#372);
#371 = CARTESIAN_POINT('',(-0.,0.));
#372 = VECTOR('',#373,1.);
#373 = DIRECTION('',(-1.,0.));
#374 = ( GEOMETRIC_REPRESENTATION_CONTEXT(2) 
PARAMETRIC_REPRESENTATION_CONTEXT() REPRESENTATION_CONTEXT('2D SPACE',''
  ) );
#375 = ADVANCED_FACE('',(#376),#364,.F.);
#376 = FACE_BOUND('',#377,.T.);
#377 = EDGE_LOOP('',(#378,#401,#428,#429));
#378 = ORIENTED_EDGE('',*,*,#379,.T.);
#379 = EDGE_CURVE('',#348,#380,#382,.T.);
#380 = VERTEX_POINT('',#381);
#381 = CARTESIAN_POINT('',(28.3,-26.,246.));
#382 = SEAM_CURVE('',#383,(#387,#394),.PCURVE_S1.);
#383 = LINE('',#384,#385);
#384 = CARTESIAN_POINT('',(28.3,-19.,246.));
#385 = VECTOR('',#386,1.);
#386 = DIRECTION('',(0.,-1.,0.));
#387 = PCURVE('',#364,#388);
#388 = DEFINITIONAL_REPRESENTATION('',(#389),#393);
#389 = LINE('',#390,#391);
#390 = CARTESIAN_POINT('',(-0.,0.));
#391 = VECTOR('',#392,1.);
#392 = DIRECTION('',(-0.,-1.));
#393 = ( GEOMETRIC_REPRESENTATION_CONTEXT(2) 
PARAMETRIC_REPRESENTATION_CONTEXT() REPRESENTATION_CONTEXT('2D SPACE',''
  ) );
#394 = PCURVE('',#364,#395);
#395 = DEFINITIONAL_REPRESENTATION('',(#396),#400);
#396 = LINE('',#397,#398);
#397 = CARTESIAN_POINT('',(-6.28318530718,0.));
#398 = VECTOR('',#399,1.);
#399 = DIRECTION('',(-0.,-1.));
#400 = ( GEOMETRIC_REPRESENTATION_CONTEXT(2) 
PARAMETRIC_REPRESENTATION_CONTEXT() REPRESENTATION_CONTEXT('2D SPACE',''
  ) );
#401 = ORIENTED_EDGE('',*,*,#402,.T.);
#402 = EDGE_CURVE('',#380,#380,#403,.T.);
#403 = SURFACE_CURVE('',#404,(#409,#416),.PCURVE_S1.);
#404 = CIRCLE('',#405,1.3);
#405 = AXIS2_PLACEMENT_3D('',#406,#407,#408);
#406 = CARTESIAN_POINT('',(27.,-26.,246.));
#407 = DIRECTION('',(0.,-1.,0.));
#408 = DIRECTION('',(1.,0.,0.));
#409 = PCURVE('',#364,#410);
#410 = DEFINITIONAL_REPRESENTATION('',(#411),#415);
#411 = LINE('',#412,#413);
#412 = CARTESIAN_POINT('',(-0.,-7.));
#413 = VECTOR('',#414,1.);
#414 = DIRECTION('',(-1.,0.));
#415 = ( GEOMETRIC_REPRESENTATION_CONTEXT(2) 
PARAMETRIC_REPRESENTATION_CONTEXT() REPRESENTATION_CONTEXT('2D SPACE',''
  ) );
#416 = PCURVE('',#417,#422);
#417 = PLANE('',#418);
#418 = AXIS2_PLACEMENT_3D('',#419,#420,#421);
#419 = CARTESIAN_POINT('',(27.,-26.,246.));
#420 = DIRECTION('',(-0.,-1.,-0.));
#421 = DIRECTION('',(0.,0.,-1.));
#422 = DEFINITIONAL_REPRESENTATION('',(#423),#427);
#423 = CIRCLE('',#424,1.3);
#424 = AXIS2_PLACEMENT_2D('',#425,#426);
#425 = CARTESIAN_POINT('',(0.,-3.552713678801E-15));
#426 = DIRECTION('',(0.,1.));
#427 = ( GEOMETRIC_REPRESENTATION_CONTEXT(2) 
PARAMETRIC_REPRESENTATION_CONTEXT() REPRESENTATION_CONTEXT('2D SPACE',''
  ) );
#428 = ORIENTED_EDGE('',*,*,#379,.F.);
#429 = ORIENTED_EDGE('',*,*,#347,.F.);
#430 = ADVANCED_FACE('',(#431),#417,.F.);
#431 = FACE_BOUND('',#432,.F.);
#432 = EDGE_LOOP('',(#433));
#433 = ORIENTED_EDGE('',*,*,#402,.T.);
#434 = ORIENTED_CLOSED_SHELL('',*,#435,.F.);
#435 = CLOSED_SHELL('',(#436,#682));
#436 = ADVANCED_FACE('',(#437),#450,.T.);
#437 = FACE_BOUND('',#438,.T.);
#438 = EDGE_LOOP('',(#439));
#439 = ORIENTED_EDGE('',*,*,#440,.F.);
#440 = EDGE_CURVE('',#441,#441,#443,.T.);
#441 = VERTEX_POINT('',#442);
#442 = CARTESIAN_POINT('',(27.,-32.,258.44025723206));
#443 = SURFACE_CURVE('',#444,(#449,#670),.PCURVE_S1.);
#444 = CIRCLE('',#445,12.440257232067);
#445 = AXIS2_PLACEMENT_3D('',#446,#447,#448);
#446 = CARTESIAN_POINT('',(27.,-32.,246.));
#447 = DIRECTION('',(0.,1.,0.));
#448 = DIRECTION('',(0.,-0.,1.));
#449 = PCURVE('',#450,#455);
#450 = SPHERICAL_SURFACE('',#451,12.6);
#451 = AXIS2_PLACEMENT_3D('',#452,#453,#454);
#452 = CARTESIAN_POINT('',(27.,-30.,246.));
#453 = DIRECTION('',(0.,0.,1.));
#454 = DIRECTION('',(1.,0.,0.));
#455 = DEFINITIONAL_REPRESENTATION('',(#456),#669);
#456 = B_SPLINE_CURVE_WITH_KNOTS('',8,(#457,#458,#459,#460,#461,#462,
    #463,#464,#465,#466,#467,#468,#469,#470,#471,#472,#473,#474,#475,
    #476,#477,#478,#479,#480,#481,#482,#483,#484,#485,#486,#487,#488,
    #489,#490,#491,#492,#493,#494,#495,#496,#497,#498,#499,#500,#501,
    #502,#503,#504,#505,#506,#507,#508,#509,#510,#511,#512,#513,#514,
    #515,#516,#517,#518,#519,#520,#521,#522,#523,#524,#525,#526,#527,
    #528,#529,#530,#531,#532,#533,#534,#535,#536,#537,#538,#539,#540,
    #541,#542,#543,#544,#545,#546,#547,#548,#549,#550,#551,#552,#553,
    #554,#555,#556,#557,#558,#559,#560,#561,#562,#563,#564,#565,#566,
    #567,#568,#569,#570,#571,#572,#573,#574,#575,#576,#577,#578,#579,
    #580,#581,#582,#583,#584,#585,#586,#587,#588,#589,#590,#591,#592,
    #593,#594,#595,#596,#597,#598,#599,#600,#601,#602,#603,#604,#605,
    #606,#607,#608,#609,#610,#611,#612,#613,#614,#615,#616,#617,#618,
    #619,#620,#621,#622,#623,#624,#625,#626,#627,#628,#629,#630,#631,
    #632,#633,#634,#635,#636,#637,#638,#639,#640,#641,#642,#643,#644,
    #645,#646,#647,#648,#649,#650,#651,#652,#653,#654,#655,#656,#657,
    #658,#659,#660,#661,#662,#663,#664,#665,#666,#667,#668),
  .UNSPECIFIED.,.F.,.F.,(9,7,7,7,7,7,7,7,7,7,7,7,7,7,7,7,7,7,7,7,7,7,7,7
    ,7,7,7,7,7,7,9),(0.,4.908738521234E-02,0.146495165243,0.242380948711
    ,0.431156084913,0.614031998109,0.968354079926,1.632707983332,
    2.214017648813,2.468340627461,2.706768419944,2.81853144767,
    2.926801880779,3.031688862854,3.082493494797,3.132504304365,
    3.230963085703,3.326345030124,3.418746288782,3.597773727432,
    3.933450174901,4.227167066436,4.741171626622,5.126675046761,
    5.415802611866,5.632648285694,5.957916796437,6.039233924123,
    6.161209615651,6.222197461415,6.28318530718),.UNSPECIFIED.);
#457 = CARTESIAN_POINT('',(4.712388980385,1.411391954233));
#458 = CARTESIAN_POINT('',(4.750555211565,1.411391954233));
#459 = CARTESIAN_POINT('',(4.788721384653,1.411124318405));
#460 = CARTESIAN_POINT('',(4.826716176222,1.410589026643));
#461 = CARTESIAN_POINT('',(4.864367369819,1.409788628539));
#462 = CARTESIAN_POINT('',(4.901513512325,1.408728147173));
#463 = CARTESIAN_POINT('',(4.938012100865,1.407414799101));
#464 = CARTESIAN_POINT('',(4.97374430024,1.405857530536));
#465 = CARTESIAN_POINT('',(5.077815098949,1.400512034967));
#466 = CARTESIAN_POINT('',(5.143626163566,1.396036716433));
#467 = CARTESIAN_POINT('',(5.205314227546,1.390718902006));
#468 = CARTESIAN_POINT('',(5.262522841479,1.384655130701));
#469 = CARTESIAN_POINT('',(5.315300689476,1.37794293391));
#470 = CARTESIAN_POINT('',(5.36386491568,1.370668340857));
#471 = CARTESIAN_POINT('',(5.408517851663,1.362906568741));
#472 = CARTESIAN_POINT('',(5.490012771287,1.346664703304));
#473 = CARTESIAN_POINT('',(5.526965878329,1.338197729443));
#474 = CARTESIAN_POINT('',(5.560757525086,1.329381962171));
#475 = CARTESIAN_POINT('',(5.591722727939,1.320268230187));
#476 = CARTESIAN_POINT('',(5.620171509949,1.310897964419));
#477 = CARTESIAN_POINT('',(5.646377556043,1.30130506536));
#478 = CARTESIAN_POINT('',(5.670582859582,1.291517767144));
#479 = CARTESIAN_POINT('',(5.737127015525,1.261954438788));
#480 = CARTESIAN_POINT('',(5.774316681187,1.24168698739));
#481 = CARTESIAN_POINT('',(5.806174707491,1.22093693549));
#482 = CARTESIAN_POINT('',(5.833843061055,1.19981446008));
#483 = CARTESIAN_POINT('',(5.858116838127,1.178396232057));
#484 = CARTESIAN_POINT('',(5.879603728558,1.156737710785));
#485 = CARTESIAN_POINT('',(5.898761321478,1.134880604765));
#486 = CARTESIAN_POINT('',(5.932601938379,1.091521767341));
#487 = CARTESIAN_POINT('',(5.947406029727,1.070030277771));
#488 = CARTESIAN_POINT('',(5.960689598495,1.048411816239));
#489 = CARTESIAN_POINT('',(5.972691928698,1.026687264675));
#490 = CARTESIAN_POINT('',(5.983597745278,1.004872580918));
#491 = CARTESIAN_POINT('',(5.993554478959,0.982980438256));
#492 = CARTESIAN_POINT('',(6.002681059867,0.96102098085));
#493 = CARTESIAN_POINT('',(6.027340547025,0.896341934327));
#494 = CARTESIAN_POINT('',(6.040857951689,0.853460021807));
#495 = CARTESIAN_POINT('',(6.052341854776,0.810417614478));
#496 = CARTESIAN_POINT('',(6.062211713076,0.767249987101));
#497 = CARTESIAN_POINT('',(6.070770192589,0.723982863798));
#498 = CARTESIAN_POINT('',(6.078232322055,0.680634616908));
#499 = CARTESIAN_POINT('',(6.084762982836,0.637219612747));
#500 = CARTESIAN_POINT('',(6.101223116965,0.512241910583));
#501 = CARTESIAN_POINT('',(6.109126727724,0.430539613446));
#502 = CARTESIAN_POINT('',(6.115030439997,0.34871646063));
#503 = CARTESIAN_POINT('',(6.119307001479,0.266810317061));
#504 = CARTESIAN_POINT('',(6.12220663192,0.184851156938));
#505 = CARTESIAN_POINT('',(6.123849831885,0.102861303876));
#506 = CARTESIAN_POINT('',(6.124288366225,2.086167892482E-02));
#507 = CARTESIAN_POINT('',(6.122772895063,-0.132864760363));
#508 = CARTESIAN_POINT('',(6.121111122773,-0.204594421213));
#509 = CARTESIAN_POINT('',(6.118467514079,-0.276300015248));
#510 = CARTESIAN_POINT('',(6.11475981793,-0.347965803446));
#511 = CARTESIAN_POINT('',(6.109853621182,-0.419573810291));
#512 = CARTESIAN_POINT('',(6.103520129297,-0.49109973242));
#513 = CARTESIAN_POINT('',(6.095425506418,-0.562511811231));
#514 = CARTESIAN_POINT('',(6.080305011987,-0.664919338959));
#515 = CARTESIAN_POINT('',(6.075239156668,-0.696053914162));
#516 = CARTESIAN_POINT('',(6.069653694502,-0.727150668683));
#517 = CARTESIAN_POINT('',(6.063481104877,-0.758203762987));
#518 = CARTESIAN_POINT('',(6.056637274701,-0.78920599611));
#519 = CARTESIAN_POINT('',(6.049016744936,-0.82014841));
#520 = CARTESIAN_POINT('',(6.040482652749,-0.851019425784));
#521 = CARTESIAN_POINT('',(6.021811842091,-0.910662659337));
#522 = CARTESIAN_POINT('',(6.011808701632,-0.939445472382));
#523 = CARTESIAN_POINT('',(6.00068035794,-0.968138190844));
#524 = CARTESIAN_POINT('',(5.988232222075,-0.99672436291));
#525 = CARTESIAN_POINT('',(5.974209165245,-1.025182165281));
#526 = CARTESIAN_POINT('',(5.958277728274,-1.053483048171));
#527 = CARTESIAN_POINT('',(5.939976901576,-1.081587192964));
#528 = CARTESIAN_POINT('',(5.908581868186,-1.122483889148));
#529 = CARTESIAN_POINT('',(5.897886584592,-1.135478981339));
#530 = CARTESIAN_POINT('',(5.886443081661,-1.148410563126));
#531 = CARTESIAN_POINT('',(5.874166583766,-1.161270987661));
#532 = CARTESIAN_POINT('',(5.860957724918,-1.174051219979));
#533 = CARTESIAN_POINT('',(5.846698493092,-1.186740389086));
#534 = CARTESIAN_POINT('',(5.831246560826,-1.19932509893));
#535 = CARTESIAN_POINT('',(5.798135023387,-1.223862416335));
#536 = CARTESIAN_POINT('',(5.780559458247,-1.235822482909));
#537 = CARTESIAN_POINT('',(5.761543285273,-1.247653360283));
#538 = CARTESIAN_POINT('',(5.740899859449,-1.259336605303));
#539 = CARTESIAN_POINT('',(5.718409147918,-1.270849781367));
#540 = CARTESIAN_POINT('',(5.693807516794,-1.282165162473));
#541 = CARTESIAN_POINT('',(5.666778878307,-1.293247787167));
#542 = CARTESIAN_POINT('',(5.608061163999,-1.314519802265));
#543 = CARTESIAN_POINT('',(5.576544146555,-1.324726269693));
#544 = CARTESIAN_POINT('',(5.542067563823,-1.334631178562));
#545 = CARTESIAN_POINT('',(5.504249490477,-1.344184467675));
#546 = CARTESIAN_POINT('',(5.462665981778,-1.353325541114));
#547 = CARTESIAN_POINT('',(5.416860481767,-1.361979058243));
#548 = CARTESIAN_POINT('',(5.366409508223,-1.370052682561));
#549 = CARTESIAN_POINT('',(5.284303515747,-1.381020667447));
#550 = CARTESIAN_POINT('',(5.256370122079,-1.384439062042));
#551 = CARTESIAN_POINT('',(5.227271351168,-1.387684928941));
#552 = CARTESIAN_POINT('',(5.19699327722,-1.390745714771));
#553 = CARTESIAN_POINT('',(5.165538114497,-1.393608349849));
#554 = CARTESIAN_POINT('',(5.132929091223,-1.396259546555));
#555 = CARTESIAN_POINT('',(5.099214596858,-1.398686254649));
#556 = CARTESIAN_POINT('',(5.030271467943,-1.403032073387));
#557 = CARTESIAN_POINT('',(4.995074666662,-1.404958516752));
#558 = CARTESIAN_POINT('',(4.958954332155,-1.406643990777));
#559 = CARTESIAN_POINT('',(4.922009540811,-1.408077596572));
#560 = CARTESIAN_POINT('',(4.884367218582,-1.409249834));
#561 = CARTESIAN_POINT('',(4.846179643756,-1.410153164278));
#562 = CARTESIAN_POINT('',(4.807617546068,-1.410782450425));
#563 = CARTESIAN_POINT('',(4.692552525101,-1.411829899943));
#564 = CARTESIAN_POINT('',(4.615484268317,-1.411452929576));
#565 = CARTESIAN_POINT('',(4.539011407178,-1.409985867962));
#566 = CARTESIAN_POINT('',(4.464609635688,-1.407449153391));
#567 = CARTESIAN_POINT('',(4.393563455507,-1.403910826001));
#568 = CARTESIAN_POINT('',(4.326549008971,-1.399464567026));
#569 = CARTESIAN_POINT('',(4.263880516653,-1.394207623079));
#570 = CARTESIAN_POINT('',(4.149132755167,-1.382446921341));
#571 = CARTESIAN_POINT('',(4.096783933492,-1.375987248597));
#572 = CARTESIAN_POINT('',(4.048586125959,-1.368940204185));
#573 = CARTESIAN_POINT('',(4.004340395252,-1.361387710987));
#574 = CARTESIAN_POINT('',(3.963732705205,-1.353400341601));
#575 = CARTESIAN_POINT('',(3.926435432812,-1.345037531061));
#576 = CARTESIAN_POINT('',(3.892126707065,-1.336349157369));
#577 = CARTESIAN_POINT('',(3.829880150331,-1.318685340624));
#578 = CARTESIAN_POINT('',(3.801776724844,-1.309727352723));
#579 = CARTESIAN_POINT('',(3.775928606532,-1.300541146037));
#580 = CARTESIAN_POINT('',(3.75208640669,-1.291157678237));
#581 = CARTESIAN_POINT('',(3.730031472545,-1.281602272159));
#582 = CARTESIAN_POINT('',(3.709574602356,-1.271895878133));
#583 = CARTESIAN_POINT('',(3.690550803511,-1.262056065099));
#584 = CARTESIAN_POINT('',(3.638457816665,-1.232803262523));
#585 = CARTESIAN_POINT('',(3.608941229018,-1.213063708674));
#586 = CARTESIAN_POINT('',(3.583225251706,-1.192986823583));
#587 = CARTESIAN_POINT('',(3.560573574126,-1.172642457974));
#588 = CARTESIAN_POINT('',(3.540446431311,-1.152080439265));
#589 = CARTESIAN_POINT('',(3.522432535336,-1.131338441864));
#590 = CARTESIAN_POINT('',(3.506209786843,-1.110444984702));
#591 = CARTESIAN_POINT('',(3.463983737952,-1.050006088179));
#592 = CARTESIAN_POINT('',(3.441842731027,-1.010136693713));
#593 = CARTESIAN_POINT('',(3.423413215394,-0.969963504941));
#594 = CARTESIAN_POINT('',(3.407812911344,-0.929560717729));
#595 = CARTESIAN_POINT('',(3.394417861087,-0.88898185588));
#596 = CARTESIAN_POINT('',(3.382809954387,-0.848261892901));
#597 = CARTESIAN_POINT('',(3.372672502142,-0.80742778747));
#598 = CARTESIAN_POINT('',(3.355979545921,-0.73068742603));
#599 = CARTESIAN_POINT('',(3.349134610753,-0.694803232289));
#600 = CARTESIAN_POINT('',(3.343076285761,-0.658860511516));
#601 = CARTESIAN_POINT('',(3.337690560557,-0.622869066333));
#602 = CARTESIAN_POINT('',(3.332890156577,-0.586836527176));
#603 = CARTESIAN_POINT('',(3.328605995392,-0.550769075717));
#604 = CARTESIAN_POINT('',(3.324783262299,-0.514671776347));
#605 = CARTESIAN_POINT('',(3.31541723309,-0.415333931406));
#606 = CARTESIAN_POINT('',(3.310733768,-0.352040684144));
#607 = CARTESIAN_POINT('',(3.307089292136,-0.28869212631));
#608 = CARTESIAN_POINT('',(3.304343136626,-0.225303906111));
#609 = CARTESIAN_POINT('',(3.302405847692,-0.161888421205));
#610 = CARTESIAN_POINT('',(3.301222744236,-9.845642249747E-02));
#611 = CARTESIAN_POINT('',(3.300771951047,-3.501769803186E-02));
#612 = CARTESIAN_POINT('',(3.301279472986,7.599414532603E-02));
#613 = CARTESIAN_POINT('',(3.301913756494,0.123568743141));
#614 = CARTESIAN_POINT('',(3.302968362526,0.171137199808));
#615 = CARTESIAN_POINT('',(3.304457359277,0.218695152762));
#616 = CARTESIAN_POINT('',(3.306404811625,0.266237966688));
#617 = CARTESIAN_POINT('',(3.308846678191,0.313760438264));
#618 = CARTESIAN_POINT('',(3.311835128553,0.361256350507));
#619 = CARTESIAN_POINT('',(3.318152894647,0.444314021359));
#620 = CARTESIAN_POINT('',(3.32121029839,0.47989081631));
#621 = CARTESIAN_POINT('',(3.324649041042,0.515444970623));
#622 = CARTESIAN_POINT('',(3.328508844329,0.550972602261));
#623 = CARTESIAN_POINT('',(3.332838413574,0.586469161675));
#624 = CARTESIAN_POINT('',(3.33769880593,0.621929141061));
#625 = CARTESIAN_POINT('',(3.343169355787,0.657345569315));
#626 = CARTESIAN_POINT('',(3.353996258504,0.719232085142));
#627 = CARTESIAN_POINT('',(3.359039344029,0.745725222725));
#628 = CARTESIAN_POINT('',(3.364530047298,0.772184855935));
#629 = CARTESIAN_POINT('',(3.370522476049,0.79860635324));
#630 = CARTESIAN_POINT('',(3.37708145818,0.824984203144));
#631 = CARTESIAN_POINT('',(3.384286590113,0.851311665983));
#632 = CARTESIAN_POINT('',(3.392239087698,0.877580175417));
#633 = CARTESIAN_POINT('',(3.414319967643,0.943075960896));
#634 = CARTESIAN_POINT('',(3.429548450902,0.982215424558));
#635 = CARTESIAN_POINT('',(3.447203959893,1.021159305403));
#636 = CARTESIAN_POINT('',(3.467903633067,1.059853607038));
#637 = CARTESIAN_POINT('',(3.492496523814,1.098229184119));
#638 = CARTESIAN_POINT('',(3.522305954427,1.136164957179));
#639 = CARTESIAN_POINT('',(3.559305503919,1.173496824246));
#640 = CARTESIAN_POINT('',(3.619807993499,1.218898264943));
#641 = CARTESIAN_POINT('',(3.632621123371,1.227915400701));
#642 = CARTESIAN_POINT('',(3.646212798045,1.236862947758));
#643 = CARTESIAN_POINT('',(3.660657468816,1.245733627476));
#644 = CARTESIAN_POINT('',(3.676039959728,1.254518978231));
#645 = CARTESIAN_POINT('',(3.692457301864,1.263209014761));
#646 = CARTESIAN_POINT('',(3.710020567648,1.271791887493));
#647 = CARTESIAN_POINT('',(3.757110911382,1.29294602348));
#648 = CARTESIAN_POINT('',(3.78822909841,1.305365714369));
#649 = CARTESIAN_POINT('',(3.822639447722,1.317464883001));
#650 = CARTESIAN_POINT('',(3.860850536283,1.329184064471));
#651 = CARTESIAN_POINT('',(3.903459711873,1.340447450686));
#652 = CARTESIAN_POINT('',(3.951156062787,1.351159073169));
#653 = CARTESIAN_POINT('',(4.004682959513,1.361191870336));
#654 = CARTESIAN_POINT('',(4.094460196738,1.374993657071));
#655 = CARTESIAN_POINT('',(4.125967086234,1.379386352774));
#656 = CARTESIAN_POINT('',(4.159117042493,1.383552050136));
#657 = CARTESIAN_POINT('',(4.193956146604,1.387470071448));
#658 = CARTESIAN_POINT('',(4.230506837413,1.391118298932));
#659 = CARTESIAN_POINT('',(4.268753862218,1.394473703797));
#660 = CARTESIAN_POINT('',(4.308630761982,1.397513333998));
#661 = CARTESIAN_POINT('',(4.391396587147,1.402918325089));
#662 = CARTESIAN_POINT('',(4.434285578039,1.405283684816));
#663 = CARTESIAN_POINT('',(4.478556557423,1.407290543244));
#664 = CARTESIAN_POINT('',(4.524029729724,1.408919099258));
#665 = CARTESIAN_POINT('',(4.570460849394,1.410152535878));
#666 = CARTESIAN_POINT('',(4.617550969877,1.410978812812));
#667 = CARTESIAN_POINT('',(4.664969949801,1.411391954233));
#668 = CARTESIAN_POINT('',(4.712388980385,1.411391954233));
#669 = ( GEOMETRIC_REPRESENTATION_CONTEXT(2) 
PARAMETRIC_REPRESENTATION_CONTEXT() REPRESENTATION_CONTEXT('2D SPACE',''
  ) );
#670 = PCURVE('',#671,#676);
#671 = PLANE('',#672);
#672 = AXIS2_PLACEMENT_3D('',#673,#674,#675);
#673 = CARTESIAN_POINT('',(0.,-32.,220.));
#674 = DIRECTION('',(0.,1.,0.));
#675 = DIRECTION('',(0.,0.,1.));
#676 = DEFINITIONAL_REPRESENTATION('',(#677),#681);
#677 = CIRCLE('',#678,12.440257232067);
#678 = AXIS2_PLACEMENT_2D('',#679,#680);
#679 = CARTESIAN_POINT('',(26.,27.));
#680 = DIRECTION('',(1.,0.));
#681 = ( GEOMETRIC_REPRESENTATION_CONTEXT(2) 
PARAMETRIC_REPRESENTATION_CONTEXT() REPRESENTATION_CONTEXT('2D SPACE',''
  ) );
#682 = ADVANCED_FACE('',(#683),#671,.T.);
#683 = FACE_BOUND('',#684,.T.);
#684 = EDGE_LOOP('',(#685));
#685 = ORIENTED_EDGE('',*,*,#440,.T.);
#686 = ( GEOMETRIC_REPRESENTATION_CONTEXT(3) 
GLOBAL_UNCERTAINTY_ASSIGNED_CONTEXT((#690)) GLOBAL_UNIT_ASSIGNED_CONTEXT
((#687,#688,#689)) REPRESENTATION_CONTEXT('Context #1',
  '3D Context with UNIT and UNCERTAINTY') );
#687 = ( LENGTH_UNIT() NAMED_UNIT(*) SI_UNIT(.MILLI.,.METRE.) );
#688 = ( NAMED_UNIT(*) PLANE_ANGLE_UNIT() SI_UNIT($,.RADIAN.) );
#689 = ( NAMED_UNIT(*) SI_UNIT($,.STERADIAN.) SOLID_ANGLE_UNIT() );
#690 = UNCERTAINTY_MEASURE_WITH_UNIT(LENGTH_MEASURE(1.E-07),#687,
  'distance_accuracy_value','confusion accuracy');
#691 = PRODUCT_RELATED_PRODUCT_CATEGORY('part',$,(#7));
ENDSEC;
END-ISO-10303-21;
