ISO-10303-21;
HEADER;
FILE_DESCRIPTION(('Open CASCADE Model'),'2;1');
FILE_NAME('Open CASCADE Shape Model','2026-09-13T11:36:35',('Author'),(
    'Open CASCADE'),'Open CASCADE STEP processor 7.9','Open CASCADE 7.9'
  ,'Unknown');
FILE_SCHEMA(('AUTOMOTIVE_DESIGN { 1 0 10303 214 1 1 1 1 }'));
ENDSEC;
DATA;
#1 = APPLICATION_PROTOCOL_DEFINITION('international standard',
  'automotive_design',2000,#2);
#2 = APPLICATION_CONTEXT(
  'core data for automotive mechanical design processes');
#3 = SHAPE_DEFINITION_REPRESENTATION(#4,#10);
#4 = PRODUCT_DEFINITION_SHAPE('','',#5);
#5 = PRODUCT_DEFINITION('design','',#6,#9);
#6 = PRODUCT_DEFINITION_FORMATION('','',#7);
#7 = PRODUCT('Open CASCADE STEP translator 7.9 20',
  'Open CASCADE STEP translator 7.9 20','',(#8));
#8 = PRODUCT_CONTEXT('',#2,'mechanical');
#9 = PRODUCT_DEFINITION_CONTEXT('part definition',#2,'design');
#10 = ADVANCED_BREP_SHAPE_REPRESENTATION('',(#11,#15),#686);
#11 = AXIS2_PLACEMENT_3D('',#12,#13,#14);
#12 = CARTESIAN_POINT('',(0.,0.,0.));
#13 = DIRECTION('',(0.,0.,1.));
#14 = DIRECTION('',(1.,0.,-0.));
#15 = BREP_WITH_VOIDS('',#16,(#434));
#16 = CLOSED_SHELL('',(#17,#246,#285,#340,#375,#430));
#17 = ADVANCED_FACE('',(#18,#22),#35,.T.);
#18 = FACE_BOUND('',#19,.T.);
#19 = VERTEX_LOOP('',#20);
#20 = VERTEX_POINT('',#21);
#21 = CARTESIAN_POINT('',(27.,30.,261.));
#22 = FACE_BOUND('',#23,.T.);
#23 = EDGE_LOOP('',(#24));
#24 = ORIENTED_EDGE('',*,*,#25,.T.);
#25 = EDGE_CURVE('',#26,#26,#28,.T.);
#26 = VERTEX_POINT('',#27);
#27 = CARTESIAN_POINT('',(27.,27.,260.69693845669));
#28 = SURFACE_CURVE('',#29,(#34,#234),.PCURVE_S1.);
#29 = CIRCLE('',#30,14.696938456699);
#30 = AXIS2_PLACEMENT_3D('',#31,#32,#33);
#31 = CARTESIAN_POINT('',(27.,27.,246.));
#32 = DIRECTION('',(0.,1.,0.));
#33 = DIRECTION('',(0.,-0.,1.));
#34 = PCURVE('',#35,#40);
#35 = SPHERICAL_SURFACE('',#36,15.);
#36 = AXIS2_PLACEMENT_3D('',#37,#38,#39);
#37 = CARTESIAN_POINT('',(27.,30.,246.));
#38 = DIRECTION('',(0.,0.,1.));
#39 = DIRECTION('',(1.,0.,0.));
#40 = DEFINITIONAL_REPRESENTATION('',(#41),#233);
#41 = B_SPLINE_CURVE_WITH_KNOTS('',8,(#42,#43,#44,#45,#46,#47,#48,#49,
    #50,#51,#52,#53,#54,#55,#56,#57,#58,#59,#60,#61,#62,#63,#64,#65,#66,
    #67,#68,#69,#70,#71,#72,#73,#74,#75,#76,#77,#78,#79,#80,#81,#82,#83,
    #84,#85,#86,#87,#88,#89,#90,#91,#92,#93,#94,#95,#96,#97,#98,#99,#100
    ,#101,#102,#103,#104,#105,#106,#107,#108,#109,#110,#111,#112,#113,
    #114,#115,#116,#117,#118,#119,#120,#121,#122,#123,#124,#125,#126,
    #127,#128,#129,#130,#131,#132,#133,#134,#135,#136,#137,#138,#139,
    #140,#141,#142,#143,#144,#145,#146,#147,#148,#149,#150,#151,#152,
    #153,#154,#155,#156,#157,#158,#159,#160,#161,#162,#163,#164,#165,
    #166,#167,#168,#169,#170,#171,#172,#173,#174,#175,#176,#177,#178,
    #179,#180,#181,#182,#183,#184,#185,#186,#187,#188,#189,#190,#191,
    #192,#193,#194,#195,#196,#197,#198,#199,#200,#201,#202,#203,#204,
    #205,#206,#207,#208,#209,#210,#211,#212,#213,#214,#215,#216,#217,
    #218,#219,#220,#221,#222,#223,#224,#225,#226,#227,#228,#229,#230,
    #231,#232),.UNSPECIFIED.,.F.,.F.,(9,7,7,7,7,7,7,7,7,7,7,7,7,7,7,7,7,
    7,7,7,7,7,7,7,7,7,7,9),(0.,9.817477042468E-02,0.194815560061,
    0.385077114659,0.753708876691,1.099301153597,1.747286672795,
    2.314274002093,2.562330958661,2.794884355443,2.903893760185,
    3.009496621029,3.111799392471,3.210905202305,3.306913955583,
    3.492930915058,3.667321814565,3.994304751142,4.566524890151,
    4.995689994408,5.317563822601,5.558969193746,5.740023222104,
    5.875813743373,5.977656634325,6.130420970752,6.206803138966,
    6.28318530718),.UNSPECIFIED.);
#42 = CARTESIAN_POINT('',(4.712388980385,1.369438406005));
#43 = CARTESIAN_POINT('',(4.772508503674,1.369438406005));
#44 = CARTESIAN_POINT('',(4.832628010763,1.368595229023));
#45 = CARTESIAN_POINT('',(4.892071608925,1.366908899298));
#46 = CARTESIAN_POINT('',(4.950162820847,1.364399085538));
#47 = CARTESIAN_POINT('',(5.00632143258,1.36110564748));
#48 = CARTESIAN_POINT('',(5.060157822367,1.357081378986));
#49 = CARTESIAN_POINT('',(5.111438948283,1.3523840064));
#50 = CARTESIAN_POINT('',(5.207918285751,1.341842881227));
#51 = CARTESIAN_POINT('',(5.253199071987,1.336018186607));
#52 = CARTESIAN_POINT('',(5.295798634894,1.329653549529));
#53 = CARTESIAN_POINT('',(5.335734601944,1.322805254845));
#54 = CARTESIAN_POINT('',(5.373105164134,1.315525734506));
#55 = CARTESIAN_POINT('',(5.408051035831,1.307861974338));
#56 = CARTESIAN_POINT('',(5.440727476139,1.299855525144));
#57 = CARTESIAN_POINT('',(5.531475491827,1.2751773244));
#58 = CARTESIAN_POINT('',(5.583482194988,1.257624909769));
#59 = CARTESIAN_POINT('',(5.628539718519,1.239164147343));
#60 = CARTESIAN_POINT('',(5.667927686005,1.219996614653));
#61 = CARTESIAN_POINT('',(5.702604857954,1.200262012333));
#62 = CARTESIAN_POINT('',(5.733356190193,1.180066442196));
#63 = CARTESIAN_POINT('',(5.760793145463,1.159489310588));
#64 = CARTESIAN_POINT('',(5.833105408327,1.098105568246));
#65 = CARTESIAN_POINT('',(5.870214151631,1.056419193216));
#66 = CARTESIAN_POINT('',(5.900326875201,1.013984048108));
#67 = CARTESIAN_POINT('',(5.925307953872,0.971001670935));
#68 = CARTESIAN_POINT('',(5.946378096755,0.927614716511));
#69 = CARTESIAN_POINT('',(5.964365560443,0.883910912195));
#70 = CARTESIAN_POINT('',(5.979863712257,0.839956819005));
#71 = CARTESIAN_POINT('',(6.005918657886,0.754403498582));
#72 = CARTESIAN_POINT('',(6.016723777446,0.712828829263));
#73 = CARTESIAN_POINT('',(6.026087910586,0.671115907334));
#74 = CARTESIAN_POINT('',(6.03425411295,0.629291479101));
#75 = CARTESIAN_POINT('',(6.041401063958,0.587375519229));
#76 = CARTESIAN_POINT('',(6.047666201028,0.545383788614));
#77 = CARTESIAN_POINT('',(6.053154517346,0.503328762843));
#78 = CARTESIAN_POINT('',(6.066939363546,0.382268584698));
#79 = CARTESIAN_POINT('',(6.073490976366,0.303130437408));
#80 = CARTESIAN_POINT('',(6.078150534365,0.223874921696));
#81 = CARTESIAN_POINT('',(6.081184600147,0.144543945898));
#82 = CARTESIAN_POINT('',(6.082749695483,6.517186490067E-02));
#83 = CARTESIAN_POINT('',(6.08289931916,-1.421169388737E-02));
#84 = CARTESIAN_POINT('',(6.081609058207,-9.357691850335E-02));
#85 = CARTESIAN_POINT('',(6.076224469093,-0.242285524752));
#86 = CARTESIAN_POINT('',(6.072500738454,-0.31164154051));
#87 = CARTESIAN_POINT('',(6.067472142929,-0.380932421768));
#88 = CARTESIAN_POINT('',(6.060972650047,-0.450130343298));
#89 = CARTESIAN_POINT('',(6.052761523182,-0.519202047525));
#90 = CARTESIAN_POINT('',(6.042445895914,-0.588099563114));
#91 = CARTESIAN_POINT('',(6.029464598726,-0.656758995065));
#92 = CARTESIAN_POINT('',(6.005342776224,-0.754934860538));
#93 = CARTESIAN_POINT('',(5.997274175561,-0.784744957332));
#94 = CARTESIAN_POINT('',(5.988383264287,-0.814475032628));
#95 = CARTESIAN_POINT('',(5.97855417071,-0.84411238066));
#96 = CARTESIAN_POINT('',(5.967642001847,-0.873641103711));
#97 = CARTESIAN_POINT('',(5.955464000535,-0.903041163306));
#98 = CARTESIAN_POINT('',(5.941781350053,-0.932286242449));
#99 = CARTESIAN_POINT('',(5.911714223099,-0.988576319672));
#100 = CARTESIAN_POINT('',(5.895551983434,-1.015644598798));
#101 = CARTESIAN_POINT('',(5.877503413925,-1.042513269026));
#102 = CARTESIAN_POINT('',(5.857222836562,-1.069143574937));
#103 = CARTESIAN_POINT('',(5.834266437631,-1.095483930641));
#104 = CARTESIAN_POINT('',(5.808047487907,-1.1214657686));
#105 = CARTESIAN_POINT('',(5.777757968591,-1.146992109009));
#106 = CARTESIAN_POINT('',(5.725594816277,-1.183591572362));
#107 = CARTESIAN_POINT('',(5.707798765072,-1.195138750927));
#108 = CARTESIAN_POINT('',(5.688735649305,-1.206536756554));
#109 = CARTESIAN_POINT('',(5.668269808063,-1.217767218899));
#110 = CARTESIAN_POINT('',(5.64624699453,-1.228808467099));
#111 = CARTESIAN_POINT('',(5.622490979724,-1.239634644969));
#112 = CARTESIAN_POINT('',(5.596802730635,-1.250214600693));
#113 = CARTESIAN_POINT('',(5.541999916387,-1.270484865889));
#114 = CARTESIAN_POINT('',(5.51301754405,-1.2801926422));
#115 = CARTESIAN_POINT('',(5.481822940997,-1.289599666025));
#116 = CARTESIAN_POINT('',(5.448205743421,-1.298665807264));
#117 = CARTESIAN_POINT('',(5.411946362597,-1.307344305006));
#118 = CARTESIAN_POINT('',(5.372830551442,-1.315580400069));
#119 = CARTESIAN_POINT('',(5.330682039574,-1.323311142992));
#120 = CARTESIAN_POINT('',(5.241575460769,-1.337401497392));
#121 = CARTESIAN_POINT('',(5.194808798363,-1.343796428423));
#122 = CARTESIAN_POINT('',(5.145049286341,-1.349590665036));
#123 = CARTESIAN_POINT('',(5.092309201794,-1.354717689788));
#124 = CARTESIAN_POINT('',(5.036729804326,-1.359107909907));
#125 = CARTESIAN_POINT('',(4.978647791218,-1.362695821355));
#126 = CARTESIAN_POINT('',(4.918614804456,-1.365429126465));
#127 = CARTESIAN_POINT('',(4.797903272115,-1.369064686859));
#128 = CARTESIAN_POINT('',(4.737303577112,-1.370021474027));
#129 = CARTESIAN_POINT('',(4.676112351778,-1.370116878094));
#130 = CARTESIAN_POINT('',(4.615045414676,-1.369338974968));
#131 = CARTESIAN_POINT('',(4.554863433814,-1.367698368952));
#132 = CARTESIAN_POINT('',(4.496215083876,-1.365228400595));
#133 = CARTESIAN_POINT('',(4.439581800655,-1.361976004733));
#134 = CARTESIAN_POINT('',(4.332690877074,-1.354139738605));
#135 = CARTESIAN_POINT('',(4.282289187564,-1.349600657031));
#136 = CARTESIAN_POINT('',(4.234378205889,-1.344427911947));
#137 = CARTESIAN_POINT('',(4.189111594052,-1.338677713245));
#138 = CARTESIAN_POINT('',(4.146512428716,-1.332406753225));
#139 = CARTESIAN_POINT('',(4.106515702687,-1.32566845683));
#140 = CARTESIAN_POINT('',(4.069012491552,-1.318511317537));
#141 = CARTESIAN_POINT('',(3.9657696082,-1.296384853973));
#142 = CARTESIAN_POINT('',(3.9065203844,-1.280382021723));
#143 = CARTESIAN_POINT('',(3.855127817614,-1.263287251726));
#144 = CARTESIAN_POINT('',(3.810239277017,-1.245345339967));
#145 = CARTESIAN_POINT('',(3.770779977305,-1.226725120892));
#146 = CARTESIAN_POINT('',(3.735859507585,-1.207555993839));
#147 = CARTESIAN_POINT('',(3.704769556759,-1.187934298014));
#148 = CARTESIAN_POINT('',(3.650842335143,-1.149186243208));
#149 = CARTESIAN_POINT('',(3.62761075471,-1.130105591791));
#150 = CARTESIAN_POINT('',(3.606768784497,-1.110755068259));
#151 = CARTESIAN_POINT('',(3.587949902228,-1.091179995974));
#152 = CARTESIAN_POINT('',(3.57086569159,-1.071414702821));
#153 = CARTESIAN_POINT('',(3.555284359788,-1.051486328194));
#154 = CARTESIAN_POINT('',(3.541015770674,-1.031417035257));
#155 = CARTESIAN_POINT('',(3.503316536133,-0.973363865821));
#156 = CARTESIAN_POINT('',(3.482793340542,-0.935070392086));
#157 = CARTESIAN_POINT('',(3.465297925261,-0.896462466456));
#158 = CARTESIAN_POINT('',(3.450197057421,-0.857609444299));
#159 = CARTESIAN_POINT('',(3.43703747709,-0.818561336897));
#160 = CARTESIAN_POINT('',(3.425490903603,-0.779353887059));
#161 = CARTESIAN_POINT('',(3.415306233342,-0.740014740261));
#162 = CARTESIAN_POINT('',(3.390509640615,-0.63152904651));
#163 = CARTESIAN_POINT('',(3.378305993104,-0.562155244969));
#164 = CARTESIAN_POINT('',(3.368637817909,-0.49255928659));
#165 = CARTESIAN_POINT('',(3.360984772664,-0.422801241708));
#166 = CARTESIAN_POINT('',(3.354984756845,-0.352926344237));
#167 = CARTESIAN_POINT('',(3.350416888592,-0.282966517786));
#168 = CARTESIAN_POINT('',(3.347132387543,-0.212948736929));
#169 = CARTESIAN_POINT('',(3.343493384081,-9.035749620949E-02));
#170 = CARTESIAN_POINT('',(3.342611637736,-3.779908145406E-02));
#171 = CARTESIAN_POINT('',(3.342374315776,1.476869554506E-02));
#172 = CARTESIAN_POINT('',(3.342769364542,6.733670429232E-02));
#173 = CARTESIAN_POINT('',(3.343802373036,0.119896096144));
#174 = CARTESIAN_POINT('',(3.345496462826,0.172437657253));
#175 = CARTESIAN_POINT('',(3.347895773738,0.224951051466));
#176 = CARTESIAN_POINT('',(3.353455123994,0.316778629426));
#177 = CARTESIAN_POINT('',(3.356275099155,0.356110517128));
#178 = CARTESIAN_POINT('',(3.359562767455,0.395414426809));
#179 = CARTESIAN_POINT('',(3.363358186071,0.434684419392));
#180 = CARTESIAN_POINT('',(3.367711955633,0.473913677313));
#181 = CARTESIAN_POINT('',(3.372688748758,0.513094087309));
#182 = CARTESIAN_POINT('',(3.378373584164,0.552215534833));
#183 = CARTESIAN_POINT('',(3.389761293046,0.620551941567));
#184 = CARTESIAN_POINT('',(3.395104446219,0.649798421428));
#185 = CARTESIAN_POINT('',(3.400958450251,0.678998833902));
#186 = CARTESIAN_POINT('',(3.407381730015,0.708146596584));
#187 = CARTESIAN_POINT('',(3.414444416233,0.737233915569));
#188 = CARTESIAN_POINT('',(3.422232575062,0.766251312797));
#189 = CARTESIAN_POINT('',(3.430855241957,0.79518682561));
#190 = CARTESIAN_POINT('',(3.447653523191,0.845653418244));
#191 = CARTESIAN_POINT('',(3.455402058598,0.867227126364));
#192 = CARTESIAN_POINT('',(3.463759658142,0.888739442927));
#193 = CARTESIAN_POINT('',(3.472797284204,0.910182553146));
#194 = CARTESIAN_POINT('',(3.482598973981,0.931547194692));
#195 = CARTESIAN_POINT('',(3.493266115035,0.952822144571));
#196 = CARTESIAN_POINT('',(3.504924091837,0.973993385585));
#197 = CARTESIAN_POINT('',(3.527336711907,1.010830127502));
#198 = CARTESIAN_POINT('',(3.53758860134,1.026548853184));
#199 = CARTESIAN_POINT('',(3.54855383205,1.042191553573));
#200 = CARTESIAN_POINT('',(3.560310068939,1.057749323059));
#201 = CARTESIAN_POINT('',(3.572947925058,1.073211690642));
#202 = CARTESIAN_POINT('',(3.586574395359,1.08856613639));
#203 = CARTESIAN_POINT('',(3.601317580515,1.103797359973));
#204 = CARTESIAN_POINT('',(3.629344041003,1.130203007289));
#205 = CARTESIAN_POINT('',(3.642070835578,1.141439703492));
#206 = CARTESIAN_POINT('',(3.655578654706,1.152588255158));
#207 = CARTESIAN_POINT('',(3.669941536478,1.163639465295));
#208 = CARTESIAN_POINT('',(3.68524372646,1.174582653159));
#209 = CARTESIAN_POINT('',(3.701581417269,1.185405232755));
#210 = CARTESIAN_POINT('',(3.719064488141,1.196092291337));
#211 = CARTESIAN_POINT('',(3.765948879055,1.222426982745));
#212 = CARTESIAN_POINT('',(3.796938556428,1.237883077873));
#213 = CARTESIAN_POINT('',(3.831209780381,1.252934488656));
#214 = CARTESIAN_POINT('',(3.869262998255,1.267506639342));
#215 = CARTESIAN_POINT('',(3.911683143013,1.281504732784));
#216 = CARTESIAN_POINT('',(3.959142017456,1.294809041364));
#217 = CARTESIAN_POINT('',(4.012354838381,1.307261895312));
#218 = CARTESIAN_POINT('',(4.101501186877,1.32438140751));
#219 = CARTESIAN_POINT('',(4.13277115286,1.329827952028));
#220 = CARTESIAN_POINT('',(4.165653811526,1.33499098665));
#221 = CARTESIAN_POINT('',(4.200191426944,1.339845074366));
#222 = CARTESIAN_POINT('',(4.236402741202,1.344363079254));
#223 = CARTESIAN_POINT('',(4.274269580889,1.348516832541));
#224 = CARTESIAN_POINT('',(4.313724170911,1.352278343479));
#225 = CARTESIAN_POINT('',(4.395563122384,1.358964899679));
#226 = CARTESIAN_POINT('',(4.437947543829,1.361889943507));
#227 = CARTESIAN_POINT('',(4.481673834917,1.364370756237));
#228 = CARTESIAN_POINT('',(4.526565385325,1.366383306888));
#229 = CARTESIAN_POINT('',(4.572384177655,1.367907242407));
#230 = CARTESIAN_POINT('',(4.618840358002,1.368928015769));
#231 = CARTESIAN_POINT('',(4.665614645992,1.369438406005));
#232 = CARTESIAN_POINT('',(4.712388980385,1.369438406005));
#233 = ( GEOMETRIC_REPRESENTATION_CONTEXT(2) 
PARAMETRIC_REPRESENTATION_CONTEXT() REPRESENTATION_CONTEXT('2D SPACE',''
  ) );
#234 = PCURVE('',#235,#240);
#235 = PLANE('',#236);
#236 = AXIS2_PLACEMENT_3D('',#237,#238,#239);
#237 = CARTESIAN_POINT('',(0.,27.,220.));
#238 = DIRECTION('',(0.,1.,0.));
#239 = DIRECTION('',(0.,0.,1.));
#240 = DEFINITIONAL_REPRESENTATION('',(#241),#245);
#241 = CIRCLE('',#242,14.696938456699);
#242 = AXIS2_PLACEMENT_2D('',#243,#244);
#243 = CARTESIAN_POINT('',(26.,27.));
#244 = DIRECTION('',(1.,0.));
#245 = ( GEOMETRIC_REPRESENTATION_CONTEXT(2) 
PARAMETRIC_REPRESENTATION_CONTEXT() REPRESENTATION_CONTEXT('2D SPACE',''
  ) );
#246 = ADVANCED_FACE('',(#247,#250),#235,.F.);
#247 = FACE_BOUND('',#248,.F.);
#248 = EDGE_LOOP('',(#249));
#249 = ORIENTED_EDGE('',*,*,#25,.T.);
#250 = FACE_BOUND('',#251,.F.);
#251 = EDGE_LOOP('',(#252));
#252 = ORIENTED_EDGE('',*,*,#253,.T.);
#253 = EDGE_CURVE('',#254,#254,#256,.T.);
#254 = VERTEX_POINT('',#255);
#255 = CARTESIAN_POINT('',(32.,27.,246.));
#256 = SURFACE_CURVE('',#257,(#262,#273),.PCURVE_S1.);
#257 = CIRCLE('',#258,5.);
#258 = AXIS2_PLACEMENT_3D('',#259,#260,#261);
#259 = CARTESIAN_POINT('',(27.,27.,246.));
#260 = DIRECTION('',(0.,-1.,0.));
#261 = DIRECTION('',(1.,0.,0.));
#262 = PCURVE('',#235,#263);
#263 = DEFINITIONAL_REPRESENTATION('',(#264),#272);
#264 = ( BOUNDED_CURVE() B_SPLINE_CURVE(2,(#265,#266,#267,#268,#269,#270
,#271),.UNSPECIFIED.,.T.,.F.) B_SPLINE_CURVE_WITH_KNOTS((1,2,2,2,2,1),(
    -2.094395102393,0.,2.094395102393,4.188790204786,6.28318530718,
8.377580409573),.UNSPECIFIED.) CURVE() GEOMETRIC_REPRESENTATION_ITEM() 
RATIONAL_B_SPLINE_CURVE((1.,0.5,1.,0.5,1.,0.5,1.)) REPRESENTATION_ITEM(
  '') );
#265 = CARTESIAN_POINT('',(26.,32.));
#266 = CARTESIAN_POINT('',(34.660254037844,32.));
#267 = CARTESIAN_POINT('',(30.330127018922,24.5));
#268 = CARTESIAN_POINT('',(26.,17.));
#269 = CARTESIAN_POINT('',(21.669872981078,24.5));
#270 = CARTESIAN_POINT('',(17.339745962156,32.));
#271 = CARTESIAN_POINT('',(26.,32.));
#272 = ( GEOMETRIC_REPRESENTATION_CONTEXT(2) 
PARAMETRIC_REPRESENTATION_CONTEXT() REPRESENTATION_CONTEXT('2D SPACE',''
  ) );
#273 = PCURVE('',#274,#279);
#274 = CYLINDRICAL_SURFACE('',#275,5.);
#275 = AXIS2_PLACEMENT_3D('',#276,#277,#278);
#276 = CARTESIAN_POINT('',(27.,27.,246.));
#277 = DIRECTION('',(-0.,1.,-0.));
#278 = DIRECTION('',(1.,0.,0.));
#279 = DEFINITIONAL_REPRESENTATION('',(#280),#284);
#280 = LINE('',#281,#282);
#281 = CARTESIAN_POINT('',(-0.,0.));
#282 = VECTOR('',#283,1.);
#283 = DIRECTION('',(-1.,0.));
#284 = ( GEOMETRIC_REPRESENTATION_CONTEXT(2) 
PARAMETRIC_REPRESENTATION_CONTEXT() REPRESENTATION_CONTEXT('2D SPACE',''
  ) );
#285 = ADVANCED_FACE('',(#286),#274,.T.);
#286 = FACE_BOUND('',#287,.F.);
#287 = EDGE_LOOP('',(#288,#311,#338,#339));
#288 = ORIENTED_EDGE('',*,*,#289,.T.);
#289 = EDGE_CURVE('',#254,#290,#292,.T.);
#290 = VERTEX_POINT('',#291);
#291 = CARTESIAN_POINT('',(32.,19.,246.));
#292 = SEAM_CURVE('',#293,(#297,#304),.PCURVE_S1.);
#293 = LINE('',#294,#295);
#294 = CARTESIAN_POINT('',(32.,27.,246.));
#295 = VECTOR('',#296,1.);
#296 = DIRECTION('',(0.,-1.,0.));
#297 = PCURVE('',#274,#298);
#298 = DEFINITIONAL_REPRESENTATION('',(#299),#303);
#299 = LINE('',#300,#301);
#300 = CARTESIAN_POINT('',(-0.,0.));
#301 = VECTOR('',#302,1.);
#302 = DIRECTION('',(-0.,-1.));
#303 = ( GEOMETRIC_REPRESENTATION_CONTEXT(2) 
PARAMETRIC_REPRESENTATION_CONTEXT() REPRESENTATION_CONTEXT('2D SPACE',''
  ) );
#304 = PCURVE('',#274,#305);
#305 = DEFINITIONAL_REPRESENTATION('',(#306),#310);
#306 = LINE('',#307,#308);
#307 = CARTESIAN_POINT('',(-6.28318530718,0.));
#308 = VECTOR('',#309,1.);
#309 = DIRECTION('',(-0.,-1.));
#310 = ( GEOMETRIC_REPRESENTATION_CONTEXT(2) 
PARAMETRIC_REPRESENTATION_CONTEXT() REPRESENTATION_CONTEXT('2D SPACE',''
  ) );
#311 = ORIENTED_EDGE('',*,*,#312,.T.);
#312 = EDGE_CURVE('',#290,#290,#313,.T.);
#313 = SURFACE_CURVE('',#314,(#319,#326),.PCURVE_S1.);
#314 = CIRCLE('',#315,5.);
#315 = AXIS2_PLACEMENT_3D('',#316,#317,#318);
#316 = CARTESIAN_POINT('',(27.,19.,246.));
#317 = DIRECTION('',(0.,-1.,0.));
#318 = DIRECTION('',(1.,0.,0.));
#319 = PCURVE('',#274,#320);
#320 = DEFINITIONAL_REPRESENTATION('',(#321),#325);
#321 = LINE('',#322,#323);
#322 = CARTESIAN_POINT('',(-0.,-8.));
#323 = VECTOR('',#324,1.);
#324 = DIRECTION('',(-1.,0.));
#325 = ( GEOMETRIC_REPRESENTATION_CONTEXT(2) 
PARAMETRIC_REPRESENTATION_CONTEXT() REPRESENTATION_CONTEXT('2D SPACE',''
  ) );
#326 = PCURVE('',#327,#332);
#327 = PLANE('',#328);
#328 = AXIS2_PLACEMENT_3D('',#329,#330,#331);
#329 = CARTESIAN_POINT('',(27.,19.,246.));
#330 = DIRECTION('',(-0.,-1.,-0.));
#331 = DIRECTION('',(0.,0.,-1.));
#332 = DEFINITIONAL_REPRESENTATION('',(#333),#337);
#333 = CIRCLE('',#334,5.);
#334 = AXIS2_PLACEMENT_2D('',#335,#336);
#335 = CARTESIAN_POINT('',(5.684341886081E-14,0.));
#336 = DIRECTION('',(0.,1.));
#337 = ( GEOMETRIC_REPRESENTATION_CONTEXT(2) 
PARAMETRIC_REPRESENTATION_CONTEXT() REPRESENTATION_CONTEXT('2D SPACE',''
  ) );
#338 = ORIENTED_EDGE('',*,*,#289,.F.);
#339 = ORIENTED_EDGE('',*,*,#253,.F.);
#340 = ADVANCED_FACE('',(#341,#344),#327,.T.);
#341 = FACE_BOUND('',#342,.T.);
#342 = EDGE_LOOP('',(#343));
#343 = ORIENTED_EDGE('',*,*,#312,.T.);
#344 = FACE_BOUND('',#345,.T.);
#345 = EDGE_LOOP('',(#346));
#346 = ORIENTED_EDGE('',*,*,#347,.F.);
#347 = EDGE_CURVE('',#348,#348,#350,.T.);
#348 = VERTEX_POINT('',#349);
#349 = CARTESIAN_POINT('',(28.3,19.,246.));
#350 = SURFACE_CURVE('',#351,(#356,#363),.PCURVE_S1.);
#351 = CIRCLE('',#352,1.3);
#352 = AXIS2_PLACEMENT_3D('',#353,#354,#355);
#353 = CARTESIAN_POINT('',(27.,19.,246.));
#354 = DIRECTION('',(0.,-1.,0.));
#355 = DIRECTION('',(1.,0.,0.));
#356 = PCURVE('',#327,#357);
#357 = DEFINITIONAL_REPRESENTATION('',(#358),#362);
#358 = CIRCLE('',#359,1.3);
#359 = AXIS2_PLACEMENT_2D('',#360,#361);
#360 = CARTESIAN_POINT('',(5.684341886081E-14,0.));
#361 = DIRECTION('',(0.,1.));
#362 = ( GEOMETRIC_REPRESENTATION_CONTEXT(2) 
PARAMETRIC_REPRESENTATION_CONTEXT() REPRESENTATION_CONTEXT('2D SPACE',''
  ) );
#363 = PCURVE('',#364,#369);
#364 = CYLINDRICAL_SURFACE('',#365,1.3);
#365 = AXIS2_PLACEMENT_3D('',#366,#367,#368);
#366 = CARTESIAN_POINT('',(27.,26.,246.));
#367 = DIRECTION('',(-0.,1.,-0.));
#368 = DIRECTION('',(1.,0.,0.));
#369 = DEFINITIONAL_REPRESENTATION('',(#370),#374);
#370 = LINE('',#371,#372);
#371 = CARTESIAN_POINT('',(-0.,-7.));
#372 = VECTOR('',#373,1.);
#373 = DIRECTION('',(-1.,0.));
#374 = ( GEOMETRIC_REPRESENTATION_CONTEXT(2) 
PARAMETRIC_REPRESENTATION_CONTEXT() REPRESENTATION_CONTEXT('2D SPACE',''
  ) );
#375 = ADVANCED_FACE('',(#376),#364,.F.);
#376 = FACE_BOUND('',#377,.T.);
#377 = EDGE_LOOP('',(#378,#401,#402,#403));
#378 = ORIENTED_EDGE('',*,*,#379,.T.);
#379 = EDGE_CURVE('',#380,#348,#382,.T.);
#380 = VERTEX_POINT('',#381);
#381 = CARTESIAN_POINT('',(28.3,26.,246.));
#382 = SEAM_CURVE('',#383,(#387,#394),.PCURVE_S1.);
#383 = LINE('',#384,#385);
#384 = CARTESIAN_POINT('',(28.3,26.,246.));
#385 = VECTOR('',#386,1.);
#386 = DIRECTION('',(0.,-1.,0.));
#387 = PCURVE('',#364,#388);
#388 = DEFINITIONAL_REPRESENTATION('',(#389),#393);
#389 = LINE('',#390,#391);
#390 = CARTESIAN_POINT('',(-0.,0.));
#391 = VECTOR('',#392,1.);
#392 = DIRECTION('',(-0.,-1.));
#393 = ( GEOMETRIC_REPRESENTATION_CONTEXT(2) 
PARAMETRIC_REPRESENTATION_CONTEXT() REPRESENTATION_CONTEXT('2D SPACE',''
  ) );
#394 = PCURVE('',#364,#395);
#395 = DEFINITIONAL_REPRESENTATION('',(#396),#400);
#396 = LINE('',#397,#398);
#397 = CARTESIAN_POINT('',(-6.28318530718,0.));
#398 = VECTOR('',#399,1.);
#399 = DIRECTION('',(-0.,-1.));
#400 = ( GEOMETRIC_REPRESENTATION_CONTEXT(2) 
PARAMETRIC_REPRESENTATION_CONTEXT() REPRESENTATION_CONTEXT('2D SPACE',''
  ) );
#401 = ORIENTED_EDGE('',*,*,#347,.T.);
#402 = ORIENTED_EDGE('',*,*,#379,.F.);
#403 = ORIENTED_EDGE('',*,*,#404,.F.);
#404 = EDGE_CURVE('',#380,#380,#405,.T.);
#405 = SURFACE_CURVE('',#406,(#411,#418),.PCURVE_S1.);
#406 = CIRCLE('',#407,1.3);
#407 = AXIS2_PLACEMENT_3D('',#408,#409,#410);
#408 = CARTESIAN_POINT('',(27.,26.,246.));
#409 = DIRECTION('',(0.,-1.,0.));
#410 = DIRECTION('',(1.,0.,0.));
#411 = PCURVE('',#364,#412);
#412 = DEFINITIONAL_REPRESENTATION('',(#413),#417);
#413 = LINE('',#414,#415);
#414 = CARTESIAN_POINT('',(-0.,0.));
#415 = VECTOR('',#416,1.);
#416 = DIRECTION('',(-1.,0.));
#417 = ( GEOMETRIC_REPRESENTATION_CONTEXT(2) 
PARAMETRIC_REPRESENTATION_CONTEXT() REPRESENTATION_CONTEXT('2D SPACE',''
  ) );
#418 = PCURVE('',#419,#424);
#419 = PLANE('',#420);
#420 = AXIS2_PLACEMENT_3D('',#421,#422,#423);
#421 = CARTESIAN_POINT('',(27.,26.,246.));
#422 = DIRECTION('',(-0.,-1.,-0.));
#423 = DIRECTION('',(0.,0.,-1.));
#424 = DEFINITIONAL_REPRESENTATION('',(#425),#429);
#425 = CIRCLE('',#426,1.3);
#426 = AXIS2_PLACEMENT_2D('',#427,#428);
#427 = CARTESIAN_POINT('',(0.,-3.552713678801E-15));
#428 = DIRECTION('',(0.,1.));
#429 = ( GEOMETRIC_REPRESENTATION_CONTEXT(2) 
PARAMETRIC_REPRESENTATION_CONTEXT() REPRESENTATION_CONTEXT('2D SPACE',''
  ) );
#430 = ADVANCED_FACE('',(#431),#419,.T.);
#431 = FACE_BOUND('',#432,.T.);
#432 = EDGE_LOOP('',(#433));
#433 = ORIENTED_EDGE('',*,*,#404,.T.);
#434 = ORIENTED_CLOSED_SHELL('',*,#435,.F.);
#435 = CLOSED_SHELL('',(#436,#682));
#436 = ADVANCED_FACE('',(#437),#450,.T.);
#437 = FACE_BOUND('',#438,.T.);
#438 = EDGE_LOOP('',(#439));
#439 = ORIENTED_EDGE('',*,*,#440,.T.);
#440 = EDGE_CURVE('',#441,#441,#443,.T.);
#441 = VERTEX_POINT('',#442);
#442 = CARTESIAN_POINT('',(27.,32.,258.44025723206));
#443 = SURFACE_CURVE('',#444,(#449,#670),.PCURVE_S1.);
#444 = CIRCLE('',#445,12.440257232067);
#445 = AXIS2_PLACEMENT_3D('',#446,#447,#448);
#446 = CARTESIAN_POINT('',(27.,32.,246.));
#447 = DIRECTION('',(0.,1.,0.));
#448 = DIRECTION('',(0.,-0.,1.));
#449 = PCURVE('',#450,#455);
#450 = SPHERICAL_SURFACE('',#451,12.6);
#451 = AXIS2_PLACEMENT_3D('',#452,#453,#454);
#452 = CARTESIAN_POINT('',(27.,30.,246.));
#453 = DIRECTION('',(0.,0.,1.));
#454 = DIRECTION('',(1.,0.,0.));
#455 = DEFINITIONAL_REPRESENTATION('',(#456),#669);
#456 = B_SPLINE_CURVE_WITH_KNOTS('',8,(#457,#458,#459,#460,#461,#462,
    #463,#464,#465,#466,#467,#468,#469,#470,#471,#472,#473,#474,#475,
    #476,#477,#478,#479,#480,#481,#482,#483,#484,#485,#486,#487,#488,
    #489,#490,#491,#492,#493,#494,#495,#496,#497,#498,#499,#500,#501,
    #502,#503,#504,#505,#506,#507,#508,#509,#510,#511,#512,#513,#514,
    #515,#516,#517,#518,#519,#520,#521,#522,#523,#524,#525,#526,#527,
    #528,#529,#530,#531,#532,#533,#534,#535,#536,#537,#538,#539,#540,
    #541,#542,#543,#544,#545,#546,#547,#548,#549,#550,#551,#552,#553,
    #554,#555,#556,#557,#558,#559,#560,#561,#562,#563,#564,#565,#566,
    #567,#568,#569,#570,#571,#572,#573,#574,#575,#576,#577,#578,#579,
    #580,#581,#582,#583,#584,#585,#586,#587,#588,#589,#590,#591,#592,
    #593,#594,#595,#596,#597,#598,#599,#600,#601,#602,#603,#604,#605,
    #606,#607,#608,#609,#610,#611,#612,#613,#614,#615,#616,#617,#618,
    #619,#620,#621,#622,#623,#624,#625,#626,#627,#628,#629,#630,#631,
    #632,#633,#634,#635,#636,#637,#638,#639,#640,#641,#642,#643,#644,
    #645,#646,#647,#648,#649,#650,#651,#652,#653,#654,#655,#656,#657,
    #658,#659,#660,#661,#662,#663,#664,#665,#666,#667,#668),
  .UNSPECIFIED.,.F.,.F.,(9,7,7,7,7,7,7,7,7,7,7,7,7,7,7,7,7,7,7,7,7,7,7,7
    ,7,7,7,7,7,7,9),(0.,4.908738521234E-02,0.146495165243,0.242380948711
    ,0.431156084913,0.614031998109,0.968354079926,1.632707983332,
    2.214017648813,2.468340627461,2.706768419944,2.81853144767,
    2.926801880779,3.031688862854,3.082493494797,3.132504304366,
    3.230963085703,3.326345030125,3.418746288783,3.597773727432,
    3.933450174901,4.227167066436,4.741171626622,5.126675046761,
    5.415802611866,5.632648285694,5.957916796437,6.039233924123,
    6.161209615651,6.222197461415,6.28318530718),.UNSPECIFIED.);
#457 = CARTESIAN_POINT('',(1.570796326795,1.411391954233));
#458 = CARTESIAN_POINT('',(1.532630095614,1.411391954233));
#459 = CARTESIAN_POINT('',(1.494463922527,1.411124318405));
#460 = CARTESIAN_POINT('',(1.456469130958,1.410589026643));
#461 = CARTESIAN_POINT('',(1.418817937361,1.409788628539));
#462 = CARTESIAN_POINT('',(1.381671794854,1.408728147173));
#463 = CARTESIAN_POINT('',(1.345173206315,1.407414799101));
#464 = CARTESIAN_POINT('',(1.30944100694,1.405857530536));
#465 = CARTESIAN_POINT('',(1.20537020823,1.400512034967));
#466 = CARTESIAN_POINT('',(1.139559143615,1.396036716433));
#467 = CARTESIAN_POINT('',(1.077871079623,1.390718902006));
#468 = CARTESIAN_POINT('',(1.020662465706,1.384655130701));
#469 = CARTESIAN_POINT('',(0.967884617692,1.37794293391));
#470 = CARTESIAN_POINT('',(0.9193203915,1.370668340857));
#471 = CARTESIAN_POINT('',(0.874667455517,1.362906568741));
#472 = CARTESIAN_POINT('',(0.793172535893,1.346664703304));
#473 = CARTESIAN_POINT('',(0.756219428851,1.338197729443));
#474 = CARTESIAN_POINT('',(0.722427782093,1.329381962171));
#475 = CARTESIAN_POINT('',(0.691462579241,1.320268230187));
#476 = CARTESIAN_POINT('',(0.663013797231,1.310897964419));
#477 = CARTESIAN_POINT('',(0.636807751137,1.30130506536));
#478 = CARTESIAN_POINT('',(0.612602447597,1.291517767144));
#479 = CARTESIAN_POINT('',(0.546058291655,1.261954438788));
#480 = CARTESIAN_POINT('',(0.508868625991,1.24168698739));
#481 = CARTESIAN_POINT('',(0.477010599683,1.22093693549));
#482 = CARTESIAN_POINT('',(0.449342246108,1.19981446008));
#483 = CARTESIAN_POINT('',(0.425068469045,1.178396232057));
#484 = CARTESIAN_POINT('',(0.403581578619,1.156737710785));
#485 = CARTESIAN_POINT('',(0.384423985702,1.134880604765));
#486 = CARTESIAN_POINT('',(0.350583368801,1.091521767341));
#487 = CARTESIAN_POINT('',(0.335779277452,1.070030277771));
#488 = CARTESIAN_POINT('',(0.322495708686,1.048411816239));
#489 = CARTESIAN_POINT('',(0.310493378482,1.026687264675));
#490 = CARTESIAN_POINT('',(0.299587561901,1.004872580918));
#491 = CARTESIAN_POINT('',(0.289630828221,0.982980438256));
#492 = CARTESIAN_POINT('',(0.280504247313,0.96102098085));
#493 = CARTESIAN_POINT('',(0.255844760154,0.896341934327));
#494 = CARTESIAN_POINT('',(0.242327355495,0.853460021807));
#495 = CARTESIAN_POINT('',(0.230843452385,0.810417614478));
#496 = CARTESIAN_POINT('',(0.220973594128,0.767249987101));
#497 = CARTESIAN_POINT('',(0.212415114569,0.723982863798));
#498 = CARTESIAN_POINT('',(0.204952985128,0.680634616908));
#499 = CARTESIAN_POINT('',(0.198422324344,0.637219612747));
#500 = CARTESIAN_POINT('',(0.181962190214,0.512241910583));
#501 = CARTESIAN_POINT('',(0.174058579455,0.430539613446));
#502 = CARTESIAN_POINT('',(0.168154867173,0.34871646063));
#503 = CARTESIAN_POINT('',(0.163878305679,0.266810317061));
#504 = CARTESIAN_POINT('',(0.160978675252,0.184851156938));
#505 = CARTESIAN_POINT('',(0.159335475291,0.102861303876));
#506 = CARTESIAN_POINT('',(0.158896940955,2.086167892482E-02));
#507 = CARTESIAN_POINT('',(0.160412412116,-0.132864760363));
#508 = CARTESIAN_POINT('',(0.162074184412,-0.204594421213));
#509 = CARTESIAN_POINT('',(0.164717793066,-0.276300015248));
#510 = CARTESIAN_POINT('',(0.168425489285,-0.347965803446));
#511 = CARTESIAN_POINT('',(0.173331685963,-0.419573810291));
#512 = CARTESIAN_POINT('',(0.179665177884,-0.49109973242));
#513 = CARTESIAN_POINT('',(0.187759800762,-0.562511811231));
#514 = CARTESIAN_POINT('',(0.202880295192,-0.664919338959));
#515 = CARTESIAN_POINT('',(0.207946150512,-0.696053914162));
#516 = CARTESIAN_POINT('',(0.213531612679,-0.727150668683));
#517 = CARTESIAN_POINT('',(0.219704202303,-0.758203762987));
#518 = CARTESIAN_POINT('',(0.226548032479,-0.78920599611));
#519 = CARTESIAN_POINT('',(0.234168562244,-0.82014841));
#520 = CARTESIAN_POINT('',(0.242702654431,-0.851019425784));
#521 = CARTESIAN_POINT('',(0.261373465089,-0.910662659337));
#522 = CARTESIAN_POINT('',(0.271376605548,-0.939445472382));
#523 = CARTESIAN_POINT('',(0.28250494924,-0.968138190844));
#524 = CARTESIAN_POINT('',(0.294953085104,-0.99672436291));
#525 = CARTESIAN_POINT('',(0.308976141935,-1.025182165281));
#526 = CARTESIAN_POINT('',(0.324907578906,-1.053483048171));
#527 = CARTESIAN_POINT('',(0.343208405603,-1.081587192964));
#528 = CARTESIAN_POINT('',(0.374603438994,-1.122483889148));
#529 = CARTESIAN_POINT('',(0.385298722588,-1.135478981339));
#530 = CARTESIAN_POINT('',(0.396742225518,-1.148410563126));
#531 = CARTESIAN_POINT('',(0.409018723414,-1.161270987661));
#532 = CARTESIAN_POINT('',(0.422227582261,-1.174051219979));
#533 = CARTESIAN_POINT('',(0.436486814088,-1.186740389086));
#534 = CARTESIAN_POINT('',(0.451938746354,-1.19932509893));
#535 = CARTESIAN_POINT('',(0.485050283793,-1.223862416335));
#536 = CARTESIAN_POINT('',(0.502625848933,-1.235822482909));
#537 = CARTESIAN_POINT('',(0.521642021907,-1.247653360283));
#538 = CARTESIAN_POINT('',(0.542285447731,-1.259336605303));
#539 = CARTESIAN_POINT('',(0.564776159262,-1.270849781367));
#540 = CARTESIAN_POINT('',(0.589377790385,-1.282165162473));
#541 = CARTESIAN_POINT('',(0.616406428872,-1.293247787167));
#542 = CARTESIAN_POINT('',(0.67512414318,-1.314519802265));
#543 = CARTESIAN_POINT('',(0.706641160625,-1.324726269693));
#544 = CARTESIAN_POINT('',(0.741117743359,-1.334631178562));
#545 = CARTESIAN_POINT('',(0.778935816703,-1.344184467675));
#546 = CARTESIAN_POINT('',(0.8205193254,-1.353325541114));
#547 = CARTESIAN_POINT('',(0.866324825413,-1.361979058243));
#548 = CARTESIAN_POINT('',(0.916775798956,-1.370052682561));
#549 = CARTESIAN_POINT('',(0.998881791433,-1.381020667447));
#550 = CARTESIAN_POINT('',(1.0268151851,-1.384439062042));
#551 = CARTESIAN_POINT('',(1.055913956011,-1.387684928941));
#552 = CARTESIAN_POINT('',(1.08619202996,-1.390745714771));
#553 = CARTESIAN_POINT('',(1.117647192683,-1.393608349849));
#554 = CARTESIAN_POINT('',(1.150256215957,-1.396259546555));
#555 = CARTESIAN_POINT('',(1.183970710322,-1.398686254649));
#556 = CARTESIAN_POINT('',(1.252913839237,-1.403032073387));
#557 = CARTESIAN_POINT('',(1.288110640518,-1.404958516752));
#558 = CARTESIAN_POINT('',(1.324230975024,-1.406643990777));
#559 = CARTESIAN_POINT('',(1.361175766369,-1.408077596572));
#560 = CARTESIAN_POINT('',(1.398818088598,-1.409249834));
#561 = CARTESIAN_POINT('',(1.437005663424,-1.410153164278));
#562 = CARTESIAN_POINT('',(1.475567761112,-1.410782450425));
#563 = CARTESIAN_POINT('',(1.590632782078,-1.411829899943));
#564 = CARTESIAN_POINT('',(1.667701038857,-1.411452929576));
#565 = CARTESIAN_POINT('',(1.744173899995,-1.409985867962));
#566 = CARTESIAN_POINT('',(1.818575671465,-1.407449153391));
#567 = CARTESIAN_POINT('',(1.889621851665,-1.403910826001));
#568 = CARTESIAN_POINT('',(1.956636298205,-1.399464567026));
#569 = CARTESIAN_POINT('',(2.019304790526,-1.394207623079));
#570 = CARTESIAN_POINT('',(2.134052552012,-1.382446921341));
#571 = CARTESIAN_POINT('',(2.186401373689,-1.375987248597));
#572 = CARTESIAN_POINT('',(2.234599181206,-1.368940204185));
#573 = CARTESIAN_POINT('',(2.278844911931,-1.361387710987));
#574 = CARTESIAN_POINT('',(2.31945260196,-1.353400341601));
#575 = CARTESIAN_POINT('',(2.356749874367,-1.345037531061));
#576 = CARTESIAN_POINT('',(2.391058600115,-1.336349157369));
#577 = CARTESIAN_POINT('',(2.453305156849,-1.318685340624));
#578 = CARTESIAN_POINT('',(2.481408582335,-1.309727352723));
#579 = CARTESIAN_POINT('',(2.507256700649,-1.300541146037));
#580 = CARTESIAN_POINT('',(2.53109890049,-1.291157678237));
#581 = CARTESIAN_POINT('',(2.553153834633,-1.281602272159));
#582 = CARTESIAN_POINT('',(2.573610704824,-1.271895878133));
#583 = CARTESIAN_POINT('',(2.592634503669,-1.262056065099));
#584 = CARTESIAN_POINT('',(2.644727490515,-1.232803262523));
#585 = CARTESIAN_POINT('',(2.674244078162,-1.213063708674));
#586 = CARTESIAN_POINT('',(2.699960055474,-1.192986823583));
#587 = CARTESIAN_POINT('',(2.722611733053,-1.172642457974));
#588 = CARTESIAN_POINT('',(2.742738875869,-1.152080439265));
#589 = CARTESIAN_POINT('',(2.760752771843,-1.131338441864));
#590 = CARTESIAN_POINT('',(2.776975520337,-1.110444984702));
#591 = CARTESIAN_POINT('',(2.819201569228,-1.050006088179));
#592 = CARTESIAN_POINT('',(2.841342576148,-1.010136693713));
#593 = CARTESIAN_POINT('',(2.859772091792,-0.969963504941));
#594 = CARTESIAN_POINT('',(2.87537239581,-0.929560717729));
#595 = CARTESIAN_POINT('',(2.8887674461,-0.88898185588));
#596 = CARTESIAN_POINT('',(2.900375352788,-0.848261892901));
#597 = CARTESIAN_POINT('',(2.910512805037,-0.80742778747));
#598 = CARTESIAN_POINT('',(2.927205761258,-0.73068742603));
#599 = CARTESIAN_POINT('',(2.934050696426,-0.694803232289));
#600 = CARTESIAN_POINT('',(2.94010902142,-0.658860511516));
#601 = CARTESIAN_POINT('',(2.945494746624,-0.622869066333));
#602 = CARTESIAN_POINT('',(2.950295150603,-0.586836527176));
#603 = CARTESIAN_POINT('',(2.954579311788,-0.550769075717));
#604 = CARTESIAN_POINT('',(2.95840204488,-0.514671776347));
#605 = CARTESIAN_POINT('',(2.96776807409,-0.415333931406));
#606 = CARTESIAN_POINT('',(2.972451539179,-0.352040684144));
#607 = CARTESIAN_POINT('',(2.976096015043,-0.28869212631));
#608 = CARTESIAN_POINT('',(2.978842170554,-0.225303906111));
#609 = CARTESIAN_POINT('',(2.980779459487,-0.161888421205));
#610 = CARTESIAN_POINT('',(2.981962562943,-9.845642249747E-02));
#611 = CARTESIAN_POINT('',(2.982413356133,-3.501769803186E-02));
#612 = CARTESIAN_POINT('',(2.981905834194,7.599414532603E-02));
#613 = CARTESIAN_POINT('',(2.981271550686,0.123568743141));
#614 = CARTESIAN_POINT('',(2.980216944653,0.171137199808));
#615 = CARTESIAN_POINT('',(2.978727947902,0.218695152762));
#616 = CARTESIAN_POINT('',(2.976780495555,0.266237966688));
#617 = CARTESIAN_POINT('',(2.974338628989,0.313760438264));
#618 = CARTESIAN_POINT('',(2.971350178627,0.361256350507));
#619 = CARTESIAN_POINT('',(2.965032412533,0.444314021359));
#620 = CARTESIAN_POINT('',(2.96197500879,0.47989081631));
#621 = CARTESIAN_POINT('',(2.958536266138,0.515444970623));
#622 = CARTESIAN_POINT('',(2.95467646285,0.550972602261));
#623 = CARTESIAN_POINT('',(2.950346893606,0.586469161675));
#624 = CARTESIAN_POINT('',(2.94548650125,0.621929141061));
#625 = CARTESIAN_POINT('',(2.940015951392,0.657345569315));
#626 = CARTESIAN_POINT('',(2.929189048676,0.719232085142));
#627 = CARTESIAN_POINT('',(2.924145963151,0.745725222725));
#628 = CARTESIAN_POINT('',(2.918655259881,0.772184855935));
#629 = CARTESIAN_POINT('',(2.912662831131,0.79860635324));
#630 = CARTESIAN_POINT('',(2.906103849,0.824984203144));
#631 = CARTESIAN_POINT('',(2.898898717067,0.851311665983));
#632 = CARTESIAN_POINT('',(2.890946219482,0.877580175417));
#633 = CARTESIAN_POINT('',(2.868865339536,0.943075960896));
#634 = CARTESIAN_POINT('',(2.85363685628,0.982215424558));
#635 = CARTESIAN_POINT('',(2.835981347265,1.021159305403));
#636 = CARTESIAN_POINT('',(2.815281674128,1.059853607038));
#637 = CARTESIAN_POINT('',(2.790688783343,1.098229184119));
#638 = CARTESIAN_POINT('',(2.760879352755,1.136164957179));
#639 = CARTESIAN_POINT('',(2.723879803261,1.173496824246));
#640 = CARTESIAN_POINT('',(2.66337731368,1.218898264943));
#641 = CARTESIAN_POINT('',(2.650564183809,1.227915400701));
#642 = CARTESIAN_POINT('',(2.636972509135,1.236862947758));
#643 = CARTESIAN_POINT('',(2.622527838363,1.245733627476));
#644 = CARTESIAN_POINT('',(2.607145347452,1.254518978231));
#645 = CARTESIAN_POINT('',(2.590728005316,1.263209014761));
#646 = CARTESIAN_POINT('',(2.573164739532,1.271791887493));
#647 = CARTESIAN_POINT('',(2.526074395797,1.29294602348));
#648 = CARTESIAN_POINT('',(2.494956208769,1.305365714369));
#649 = CARTESIAN_POINT('',(2.460545859449,1.317464883001));
#650 = CARTESIAN_POINT('',(2.422334770891,1.329184064471));
#651 = CARTESIAN_POINT('',(2.379725595295,1.340447450686));
#652 = CARTESIAN_POINT('',(2.332029244392,1.351159073169));
#653 = CARTESIAN_POINT('',(2.278502347666,1.361191870336));
#654 = CARTESIAN_POINT('',(2.188725110442,1.374993657071));
#655 = CARTESIAN_POINT('',(2.157218220945,1.379386352774));
#656 = CARTESIAN_POINT('',(2.124068264687,1.383552050136));
#657 = CARTESIAN_POINT('',(2.089229160576,1.387470071448));
#658 = CARTESIAN_POINT('',(2.052678469766,1.391118298932));
#659 = CARTESIAN_POINT('',(2.014431444962,1.394473703797));
#660 = CARTESIAN_POINT('',(1.974554545198,1.397513333998));
#661 = CARTESIAN_POINT('',(1.891788720033,1.402918325089));
#662 = CARTESIAN_POINT('',(1.84889972914,1.405283684816));
#663 = CARTESIAN_POINT('',(1.804628749758,1.407290543244));
#664 = CARTESIAN_POINT('',(1.759155577456,1.408919099258));
#665 = CARTESIAN_POINT('',(1.712724457785,1.410152535878));
#666 = CARTESIAN_POINT('',(1.665634337303,1.410978812812));
#667 = CARTESIAN_POINT('',(1.618215357378,1.411391954233));
#668 = CARTESIAN_POINT('',(1.570796326795,1.411391954233));
#669 = ( GEOMETRIC_REPRESENTATION_CONTEXT(2) 
PARAMETRIC_REPRESENTATION_CONTEXT() REPRESENTATION_CONTEXT('2D SPACE',''
  ) );
#670 = PCURVE('',#671,#676);
#671 = PLANE('',#672);
#672 = AXIS2_PLACEMENT_3D('',#673,#674,#675);
#673 = CARTESIAN_POINT('',(0.,32.,220.));
#674 = DIRECTION('',(0.,1.,0.));
#675 = DIRECTION('',(0.,0.,1.));
#676 = DEFINITIONAL_REPRESENTATION('',(#677),#681);
#677 = CIRCLE('',#678,12.440257232067);
#678 = AXIS2_PLACEMENT_2D('',#679,#680);
#679 = CARTESIAN_POINT('',(26.,27.));
#680 = DIRECTION('',(1.,0.));
#681 = ( GEOMETRIC_REPRESENTATION_CONTEXT(2) 
PARAMETRIC_REPRESENTATION_CONTEXT() REPRESENTATION_CONTEXT('2D SPACE',''
  ) );
#682 = ADVANCED_FACE('',(#683),#671,.F.);
#683 = FACE_BOUND('',#684,.F.);
#684 = EDGE_LOOP('',(#685));
#685 = ORIENTED_EDGE('',*,*,#440,.T.);
#686 = ( GEOMETRIC_REPRESENTATION_CONTEXT(3) 
GLOBAL_UNCERTAINTY_ASSIGNED_CONTEXT((#690)) GLOBAL_UNIT_ASSIGNED_CONTEXT
((#687,#688,#689)) REPRESENTATION_CONTEXT('Context #1',
  '3D Context with UNIT and UNCERTAINTY') );
#687 = ( LENGTH_UNIT() NAMED_UNIT(*) SI_UNIT(.MILLI.,.METRE.) );
#688 = ( NAMED_UNIT(*) PLANE_ANGLE_UNIT() SI_UNIT($,.RADIAN.) );
#689 = ( NAMED_UNIT(*) SI_UNIT($,.STERADIAN.) SOLID_ANGLE_UNIT() );
#690 = UNCERTAINTY_MEASURE_WITH_UNIT(LENGTH_MEASURE(1.E-07),#687,
  'distance_accuracy_value','confusion accuracy');
#691 = PRODUCT_RELATED_PRODUCT_CATEGORY('part',$,(#7));
ENDSEC;
END-ISO-10303-21;
