ISO-10303-21;
HEADER;
FILE_DESCRIPTION(('Open CASCADE Model'),'2;1');
FILE_NAME('Open CASCADE Shape Model','2026-09-08T23:34:51',('Author'),(
    'Open CASCADE'),'Open CASCADE STEP processor 7.9','Open CASCADE 7.9'
  ,'Unknown');
FILE_SCHEMA(('AUTOMOTIVE_DESIGN { 1 0 10303 214 1 1 1 1 }'));
ENDSEC;
DATA;
#1 = APPLICATION_PROTOCOL_DEFINITION('international standard',
  'automotive_design',2000,#2);
#2 = APPLICATION_CONTEXT(
  'core data for automotive mechanical design processes');
#3 = SHAPE_DEFINITION_REPRESENTATION(#4,#10);
#4 = PRODUCT_DEFINITION_SHAPE('','',#5);
#5 = PRODUCT_DEFINITION('design','',#6,#9);
#6 = PRODUCT_DEFINITION_FORMATION('','',#7);
#7 = PRODUCT('Open CASCADE STEP translator 7.9 7',
  'Open CASCADE STEP translator 7.9 7','',(#8));
#8 = PRODUCT_CONTEXT('',#2,'mechanical');
#9 = PRODUCT_DEFINITION_CONTEXT('part definition',#2,'design');
#10 = ADVANCED_BREP_SHAPE_REPRESENTATION('',(#11,#15),#371);
#11 = AXIS2_PLACEMENT_3D('',#12,#13,#14);
#12 = CARTESIAN_POINT('',(0.,0.,0.));
#13 = DIRECTION('',(0.,0.,1.));
#14 = DIRECTION('',(1.,0.,-0.));
#15 = MANIFOLD_SOLID_BREP('',#16);
#16 = CLOSED_SHELL('',(#17,#182,#258,#333,#361,#366));
#17 = ADVANCED_FACE('',(#18),#33,.T.);
#18 = FACE_BOUND('',#19,.T.);
#19 = EDGE_LOOP('',(#20,#70,#119,#162));
#20 = ORIENTED_EDGE('',*,*,#21,.T.);
#21 = EDGE_CURVE('',#22,#24,#26,.T.);
#22 = VERTEX_POINT('',#23);
#23 = CARTESIAN_POINT('',(32.,10.,193.));
#24 = VERTEX_POINT('',#25);
#25 = CARTESIAN_POINT('',(32.,6.123233995737E-16,203.));
#26 = SURFACE_CURVE('',#27,(#32,#58),.PCURVE_S1.);
#27 = ELLIPSE('',#28,10.,10.);
#28 = AXIS2_PLACEMENT_3D('',#29,#30,#31);
#29 = CARTESIAN_POINT('',(32.,0.,193.));
#30 = DIRECTION('',(1.,0.,0.));
#31 = DIRECTION('',(0.,1.,0.));
#32 = PCURVE('',#33,#52);
#33 = B_SPLINE_SURFACE_WITH_KNOTS('',8,1,(
    (#34,#35)
    ,(#36,#37)
    ,(#38,#39)
    ,(#40,#41)
    ,(#42,#43)
    ,(#44,#45)
    ,(#46,#47)
    ,(#48,#49)
    ,(#50,#51
    )),.UNSPECIFIED.,.F.,.F.,.F.,(9,9),(2,2),(0.,1.570796326795),(0.,1.)
  ,.PIECEWISE_BEZIER_KNOTS.);
#34 = CARTESIAN_POINT('',(32.,10.,193.));
#35 = CARTESIAN_POINT('',(43.,12.,210.));
#36 = CARTESIAN_POINT('',(32.,10.,194.96349540849));
#37 = CARTESIAN_POINT('',(42.999999999999,12.,212.94524311273));
#38 = CARTESIAN_POINT('',(32.,9.559392110388,196.92699143504));
#39 = CARTESIAN_POINT('',(43.000000000002,11.471270532466,
    215.89048715257));
#40 = CARTESIAN_POINT('',(32.000000000001,8.678180658714,198.77513234335
    ));
#41 = CARTESIAN_POINT('',(42.999999999996,10.413816790456,
    218.66269851501));
#42 = CARTESIAN_POINT('',(31.999999999999,7.392587557799,200.39258755779
    ));
#43 = CARTESIAN_POINT('',(43.000000000004,8.871105069359,221.08888133671
    ));
#44 = CARTESIAN_POINT('',(32.000000000001,5.775132343351,201.67818065871
    ));
#45 = CARTESIAN_POINT('',(42.999999999997,6.93015881202,223.01727098805)
  );
#46 = CARTESIAN_POINT('',(32.,3.926991435042,202.55939211038));
#47 = CARTESIAN_POINT('',(43.000000000001,4.712389722051,224.33908816558
    ));
#48 = CARTESIAN_POINT('',(32.,1.963495408494,203.));
#49 = CARTESIAN_POINT('',(43.,2.356194490192,224.99999999999));
#50 = CARTESIAN_POINT('',(32.,8.881784197001E-16,203.));
#51 = CARTESIAN_POINT('',(43.,3.552713678801E-15,225.));
#52 = DEFINITIONAL_REPRESENTATION('',(#53),#57);
#53 = LINE('',#54,#55);
#54 = CARTESIAN_POINT('',(0.,0.));
#55 = VECTOR('',#56,1.);
#56 = DIRECTION('',(1.,0.));
#57 = ( GEOMETRIC_REPRESENTATION_CONTEXT(2) 
PARAMETRIC_REPRESENTATION_CONTEXT() REPRESENTATION_CONTEXT('2D SPACE',''
  ) );
#58 = PCURVE('',#59,#64);
#59 = PLANE('',#60);
#60 = AXIS2_PLACEMENT_3D('',#61,#62,#63);
#61 = CARTESIAN_POINT('',(32.,0.,193.));
#62 = DIRECTION('',(1.,0.,0.));
#63 = DIRECTION('',(0.,1.,0.));
#64 = DEFINITIONAL_REPRESENTATION('',(#65),#69);
#65 = CIRCLE('',#66,10.);
#66 = AXIS2_PLACEMENT_2D('',#67,#68);
#67 = CARTESIAN_POINT('',(0.,0.));
#68 = DIRECTION('',(1.,0.));
#69 = ( GEOMETRIC_REPRESENTATION_CONTEXT(2) 
PARAMETRIC_REPRESENTATION_CONTEXT() REPRESENTATION_CONTEXT('2D SPACE',''
  ) );
#70 = ORIENTED_EDGE('',*,*,#71,.T.);
#71 = EDGE_CURVE('',#24,#72,#74,.T.);
#72 = VERTEX_POINT('',#73);
#73 = CARTESIAN_POINT('',(43.,1.665334536938E-15,225.));
#74 = SURFACE_CURVE('',#75,(#78,#85),.PCURVE_S1.);
#75 = B_SPLINE_CURVE_WITH_KNOTS('',1,(#76,#77),.UNSPECIFIED.,.F.,.F.,(2,
    2),(0.,1.),.PIECEWISE_BEZIER_KNOTS.);
#76 = CARTESIAN_POINT('',(32.,8.881784197001E-16,203.));
#77 = CARTESIAN_POINT('',(43.,3.552713678801E-15,225.));
#78 = PCURVE('',#33,#79);
#79 = DEFINITIONAL_REPRESENTATION('',(#80),#84);
#80 = LINE('',#81,#82);
#81 = CARTESIAN_POINT('',(1.570796326795,0.));
#82 = VECTOR('',#83,1.);
#83 = DIRECTION('',(0.,1.));
#84 = ( GEOMETRIC_REPRESENTATION_CONTEXT(2) 
PARAMETRIC_REPRESENTATION_CONTEXT() REPRESENTATION_CONTEXT('2D SPACE',''
  ) );
#85 = PCURVE('',#86,#113);
#86 = B_SPLINE_SURFACE_WITH_KNOTS('',12,1,(
    (#87,#88)
    ,(#89,#90)
    ,(#91,#92)
    ,(#93,#94)
    ,(#95,#96)
    ,(#97,#98)
    ,(#99,#100)
    ,(#101,#102)
    ,(#103,#104)
    ,(#105,#106)
    ,(#107,#108)
    ,(#109,#110)
    ,(#111,#112
    )),.UNSPECIFIED.,.F.,.F.,.F.,(13,13),(2,2),(1.570796326795,
    6.28318530718),(0.,1.),.PIECEWISE_BEZIER_KNOTS.);
#87 = CARTESIAN_POINT('',(32.,-1.7763568394E-15,203.));
#88 = CARTESIAN_POINT('',(43.,1.7763568394E-15,225.));
#89 = CARTESIAN_POINT('',(32.000000000001,-3.926990816988,
    202.99999999999));
#90 = CARTESIAN_POINT('',(43.000000000005,-4.712388980386,
    225.00000000003));
#91 = CARTESIAN_POINT('',(31.999999999998,-7.853979875451,
    201.31767886028));
#92 = CARTESIAN_POINT('',(42.999999999981,-9.424775850539,
    222.47651829027));
#93 = CARTESIAN_POINT('',(32.000000000004,-10.98821075427,197.9530596533
    ));
#94 = CARTESIAN_POINT('',(43.000000000047,-13.18585290512,
    217.42958948035));
#95 = CARTESIAN_POINT('',(31.999999999994,-12.53682152848,193.3211170322
    ));
#96 = CARTESIAN_POINT('',(42.999999999919,-15.04418583417,
    210.48167554756));
#97 = CARTESIAN_POINT('',(32.000000000006,-11.95183332777,
    188.25246637609));
#98 = CARTESIAN_POINT('',(43.000000000109,-14.34219999333,
    202.87869956523));
#99 = CARTESIAN_POINT('',(31.999999999994,-9.173342423775,
    183.82665757645));
#100 = CARTESIAN_POINT('',(42.999999999882,-11.00801090852,
    196.23998636343));
#101 = CARTESIAN_POINT('',(32.000000000006,-4.74753362373,
    181.04816667199));
#102 = CARTESIAN_POINT('',(43.000000000103,-5.697040348477,
    192.07225000913));
#103 = CARTESIAN_POINT('',(31.999999999996,0.321117032106,
    180.46317847169));
#104 = CARTESIAN_POINT('',(42.999999999928,0.385340438526,
    191.19476770672));
#105 = CARTESIAN_POINT('',(32.000000000003,4.953059653346,
    182.01178924562));
#106 = CARTESIAN_POINT('',(43.000000000039,5.943671584017,
    193.51768386889));
#107 = CARTESIAN_POINT('',(31.999999999999,8.317678860271,
    185.14602012459));
#108 = CARTESIAN_POINT('',(42.999999999985,9.981214632325,
    198.21903018671));
#109 = CARTESIAN_POINT('',(32.,10.,189.073009183));
#110 = CARTESIAN_POINT('',(43.000000000004,12.,204.10951377454));
#111 = CARTESIAN_POINT('',(32.,10.,193.));
#112 = CARTESIAN_POINT('',(43.,12.,210.));
#113 = DEFINITIONAL_REPRESENTATION('',(#114),#118);
#114 = LINE('',#115,#116);
#115 = CARTESIAN_POINT('',(1.570796326795,0.));
#116 = VECTOR('',#117,1.);
#117 = DIRECTION('',(0.,1.));
#118 = ( GEOMETRIC_REPRESENTATION_CONTEXT(2) 
PARAMETRIC_REPRESENTATION_CONTEXT() REPRESENTATION_CONTEXT('2D SPACE',''
  ) );
#119 = ORIENTED_EDGE('',*,*,#120,.F.);
#120 = EDGE_CURVE('',#121,#72,#123,.T.);
#121 = VERTEX_POINT('',#122);
#122 = CARTESIAN_POINT('',(43.,12.,210.));
#123 = SURFACE_CURVE('',#124,(#129,#136),.PCURVE_S1.);
#124 = ELLIPSE('',#125,15.,12.);
#125 = AXIS2_PLACEMENT_3D('',#126,#127,#128);
#126 = CARTESIAN_POINT('',(43.,0.,210.));
#127 = DIRECTION('',(1.,0.,-0.));
#128 = DIRECTION('',(0.,1.110223024625E-16,1.));
#129 = PCURVE('',#33,#130);
#130 = DEFINITIONAL_REPRESENTATION('',(#131),#135);
#131 = LINE('',#132,#133);
#132 = CARTESIAN_POINT('',(-4.712388980385,1.));
#133 = VECTOR('',#134,1.);
#134 = DIRECTION('',(1.,0.));
#135 = ( GEOMETRIC_REPRESENTATION_CONTEXT(2) 
PARAMETRIC_REPRESENTATION_CONTEXT() REPRESENTATION_CONTEXT('2D SPACE',''
  ) );
#136 = PCURVE('',#137,#156);
#137 = B_SPLINE_SURFACE_WITH_KNOTS('',8,1,(
    (#138,#139)
    ,(#140,#141)
    ,(#142,#143)
    ,(#144,#145)
    ,(#146,#147)
    ,(#148,#149)
    ,(#150,#151)
    ,(#152,#153)
    ,(#154,#155
    )),.UNSPECIFIED.,.F.,.F.,.F.,(9,9),(2,2),(4.712388980385,
    6.28318530718),(0.,1.),.PIECEWISE_BEZIER_KNOTS.);
#138 = CARTESIAN_POINT('',(43.,12.,210.));
#139 = CARTESIAN_POINT('',(52.,8.,223.));
#140 = CARTESIAN_POINT('',(42.999999999999,12.,212.94524311273));
#141 = CARTESIAN_POINT('',(52.,8.,225.15984494934));
#142 = CARTESIAN_POINT('',(43.000000000002,11.471270532466,
    215.89048715257));
#143 = CARTESIAN_POINT('',(52.000000000002,7.647513688311,
    227.31969057855));
#144 = CARTESIAN_POINT('',(42.999999999996,10.413816790456,
    218.66269851501));
#145 = CARTESIAN_POINT('',(51.999999999997,6.942544526971,
    229.35264557767));
#146 = CARTESIAN_POINT('',(43.000000000004,8.871105069359,
    221.08888133671));
#147 = CARTESIAN_POINT('',(52.000000000003,5.914070046239,
    231.13184631358));
#148 = CARTESIAN_POINT('',(42.999999999997,6.93015881202,223.01727098805
    ));
#149 = CARTESIAN_POINT('',(51.999999999998,4.62010587468,232.54599872457
    ));
#150 = CARTESIAN_POINT('',(43.000000000001,4.712389722051,
    224.33908816558));
#151 = CARTESIAN_POINT('',(52.000000000001,3.141593148034,
    233.51533132142));
#152 = CARTESIAN_POINT('',(43.,2.356194490192,224.99999999999));
#153 = CARTESIAN_POINT('',(52.,1.570796326795,233.99999999999));
#154 = CARTESIAN_POINT('',(43.,3.552713678801E-15,225.));
#155 = CARTESIAN_POINT('',(52.,2.6645352591E-15,234.));
#156 = DEFINITIONAL_REPRESENTATION('',(#157),#161);
#157 = LINE('',#158,#159);
#158 = CARTESIAN_POINT('',(0.,0.));
#159 = VECTOR('',#160,1.);
#160 = DIRECTION('',(1.,0.));
#161 = ( GEOMETRIC_REPRESENTATION_CONTEXT(2) 
PARAMETRIC_REPRESENTATION_CONTEXT() REPRESENTATION_CONTEXT('2D SPACE',''
  ) );
#162 = ORIENTED_EDGE('',*,*,#163,.F.);
#163 = EDGE_CURVE('',#22,#121,#164,.T.);
#164 = SURFACE_CURVE('',#165,(#168,#175),.PCURVE_S1.);
#165 = B_SPLINE_CURVE_WITH_KNOTS('',1,(#166,#167),.UNSPECIFIED.,.F.,.F.,
  (2,2),(0.,1.),.PIECEWISE_BEZIER_KNOTS.);
#166 = CARTESIAN_POINT('',(32.,10.,193.));
#167 = CARTESIAN_POINT('',(43.,12.,210.));
#168 = PCURVE('',#33,#169);
#169 = DEFINITIONAL_REPRESENTATION('',(#170),#174);
#170 = LINE('',#171,#172);
#171 = CARTESIAN_POINT('',(0.,0.));
#172 = VECTOR('',#173,1.);
#173 = DIRECTION('',(0.,1.));
#174 = ( GEOMETRIC_REPRESENTATION_CONTEXT(2) 
PARAMETRIC_REPRESENTATION_CONTEXT() REPRESENTATION_CONTEXT('2D SPACE',''
  ) );
#175 = PCURVE('',#86,#176);
#176 = DEFINITIONAL_REPRESENTATION('',(#177),#181);
#177 = LINE('',#178,#179);
#178 = CARTESIAN_POINT('',(6.28318530718,0.));
#179 = VECTOR('',#180,1.);
#180 = DIRECTION('',(0.,1.));
#181 = ( GEOMETRIC_REPRESENTATION_CONTEXT(2) 
PARAMETRIC_REPRESENTATION_CONTEXT() REPRESENTATION_CONTEXT('2D SPACE',''
  ) );
#182 = ADVANCED_FACE('',(#183),#86,.T.);
#183 = FACE_BOUND('',#184,.T.);
#184 = EDGE_LOOP('',(#185,#207,#208,#257));
#185 = ORIENTED_EDGE('',*,*,#186,.T.);
#186 = EDGE_CURVE('',#24,#22,#187,.T.);
#187 = SURFACE_CURVE('',#188,(#193,#200),.PCURVE_S1.);
#188 = ELLIPSE('',#189,10.,10.);
#189 = AXIS2_PLACEMENT_3D('',#190,#191,#192);
#190 = CARTESIAN_POINT('',(32.,0.,193.));
#191 = DIRECTION('',(1.,0.,0.));
#192 = DIRECTION('',(0.,1.,0.));
#193 = PCURVE('',#86,#194);
#194 = DEFINITIONAL_REPRESENTATION('',(#195),#199);
#195 = LINE('',#196,#197);
#196 = CARTESIAN_POINT('',(0.,0.));
#197 = VECTOR('',#198,1.);
#198 = DIRECTION('',(1.,0.));
#199 = ( GEOMETRIC_REPRESENTATION_CONTEXT(2) 
PARAMETRIC_REPRESENTATION_CONTEXT() REPRESENTATION_CONTEXT('2D SPACE',''
  ) );
#200 = PCURVE('',#59,#201);
#201 = DEFINITIONAL_REPRESENTATION('',(#202),#206);
#202 = CIRCLE('',#203,10.);
#203 = AXIS2_PLACEMENT_2D('',#204,#205);
#204 = CARTESIAN_POINT('',(0.,0.));
#205 = DIRECTION('',(1.,0.));
#206 = ( GEOMETRIC_REPRESENTATION_CONTEXT(2) 
PARAMETRIC_REPRESENTATION_CONTEXT() REPRESENTATION_CONTEXT('2D SPACE',''
  ) );
#207 = ORIENTED_EDGE('',*,*,#163,.T.);
#208 = ORIENTED_EDGE('',*,*,#209,.F.);
#209 = EDGE_CURVE('',#72,#121,#210,.T.);
#210 = SURFACE_CURVE('',#211,(#216,#223),.PCURVE_S1.);
#211 = ELLIPSE('',#212,15.,12.);
#212 = AXIS2_PLACEMENT_3D('',#213,#214,#215);
#213 = CARTESIAN_POINT('',(43.,0.,210.));
#214 = DIRECTION('',(1.,0.,-0.));
#215 = DIRECTION('',(0.,1.110223024625E-16,1.));
#216 = PCURVE('',#86,#217);
#217 = DEFINITIONAL_REPRESENTATION('',(#218),#222);
#218 = LINE('',#219,#220);
#219 = CARTESIAN_POINT('',(1.570796326795,1.));
#220 = VECTOR('',#221,1.);
#221 = DIRECTION('',(1.,0.));
#222 = ( GEOMETRIC_REPRESENTATION_CONTEXT(2) 
PARAMETRIC_REPRESENTATION_CONTEXT() REPRESENTATION_CONTEXT('2D SPACE',''
  ) );
#223 = PCURVE('',#224,#251);
#224 = B_SPLINE_SURFACE_WITH_KNOTS('',12,1,(
    (#225,#226)
    ,(#227,#228)
    ,(#229,#230)
    ,(#231,#232)
    ,(#233,#234)
    ,(#235,#236)
    ,(#237,#238)
    ,(#239,#240)
    ,(#241,#242)
    ,(#243,#244)
    ,(#245,#246)
    ,(#247,#248)
    ,(#249,#250
    )),.UNSPECIFIED.,.F.,.F.,.F.,(13,13),(2,2),(0.,4.712388980385),(0.,
    1.),.PIECEWISE_BEZIER_KNOTS.);
#225 = CARTESIAN_POINT('',(43.,1.7763568394E-15,225.));
#226 = CARTESIAN_POINT('',(52.,1.7763568394E-15,234.));
#227 = CARTESIAN_POINT('',(43.000000000005,-4.712388980386,
    225.00000000003));
#228 = CARTESIAN_POINT('',(52.000000000004,-3.14159265359,
    234.00000000002));
#229 = CARTESIAN_POINT('',(42.999999999981,-9.424775850539,
    222.47651829027));
#230 = CARTESIAN_POINT('',(51.999999999982,-6.28318390036,
    232.14944674618));
#231 = CARTESIAN_POINT('',(43.000000000047,-13.18585290512,
    217.42958948035));
#232 = CARTESIAN_POINT('',(52.000000000042,-8.790568603418,
    228.44836561895));
#233 = CARTESIAN_POINT('',(42.999999999919,-15.04418583417,
    210.48167554756));
#234 = CARTESIAN_POINT('',(51.99999999993,-10.02945722278,
    223.35322873485));
#235 = CARTESIAN_POINT('',(43.000000000109,-14.34219999333,
    202.87869956523));
#236 = CARTESIAN_POINT('',(52.000000000088,-9.561466662225,
    217.7777130145));
#237 = CARTESIAN_POINT('',(42.999999999882,-11.00801090852,
    196.23998636343));
#238 = CARTESIAN_POINT('',(51.999999999913,-7.338673939015,
    212.90932333322));
#239 = CARTESIAN_POINT('',(43.000000000103,-5.697040348477,
    192.07225000913));
#240 = CARTESIAN_POINT('',(52.00000000007,-3.798026898987,
    209.85298333996));
#241 = CARTESIAN_POINT('',(42.999999999928,0.385340438526,
    191.19476770672));
#242 = CARTESIAN_POINT('',(51.999999999955,0.256893625686,
    209.20949631833));
#243 = CARTESIAN_POINT('',(43.000000000039,5.943671584017,
    193.51768386889));
#244 = CARTESIAN_POINT('',(52.000000000023,3.962447722677,
    210.91296817048));
#245 = CARTESIAN_POINT('',(42.999999999985,9.981214632325,
    198.21903018671));
#246 = CARTESIAN_POINT('',(51.999999999992,6.654143088217,
    214.36062213693));
#247 = CARTESIAN_POINT('',(43.000000000004,12.,204.10951377454));
#248 = CARTESIAN_POINT('',(52.000000000002,8.,218.68031010132));
#249 = CARTESIAN_POINT('',(43.,12.,210.));
#250 = CARTESIAN_POINT('',(52.,8.,223.));
#251 = DEFINITIONAL_REPRESENTATION('',(#252),#256);
#252 = LINE('',#253,#254);
#253 = CARTESIAN_POINT('',(0.,0.));
#254 = VECTOR('',#255,1.);
#255 = DIRECTION('',(1.,0.));
#256 = ( GEOMETRIC_REPRESENTATION_CONTEXT(2) 
PARAMETRIC_REPRESENTATION_CONTEXT() REPRESENTATION_CONTEXT('2D SPACE',''
  ) );
#257 = ORIENTED_EDGE('',*,*,#71,.F.);
#258 = ADVANCED_FACE('',(#259),#137,.T.);
#259 = FACE_BOUND('',#260,.T.);
#260 = EDGE_LOOP('',(#261,#262,#284,#313));
#261 = ORIENTED_EDGE('',*,*,#120,.T.);
#262 = ORIENTED_EDGE('',*,*,#263,.T.);
#263 = EDGE_CURVE('',#72,#264,#266,.T.);
#264 = VERTEX_POINT('',#265);
#265 = CARTESIAN_POINT('',(52.,1.221245327088E-15,234.));
#266 = SURFACE_CURVE('',#267,(#270,#277),.PCURVE_S1.);
#267 = B_SPLINE_CURVE_WITH_KNOTS('',1,(#268,#269),.UNSPECIFIED.,.F.,.F.,
  (2,2),(0.,1.),.PIECEWISE_BEZIER_KNOTS.);
#268 = CARTESIAN_POINT('',(43.,3.552713678801E-15,225.));
#269 = CARTESIAN_POINT('',(52.,2.6645352591E-15,234.));
#270 = PCURVE('',#137,#271);
#271 = DEFINITIONAL_REPRESENTATION('',(#272),#276);
#272 = LINE('',#273,#274);
#273 = CARTESIAN_POINT('',(6.28318530718,0.));
#274 = VECTOR('',#275,1.);
#275 = DIRECTION('',(0.,1.));
#276 = ( GEOMETRIC_REPRESENTATION_CONTEXT(2) 
PARAMETRIC_REPRESENTATION_CONTEXT() REPRESENTATION_CONTEXT('2D SPACE',''
  ) );
#277 = PCURVE('',#224,#278);
#278 = DEFINITIONAL_REPRESENTATION('',(#279),#283);
#279 = LINE('',#280,#281);
#280 = CARTESIAN_POINT('',(0.,0.));
#281 = VECTOR('',#282,1.);
#282 = DIRECTION('',(0.,1.));
#283 = ( GEOMETRIC_REPRESENTATION_CONTEXT(2) 
PARAMETRIC_REPRESENTATION_CONTEXT() REPRESENTATION_CONTEXT('2D SPACE',''
  ) );
#284 = ORIENTED_EDGE('',*,*,#285,.F.);
#285 = EDGE_CURVE('',#286,#264,#288,.T.);
#286 = VERTEX_POINT('',#287);
#287 = CARTESIAN_POINT('',(52.,8.,223.));
#288 = SURFACE_CURVE('',#289,(#294,#301),.PCURVE_S1.);
#289 = ELLIPSE('',#290,11.,8.);
#290 = AXIS2_PLACEMENT_3D('',#291,#292,#293);
#291 = CARTESIAN_POINT('',(52.,0.,223.));
#292 = DIRECTION('',(1.,0.,-0.));
#293 = DIRECTION('',(0.,1.110223024625E-16,1.));
#294 = PCURVE('',#137,#295);
#295 = DEFINITIONAL_REPRESENTATION('',(#296),#300);
#296 = LINE('',#297,#298);
#297 = CARTESIAN_POINT('',(0.,1.));
#298 = VECTOR('',#299,1.);
#299 = DIRECTION('',(1.,0.));
#300 = ( GEOMETRIC_REPRESENTATION_CONTEXT(2) 
PARAMETRIC_REPRESENTATION_CONTEXT() REPRESENTATION_CONTEXT('2D SPACE',''
  ) );
#301 = PCURVE('',#302,#307);
#302 = PLANE('',#303);
#303 = AXIS2_PLACEMENT_3D('',#304,#305,#306);
#304 = CARTESIAN_POINT('',(52.,0.,223.));
#305 = DIRECTION('',(1.,0.,-0.));
#306 = DIRECTION('',(0.,1.110223024625E-16,1.));
#307 = DEFINITIONAL_REPRESENTATION('',(#308),#312);
#308 = ELLIPSE('',#309,11.,8.);
#309 = AXIS2_PLACEMENT_2D('',#310,#311);
#310 = CARTESIAN_POINT('',(0.,0.));
#311 = DIRECTION('',(1.,0.));
#312 = ( GEOMETRIC_REPRESENTATION_CONTEXT(2) 
PARAMETRIC_REPRESENTATION_CONTEXT() REPRESENTATION_CONTEXT('2D SPACE',''
  ) );
#313 = ORIENTED_EDGE('',*,*,#314,.F.);
#314 = EDGE_CURVE('',#121,#286,#315,.T.);
#315 = SURFACE_CURVE('',#316,(#319,#326),.PCURVE_S1.);
#316 = B_SPLINE_CURVE_WITH_KNOTS('',1,(#317,#318),.UNSPECIFIED.,.F.,.F.,
  (2,2),(0.,1.),.PIECEWISE_BEZIER_KNOTS.);
#317 = CARTESIAN_POINT('',(43.,12.,210.));
#318 = CARTESIAN_POINT('',(52.,8.,223.));
#319 = PCURVE('',#137,#320);
#320 = DEFINITIONAL_REPRESENTATION('',(#321),#325);
#321 = LINE('',#322,#323);
#322 = CARTESIAN_POINT('',(4.712388980385,0.));
#323 = VECTOR('',#324,1.);
#324 = DIRECTION('',(0.,1.));
#325 = ( GEOMETRIC_REPRESENTATION_CONTEXT(2) 
PARAMETRIC_REPRESENTATION_CONTEXT() REPRESENTATION_CONTEXT('2D SPACE',''
  ) );
#326 = PCURVE('',#224,#327);
#327 = DEFINITIONAL_REPRESENTATION('',(#328),#332);
#328 = LINE('',#329,#330);
#329 = CARTESIAN_POINT('',(4.712388980385,0.));
#330 = VECTOR('',#331,1.);
#331 = DIRECTION('',(0.,1.));
#332 = ( GEOMETRIC_REPRESENTATION_CONTEXT(2) 
PARAMETRIC_REPRESENTATION_CONTEXT() REPRESENTATION_CONTEXT('2D SPACE',''
  ) );
#333 = ADVANCED_FACE('',(#334),#224,.T.);
#334 = FACE_BOUND('',#335,.T.);
#335 = EDGE_LOOP('',(#336,#337,#338,#360));
#336 = ORIENTED_EDGE('',*,*,#209,.T.);
#337 = ORIENTED_EDGE('',*,*,#314,.T.);
#338 = ORIENTED_EDGE('',*,*,#339,.F.);
#339 = EDGE_CURVE('',#264,#286,#340,.T.);
#340 = SURFACE_CURVE('',#341,(#346,#353),.PCURVE_S1.);
#341 = ELLIPSE('',#342,11.,8.);
#342 = AXIS2_PLACEMENT_3D('',#343,#344,#345);
#343 = CARTESIAN_POINT('',(52.,0.,223.));
#344 = DIRECTION('',(1.,0.,-0.));
#345 = DIRECTION('',(0.,1.110223024625E-16,1.));
#346 = PCURVE('',#224,#347);
#347 = DEFINITIONAL_REPRESENTATION('',(#348),#352);
#348 = LINE('',#349,#350);
#349 = CARTESIAN_POINT('',(0.,1.));
#350 = VECTOR('',#351,1.);
#351 = DIRECTION('',(1.,0.));
#352 = ( GEOMETRIC_REPRESENTATION_CONTEXT(2) 
PARAMETRIC_REPRESENTATION_CONTEXT() REPRESENTATION_CONTEXT('2D SPACE',''
  ) );
#353 = PCURVE('',#302,#354);
#354 = DEFINITIONAL_REPRESENTATION('',(#355),#359);
#355 = ELLIPSE('',#356,11.,8.);
#356 = AXIS2_PLACEMENT_2D('',#357,#358);
#357 = CARTESIAN_POINT('',(0.,0.));
#358 = DIRECTION('',(1.,0.));
#359 = ( GEOMETRIC_REPRESENTATION_CONTEXT(2) 
PARAMETRIC_REPRESENTATION_CONTEXT() REPRESENTATION_CONTEXT('2D SPACE',''
  ) );
#360 = ORIENTED_EDGE('',*,*,#263,.F.);
#361 = ADVANCED_FACE('',(#362),#59,.F.);
#362 = FACE_BOUND('',#363,.F.);
#363 = EDGE_LOOP('',(#364,#365));
#364 = ORIENTED_EDGE('',*,*,#21,.T.);
#365 = ORIENTED_EDGE('',*,*,#186,.T.);
#366 = ADVANCED_FACE('',(#367),#302,.T.);
#367 = FACE_BOUND('',#368,.T.);
#368 = EDGE_LOOP('',(#369,#370));
#369 = ORIENTED_EDGE('',*,*,#285,.T.);
#370 = ORIENTED_EDGE('',*,*,#339,.T.);
#371 = ( GEOMETRIC_REPRESENTATION_CONTEXT(3) 
GLOBAL_UNCERTAINTY_ASSIGNED_CONTEXT((#375)) GLOBAL_UNIT_ASSIGNED_CONTEXT
((#372,#373,#374)) REPRESENTATION_CONTEXT('Context #1',
  '3D Context with UNIT and UNCERTAINTY') );
#372 = ( LENGTH_UNIT() NAMED_UNIT(*) SI_UNIT(.MILLI.,.METRE.) );
#373 = ( NAMED_UNIT(*) PLANE_ANGLE_UNIT() SI_UNIT($,.RADIAN.) );
#374 = ( NAMED_UNIT(*) SI_UNIT($,.STERADIAN.) SOLID_ANGLE_UNIT() );
#375 = UNCERTAINTY_MEASURE_WITH_UNIT(LENGTH_MEASURE(1.E-07),#372,
  'distance_accuracy_value','confusion accuracy');
#376 = PRODUCT_RELATED_PRODUCT_CATEGORY('part',$,(#7));
ENDSEC;
END-ISO-10303-21;
