ISO-10303-21;
HEADER;
FILE_DESCRIPTION(('Open CASCADE Model'),'2;1');
FILE_NAME('Open CASCADE Shape Model','2026-09-13T16:54:32',('Author'),(
    'Open CASCADE'),'Open CASCADE STEP processor 7.9','Open CASCADE 7.9'
  ,'Unknown');
FILE_SCHEMA(('AUTOMOTIVE_DESIGN { 1 0 10303 214 1 1 1 1 }'));
ENDSEC;
DATA;
#1 = APPLICATION_PROTOCOL_DEFINITION('international standard',
  'automotive_design',2000,#2);
#2 = APPLICATION_CONTEXT(
  'core data for automotive mechanical design processes');
#3 = SHAPE_DEFINITION_REPRESENTATION(#4,#10);
#4 = PRODUCT_DEFINITION_SHAPE('','',#5);
#5 = PRODUCT_DEFINITION('design','',#6,#9);
#6 = PRODUCT_DEFINITION_FORMATION('','',#7);
#7 = PRODUCT('Open CASCADE STEP translator 7.9 13',
  'Open CASCADE STEP translator 7.9 13','',(#8));
#8 = PRODUCT_CONTEXT('',#2,'mechanical');
#9 = PRODUCT_DEFINITION_CONTEXT('part definition',#2,'design');
#10 = ADVANCED_BREP_SHAPE_REPRESENTATION('',(#11,#15),#1299);
#11 = AXIS2_PLACEMENT_3D('',#12,#13,#14);
#12 = CARTESIAN_POINT('',(0.,0.,0.));
#13 = DIRECTION('',(0.,0.,1.));
#14 = DIRECTION('',(1.,0.,-0.));
#15 = MANIFOLD_SOLID_BREP('',#16);
#16 = CLOSED_SHELL('',(#17,#478,#789,#1190,#1243));
#17 = ADVANCED_FACE('',(#18),#34,.F.);
#18 = FACE_BOUND('',#19,.F.);
#19 = EDGE_LOOP('',(#20,#123,#173,#174,#223,#369,#394,#444,#445));
#20 = ORIENTED_EDGE('',*,*,#21,.F.);
#21 = EDGE_CURVE('',#22,#24,#26,.T.);
#22 = VERTEX_POINT('',#23);
#23 = CARTESIAN_POINT('',(-40.,32.,129.));
#24 = VERTEX_POINT('',#25);
#25 = CARTESIAN_POINT('',(-54.59245444538,29.112912230926,
    129.65042619371));
#26 = SEAM_CURVE('',#27,(#33,#116),.PCURVE_S1.);
#27 = ( BOUNDED_CURVE() B_SPLINE_CURVE(4,(#28,#29,#30,#31,#32),
.UNSPECIFIED.,.F.,.F.) B_SPLINE_CURVE_WITH_KNOTS((5,5),(0.,1.),
.PIECEWISE_BEZIER_KNOTS.) CURVE() GEOMETRIC_REPRESENTATION_ITEM() 
RATIONAL_B_SPLINE_CURVE((1.,1.,1.,1.,1.)) REPRESENTATION_ITEM('') );
#28 = CARTESIAN_POINT('',(-40.,32.,129.));
#29 = CARTESIAN_POINT('',(-58.84509363438,18.028679370556,
    132.31981939699));
#30 = CARTESIAN_POINT('',(-102.9171851931,58.213565528846,
    122.77162850624));
#31 = CARTESIAN_POINT('',(-105.2431440637,3.819923212929,132.94086540336
    ));
#32 = CARTESIAN_POINT('',(-132.,4.,136.));
#33 = PCURVE('',#34,#110);
#34 = ( BOUNDED_SURFACE() B_SPLINE_SURFACE(14,4,(
    (#35,#36,#37,#38,#39)
    ,(#40,#41,#42,#43,#44)
    ,(#45,#46,#47,#48,#49)
    ,(#50,#51,#52,#53,#54)
    ,(#55,#56,#57,#58,#59)
    ,(#60,#61,#62,#63,#64)
    ,(#65,#66,#67,#68,#69)
    ,(#70,#71,#72,#73,#74)
    ,(#75,#76,#77,#78,#79)
    ,(#80,#81,#82,#83,#84)
    ,(#85,#86,#87,#88,#89)
    ,(#90,#91,#92,#93,#94)
    ,(#95,#96,#97,#98,#99)
    ,(#100,#101,#102,#103,#104)
    ,(#105,#106,#107,#108,#109
)),.UNSPECIFIED.,.T.,.F.,.F.) B_SPLINE_SURFACE_WITH_KNOTS((15,15),(5,5),
  (0.,1.),(0.,1.),.PIECEWISE_BEZIER_KNOTS.) 
GEOMETRIC_REPRESENTATION_ITEM() RATIONAL_B_SPLINE_SURFACE((
    (1.,1.,1.,1.,1.)
    ,(1.,1.,1.,1.,1.)
    ,(1.,1.,1.,1.,1.)
    ,(1.,1.,1.,1.,1.)
    ,(1.,1.,1.,1.,1.)
    ,(1.,1.,1.,1.,1.)
    ,(1.,1.,1.,1.,1.)
    ,(1.,1.,1.,1.,1.)
    ,(1.,1.,1.,1.,1.)
    ,(1.,1.,1.,1.,1.)
    ,(1.,1.,1.,1.,1.)
    ,(1.,1.,1.,1.,1.)
    ,(1.,1.,1.,1.,1.)
    ,(1.,1.,1.,1.,1.)
,(1.,1.,1.,1.,1.))) REPRESENTATION_ITEM('') SURFACE() );
#35 = CARTESIAN_POINT('',(-40.,32.,129.));
#36 = CARTESIAN_POINT('',(-58.84509363438,18.028679370556,
    132.31981939699));
#37 = CARTESIAN_POINT('',(-102.9171851931,58.213565528846,
    122.77162850624));
#38 = CARTESIAN_POINT('',(-105.2431440637,3.819923212929,132.94086540336
    ));
#39 = CARTESIAN_POINT('',(-132.,4.,136.));
#40 = CARTESIAN_POINT('',(-40.,32.000000000012,138.42477796077));
#41 = CARTESIAN_POINT('',(-58.84509363438,18.028679370537,
    139.15295247529));
#42 = CARTESIAN_POINT('',(-102.9171851931,58.213565528867,
    136.79434352508));
#43 = CARTESIAN_POINT('',(-105.2431440637,3.819923212925,135.30908013091
    ));
#44 = CARTESIAN_POINT('',(-132.,4.000000000001,137.43615664164));
#45 = CARTESIAN_POINT('',(-40.,25.058740441568,147.84955940044));
#46 = CARTESIAN_POINT('',(-58.84509363438,14.117999901709,
    145.98608807581));
#47 = CARTESIAN_POINT('',(-102.9171851931,45.586207148926,
    150.81706372005));
#48 = CARTESIAN_POINT('',(-105.2431440637,2.991327009385,137.6772957326)
  );
#49 = CARTESIAN_POINT('',(-132.,3.132342555196,138.8723138134));
#50 = CARTESIAN_POINT('',(-40.,11.176212451233,154.88920627803));
#51 = CARTESIAN_POINT('',(-58.84509363438,6.296635964077,151.08995833567
    ));
#52 = CARTESIAN_POINT('',(-102.9171851931,20.331474246676,
    161.29104649264));
#53 = CARTESIAN_POINT('',(-105.2431440637,1.334133542904,139.44618572472
    ));
#54 = CARTESIAN_POINT('',(-132.,1.397026556404,139.94502190903));
#55 = CARTESIAN_POINT('',(-40.,-7.571539671833,157.15884951235));
#56 = CARTESIAN_POINT('',(-58.84509363438,-4.265776908282,
    152.73549039198));
#57 = CARTESIAN_POINT('',(-102.9171851931,-13.7739475262,164.66794941856
    ));
#58 = CARTESIAN_POINT('',(-105.2431440637,-0.903834379559,
    140.01649120618));
#59 = CARTESIAN_POINT('',(-132.,-0.946442458979,140.29087230664));
#60 = CARTESIAN_POINT('',(-40.,-27.03282113259,153.12851408119));
#61 = CARTESIAN_POINT('',(-58.84509363438,-15.23018952225,
    149.81342491078));
#62 = CARTESIAN_POINT('',(-102.9171851931,-49.17740326362,158.671389561)
  );
#63 = CARTESIAN_POINT('',(-105.2431440637,-3.22697815505,139.00376711204
    ));
#64 = CARTESIAN_POINT('',(-132.,-3.379102641574,139.67672595523));
#65 = CARTESIAN_POINT('',(-40.,-41.88933445347,142.98359015057));
#66 = CARTESIAN_POINT('',(-58.84509363438,-23.6002931209,142.4581730861)
  );
#67 = CARTESIAN_POINT('',(-102.9171851931,-76.20398488,143.57720084353)
  );
#68 = CARTESIAN_POINT('',(-105.2431440637,-5.00043878267,136.45459742701
    ));
#69 = CARTESIAN_POINT('',(-132.,-5.236166806685,138.13083278484));
#70 = CARTESIAN_POINT('',(-40.,-47.48251526511,129.00000000025));
#71 = CARTESIAN_POINT('',(-58.84509363438,-26.75147010818,
    132.31981939762));
#72 = CARTESIAN_POINT('',(-102.9171851931,-86.37895355844,
    122.77162850611));
#73 = CARTESIAN_POINT('',(-105.2431440637,-5.668111321155,
    132.94086540368));
#74 = CARTESIAN_POINT('',(-132.,-5.935314408139,136.00000000005));
#75 = CARTESIAN_POINT('',(-40.,-41.88933445347,115.01640984896));
#76 = CARTESIAN_POINT('',(-58.84509363438,-23.60029312106,
    122.18146570674));
#77 = CARTESIAN_POINT('',(-102.9171851931,-76.20398487988,
    101.96605616917));
#78 = CARTESIAN_POINT('',(-105.2431440637,-5.000438782717,
    129.42713337914));
#79 = CARTESIAN_POINT('',(-132.,-5.236166806685,133.86916721506));
#80 = CARTESIAN_POINT('',(-40.,-27.03282113259,104.87148591915));
#81 = CARTESIAN_POINT('',(-58.84509363438,-15.23018952202,
    114.82621388408));
#82 = CARTESIAN_POINT('',(-102.9171851931,-49.17740326379,
    86.871867451317));
#83 = CARTESIAN_POINT('',(-105.2431440637,-3.226978154981,
    126.87796369511));
#84 = CARTESIAN_POINT('',(-132.,-3.379102641575,132.32327404483));
#85 = CARTESIAN_POINT('',(-40.,-7.571539671831,100.84115048742));
#86 = CARTESIAN_POINT('',(-58.84509363438,-4.265776908482,
    111.90414840147));
#87 = CARTESIAN_POINT('',(-102.9171851931,-13.77394752606,
    80.875307593999));
#88 = CARTESIAN_POINT('',(-105.2431440637,-0.903834379619,
    125.86523960028));
#89 = CARTESIAN_POINT('',(-132.,-0.946442458979,131.70912769331));
#90 = CARTESIAN_POINT('',(-40.,11.176212451232,103.11079372207));
#91 = CARTESIAN_POINT('',(-58.84509363438,6.296635964197,113.54968045858
    ));
#92 = CARTESIAN_POINT('',(-102.9171851931,20.331474246593,
    84.252210519799));
#93 = CARTESIAN_POINT('',(-105.2431440637,1.334133542939,126.43554508213
    ));
#94 = CARTESIAN_POINT('',(-132.,1.397026556404,132.05497809098));
#95 = CARTESIAN_POINT('',(-40.,25.058740441568,110.15044059951));
#96 = CARTESIAN_POINT('',(-58.84509363438,14.117999901661,
    118.65355071808));
#97 = CARTESIAN_POINT('',(-102.9171851931,45.586207148959,
    94.726193292438));
#98 = CARTESIAN_POINT('',(-105.2431440637,2.991327009371,128.20443507408
    ));
#99 = CARTESIAN_POINT('',(-132.,3.132342555196,133.12768618659));
#100 = CARTESIAN_POINT('',(-40.,32.000000000012,119.57522203923));
#101 = CARTESIAN_POINT('',(-58.84509363438,18.028679370548,
    125.48668631871));
#102 = CARTESIAN_POINT('',(-102.9171851931,58.21356552886,
    108.74891348739));
#103 = CARTESIAN_POINT('',(-105.2431440637,3.819923212928,
    130.57265067582));
#104 = CARTESIAN_POINT('',(-132.,4.000000000001,134.56384335836));
#105 = CARTESIAN_POINT('',(-40.,32.,129.));
#106 = CARTESIAN_POINT('',(-58.84509363438,18.028679370556,
    132.31981939699));
#107 = CARTESIAN_POINT('',(-102.9171851931,58.213565528846,
    122.77162850623));
#108 = CARTESIAN_POINT('',(-105.2431440637,3.819923212929,
    132.94086540336));
#109 = CARTESIAN_POINT('',(-132.,4.,136.));
#110 = DEFINITIONAL_REPRESENTATION('',(#111),#115);
#111 = LINE('',#112,#113);
#112 = CARTESIAN_POINT('',(0.,0.));
#113 = VECTOR('',#114,1.);
#114 = DIRECTION('',(0.,1.));
#115 = ( GEOMETRIC_REPRESENTATION_CONTEXT(2) 
PARAMETRIC_REPRESENTATION_CONTEXT() REPRESENTATION_CONTEXT('2D SPACE',''
  ) );
#116 = PCURVE('',#34,#117);
#117 = DEFINITIONAL_REPRESENTATION('',(#118),#122);
#118 = LINE('',#119,#120);
#119 = CARTESIAN_POINT('',(1.,0.));
#120 = VECTOR('',#121,1.);
#121 = DIRECTION('',(0.,1.));
#122 = ( GEOMETRIC_REPRESENTATION_CONTEXT(2) 
PARAMETRIC_REPRESENTATION_CONTEXT() REPRESENTATION_CONTEXT('2D SPACE',''
  ) );
#123 = ORIENTED_EDGE('',*,*,#124,.T.);
#124 = EDGE_CURVE('',#22,#22,#125,.T.);
#125 = SURFACE_CURVE('',#126,(#142,#149),.PCURVE_S1.);
#126 = B_SPLINE_CURVE_WITH_KNOTS('',14,(#127,#128,#129,#130,#131,#132,
    #133,#134,#135,#136,#137,#138,#139,#140,#141),.UNSPECIFIED.,.T.,.F.,
  (15,15),(0.,1.),.PIECEWISE_BEZIER_KNOTS.);
#127 = CARTESIAN_POINT('',(-40.,32.,129.));
#128 = CARTESIAN_POINT('',(-40.,32.000000000012,138.42477796077));
#129 = CARTESIAN_POINT('',(-40.,25.058740441568,147.84955940044));
#130 = CARTESIAN_POINT('',(-40.,11.176212451233,154.88920627803));
#131 = CARTESIAN_POINT('',(-40.,-7.571539671833,157.15884951235));
#132 = CARTESIAN_POINT('',(-40.,-27.03282113259,153.12851408119));
#133 = CARTESIAN_POINT('',(-40.,-41.88933445347,142.98359015057));
#134 = CARTESIAN_POINT('',(-40.,-47.48251526511,129.00000000025));
#135 = CARTESIAN_POINT('',(-40.,-41.88933445347,115.01640984896));
#136 = CARTESIAN_POINT('',(-40.,-27.03282113259,104.87148591915));
#137 = CARTESIAN_POINT('',(-40.,-7.571539671831,100.84115048742));
#138 = CARTESIAN_POINT('',(-40.,11.176212451232,103.11079372207));
#139 = CARTESIAN_POINT('',(-40.,25.058740441568,110.15044059951));
#140 = CARTESIAN_POINT('',(-40.,32.000000000012,119.57522203923));
#141 = CARTESIAN_POINT('',(-40.,32.,129.));
#142 = PCURVE('',#34,#143);
#143 = DEFINITIONAL_REPRESENTATION('',(#144),#148);
#144 = LINE('',#145,#146);
#145 = CARTESIAN_POINT('',(0.,0.));
#146 = VECTOR('',#147,1.);
#147 = DIRECTION('',(1.,0.));
#148 = ( GEOMETRIC_REPRESENTATION_CONTEXT(2) 
PARAMETRIC_REPRESENTATION_CONTEXT() REPRESENTATION_CONTEXT('2D SPACE',''
  ) );
#149 = PCURVE('',#150,#155);
#150 = PLANE('',#151);
#151 = AXIS2_PLACEMENT_3D('',#152,#153,#154);
#152 = CARTESIAN_POINT('',(-40.,32.,129.));
#153 = DIRECTION('',(-1.,0.,0.));
#154 = DIRECTION('',(0.,-1.,4.440892098795E-16));
#155 = DEFINITIONAL_REPRESENTATION('',(#156),#172);
#156 = B_SPLINE_CURVE_WITH_KNOTS('',14,(#157,#158,#159,#160,#161,#162,
    #163,#164,#165,#166,#167,#168,#169,#170,#171),.UNSPECIFIED.,.F.,.F.,
  (15,15),(0.,1.),.PIECEWISE_BEZIER_KNOTS.);
#157 = CARTESIAN_POINT('',(0.,0.));
#158 = CARTESIAN_POINT('',(-1.180566755465E-11,9.424777960775));
#159 = CARTESIAN_POINT('',(6.941259558432,18.849559400441));
#160 = CARTESIAN_POINT('',(20.823787548767,25.889206278031));
#161 = CARTESIAN_POINT('',(39.571539671833,28.158849512358));
#162 = CARTESIAN_POINT('',(59.032821132595,24.128514081196));
#163 = CARTESIAN_POINT('',(73.889334453479,13.983590150575));
#164 = CARTESIAN_POINT('',(79.482515265116,2.519016106817E-10));
#165 = CARTESIAN_POINT('',(73.889334453476,-13.98359015103));
#166 = CARTESIAN_POINT('',(59.032821132598,-24.12851408084));
#167 = CARTESIAN_POINT('',(39.571539671831,-28.15884951258));
#168 = CARTESIAN_POINT('',(20.823787548768,-25.88920627792));
#169 = CARTESIAN_POINT('',(6.941259558432,-18.84955940048));
#170 = CARTESIAN_POINT('',(-1.172040242636E-11,-9.424777960766));
#171 = CARTESIAN_POINT('',(3.552713678801E-15,2.84217094304E-14));
#172 = ( GEOMETRIC_REPRESENTATION_CONTEXT(2) 
PARAMETRIC_REPRESENTATION_CONTEXT() REPRESENTATION_CONTEXT('2D SPACE',''
  ) );
#173 = ORIENTED_EDGE('',*,*,#21,.T.);
#174 = ORIENTED_EDGE('',*,*,#175,.T.);
#175 = EDGE_CURVE('',#24,#176,#178,.T.);
#176 = VERTEX_POINT('',#177);
#177 = CARTESIAN_POINT('',(-53.3,28.938774719586,128.));
#178 = SURFACE_CURVE('',#179,(#190,#204),.PCURVE_S1.);
#179 = B_SPLINE_CURVE_WITH_KNOTS('',5,(#180,#181,#182,#183,#184,#185,
    #186,#187,#188,#189),.UNSPECIFIED.,.F.,.F.,(6,4,6),(0.,0.49356144799
    ,1.),.UNSPECIFIED.);
#180 = CARTESIAN_POINT('',(-54.59245444538,29.112912230926,
    129.65042619371));
#181 = CARTESIAN_POINT('',(-54.37561413052,29.099026991084,
    129.59688105082));
#182 = CARTESIAN_POINT('',(-54.16737595391,29.086284933882,
    129.50766452748));
#183 = CARTESIAN_POINT('',(-53.97585050059,29.074379596387,
    129.38472234717));
#184 = CARTESIAN_POINT('',(-53.80803753935,29.061635052583,
    129.23251221547));
#185 = CARTESIAN_POINT('',(-53.52655467489,29.031512832165,
    128.87832536136));
#186 = CARTESIAN_POINT('',(-53.41429898356,29.014024234351,
    128.67500852688));
#187 = CARTESIAN_POINT('',(-53.33795535766,28.992893641176,
    128.45509292366));
#188 = CARTESIAN_POINT('',(-53.3,28.967398523937,128.22715749443));
#189 = CARTESIAN_POINT('',(-53.3,28.938774719586,128.));
#190 = PCURVE('',#34,#191);
#191 = DEFINITIONAL_REPRESENTATION('',(#192),#203);
#192 = B_SPLINE_CURVE_WITH_KNOTS('',5,(#193,#194,#195,#196,#197,#198,
    #199,#200,#201,#202),.UNSPECIFIED.,.F.,.F.,(6,4,6),(0.,0.49356144799
    ,1.),.UNSPECIFIED.);
#193 = CARTESIAN_POINT('',(1.,0.156834819313));
#194 = CARTESIAN_POINT('',(0.999529852368,0.154772510745));
#195 = CARTESIAN_POINT('',(0.998774720562,0.152787474142));
#196 = CARTESIAN_POINT('',(0.99775140368,0.150957291334));
#197 = CARTESIAN_POINT('',(0.99649618176,0.149350588813));
#198 = CARTESIAN_POINT('',(0.993591333092,0.14665202029));
#199 = CARTESIAN_POINT('',(0.991931084152,0.145573583061));
#200 = CARTESIAN_POINT('',(0.990140630076,0.144839082701));
#201 = CARTESIAN_POINT('',(0.98828803687,0.144473954131));
#202 = CARTESIAN_POINT('',(0.986444245347,0.144473954131));
#203 = ( GEOMETRIC_REPRESENTATION_CONTEXT(2) 
PARAMETRIC_REPRESENTATION_CONTEXT() REPRESENTATION_CONTEXT('2D SPACE',''
  ) );
#204 = PCURVE('',#205,#210);
#205 = CYLINDRICAL_SURFACE('',#206,1.7);
#206 = AXIS2_PLACEMENT_3D('',#207,#208,#209);
#207 = CARTESIAN_POINT('',(-55.,25.,128.));
#208 = DIRECTION('',(0.,-1.,0.));
#209 = DIRECTION('',(1.,0.,0.));
#210 = DEFINITIONAL_REPRESENTATION('',(#211),#222);
#211 = B_SPLINE_CURVE_WITH_KNOTS('',5,(#212,#213,#214,#215,#216,#217,
    #218,#219,#220,#221),.UNSPECIFIED.,.F.,.F.,(6,4,6),(0.,0.49356144799
    ,1.),.UNSPECIFIED.);
#212 = CARTESIAN_POINT('',(1.328705835441,-4.112912230926));
#213 = CARTESIAN_POINT('',(1.197321399299,-4.099026991084));
#214 = CARTESIAN_POINT('',(1.065817524827,-4.086284933882));
#215 = CARTESIAN_POINT('',(0.934382372842,-4.074379596387));
#216 = CARTESIAN_POINT('',(0.802869442048,-4.061635052583));
#217 = CARTESIAN_POINT('',(0.53674193234,-4.031512832165));
#218 = CARTESIAN_POINT('',(0.402027818019,-4.014024234351));
#219 = CARTESIAN_POINT('',(0.267704858817,-3.992893641176));
#220 = CARTESIAN_POINT('',(0.133622055549,-3.967398523937));
#221 = CARTESIAN_POINT('',(0.,-3.938774719586));
#222 = ( GEOMETRIC_REPRESENTATION_CONTEXT(2) 
PARAMETRIC_REPRESENTATION_CONTEXT() REPRESENTATION_CONTEXT('2D SPACE',''
  ) );
#223 = ORIENTED_EDGE('',*,*,#224,.T.);
#224 = EDGE_CURVE('',#176,#225,#227,.T.);
#225 = VERTEX_POINT('',#226);
#226 = CARTESIAN_POINT('',(-55.48336484745,29.175862697338,129.629833864
    ));
#227 = SURFACE_CURVE('',#228,(#273,#321),.PCURVE_S1.);
#228 = B_SPLINE_CURVE_WITH_KNOTS('',8,(#229,#230,#231,#232,#233,#234,
    #235,#236,#237,#238,#239,#240,#241,#242,#243,#244,#245,#246,#247,
    #248,#249,#250,#251,#252,#253,#254,#255,#256,#257,#258,#259,#260,
    #261,#262,#263,#264,#265,#266,#267,#268,#269,#270,#271,#272),
  .UNSPECIFIED.,.F.,.F.,(9,7,7,7,7,7,9),(0.,9.055417474372E-02,
    0.313771163126,0.426572866996,0.693654500857,0.830827295352,1.),
  .UNSPECIFIED.);
#229 = CARTESIAN_POINT('',(-53.3,28.938774719586,128.));
#230 = CARTESIAN_POINT('',(-53.3,28.928059058305,127.91496089276));
#231 = CARTESIAN_POINT('',(-53.30486161286,28.916939077735,
    127.83000416631));
#232 = CARTESIAN_POINT('',(-53.31456835461,28.905456438303,
    127.74544346459));
#233 = CARTESIAN_POINT('',(-53.32908122103,28.893666526641,
    127.66158669998));
#234 = CARTESIAN_POINT('',(-53.34834059288,28.881638069597,
    127.57873595393));
#235 = CARTESIAN_POINT('',(-53.37226718106,28.869452183397,
    127.49718737477));
#236 = CARTESIAN_POINT('',(-53.40076201164,28.857200857965,
    127.41723107266));
#237 = CARTESIAN_POINT('',(-53.51491137296,28.814872354006,
    127.14668284507));
#238 = CARTESIAN_POINT('',(-53.62333146811,28.784906662517,
    126.9651808783));
#239 = CARTESIAN_POINT('',(-53.75729348282,28.756633620972,
    126.79920947469));
#240 = CARTESIAN_POINT('',(-53.91427871126,28.731905772056,
    126.65281683001));
#241 = CARTESIAN_POINT('',(-54.09111340741,28.712693127713,
    126.52968820982));
#242 = CARTESIAN_POINT('',(-54.28386096092,28.700759843726,
    126.43294684288));
#243 = CARTESIAN_POINT('',(-54.487730101,28.697300623242,126.36517129784
    ));
#244 = CARTESIAN_POINT('',(-54.80223497991,28.705091802198,
    126.30813634617));
#245 = CARTESIAN_POINT('',(-54.90913054454,28.709913004001,
    126.29661765152));
#246 = CARTESIAN_POINT('',(-55.01658111245,28.716963100805,
    126.29284729241));
#247 = CARTESIAN_POINT('',(-55.12385650467,28.726202641752,
    126.29682635967));
#248 = CARTESIAN_POINT('',(-55.23026158121,28.737535520873,
    126.30846315755));
#249 = CARTESIAN_POINT('',(-55.33513873614,28.750816222493,
    126.32759130459));
#250 = CARTESIAN_POINT('',(-55.43786872923,28.765858319025,
    126.35397945463));
#251 = CARTESIAN_POINT('',(-55.7746434389,28.821714814457,
    126.46630327801));
#252 = CARTESIAN_POINT('',(-55.99579665764,28.86958633516,
    126.58421336032));
#253 = CARTESIAN_POINT('',(-56.19485087234,28.923320515186,
    126.73735390002));
#254 = CARTESIAN_POINT('',(-56.3664556297,28.979501793182,
    126.92126764576));
#255 = CARTESIAN_POINT('',(-56.50585688332,29.034565275416,
    127.1310390356));
#256 = CARTESIAN_POINT('',(-56.60899907293,29.085216881364,
    127.36104469374));
#257 = CARTESIAN_POINT('',(-56.67233184971,29.128820188195,
    127.60483665977));
#258 = CARTESIAN_POINT('',(-56.70478320029,29.18170885637,
    127.98289779644));
#259 = CARTESIAN_POINT('',(-56.70473166273,29.197358696154,
    128.11266407408));
#260 = CARTESIAN_POINT('',(-56.69336458257,29.210472267486,
    128.24269493287));
#261 = CARTESIAN_POINT('',(-56.67059431476,29.220919121091,
    128.3717539751));
#262 = CARTESIAN_POINT('',(-56.63650887264,29.228671282755,
    128.49860020326));
#263 = CARTESIAN_POINT('',(-56.59138271334,29.233796406935,
    128.62200293161));
#264 = CARTESIAN_POINT('',(-56.5356875233,29.236450930367,
    128.74075669781));
#265 = CARTESIAN_POINT('',(-56.38921881239,29.237394034763,
    128.99298237048));
#266 = CARTESIAN_POINT('',(-56.29322866683,29.23451751165,
    129.12354856338));
#267 = CARTESIAN_POINT('',(-56.18333391366,29.228672250446,
    129.2433067377));
#268 = CARTESIAN_POINT('',(-56.06102189166,29.220442512797,
    129.35054446933));
#269 = CARTESIAN_POINT('',(-55.92797514242,29.210469757736,
    129.44384358408));
#270 = CARTESIAN_POINT('',(-55.78601960078,29.199374336937,
    129.52204170197));
#271 = CARTESIAN_POINT('',(-55.63711176511,29.187697355366,
    129.58423666723));
#272 = CARTESIAN_POINT('',(-55.48336484745,29.175862697338,129.629833864
    ));
#273 = PCURVE('',#34,#274);
#274 = DEFINITIONAL_REPRESENTATION('',(#275),#320);
#275 = B_SPLINE_CURVE_WITH_KNOTS('',8,(#276,#277,#278,#279,#280,#281,
    #282,#283,#284,#285,#286,#287,#288,#289,#290,#291,#292,#293,#294,
    #295,#296,#297,#298,#299,#300,#301,#302,#303,#304,#305,#306,#307,
    #308,#309,#310,#311,#312,#313,#314,#315,#316,#317,#318,#319),
  .UNSPECIFIED.,.F.,.F.,(9,7,7,7,7,7,9),(0.,9.055417474372E-02,
    0.313771163126,0.426572866996,0.693654500857,0.830827295352,1.),
  .UNSPECIFIED.);
#276 = CARTESIAN_POINT('',(0.986444245347,0.144473954131));
#277 = CARTESIAN_POINT('',(0.985754000081,0.144473954131));
#278 = CARTESIAN_POINT('',(0.985064741831,0.144520724124));
#279 = CARTESIAN_POINT('',(0.98437899781,0.144614105549));
#280 = CARTESIAN_POINT('',(0.98369925809,0.144753710901));
#281 = CARTESIAN_POINT('',(0.98302797666,0.144938942381));
#282 = CARTESIAN_POINT('',(0.98236757139,0.145169002024));
#283 = CARTESIAN_POINT('',(0.981720422901,0.145442893306));
#284 = CARTESIAN_POINT('',(0.979532093538,0.146539641664));
#285 = CARTESIAN_POINT('',(0.978066578583,0.147580658791));
#286 = CARTESIAN_POINT('',(0.976729929474,0.148865605869));
#287 = CARTESIAN_POINT('',(0.975555943476,0.15036922095));
#288 = CARTESIAN_POINT('',(0.974575746492,0.152059893175));
#289 = CARTESIAN_POINT('',(0.973815776554,0.153898954071));
#290 = CARTESIAN_POINT('',(0.973297289097,0.155840068916));
#291 = CARTESIAN_POINT('',(0.972890337844,0.158828721331));
#292 = CARTESIAN_POINT('',(0.972817063256,0.159843549005));
#293 = CARTESIAN_POINT('',(0.972808005357,0.160862656363));
#294 = CARTESIAN_POINT('',(0.972863019701,0.161879122383));
#295 = CARTESIAN_POINT('',(0.972981159061,0.162886395258));
#296 = CARTESIAN_POINT('',(0.973160828449,0.163878310375));
#297 = CARTESIAN_POINT('',(0.973399876043,0.164849091369));
#298 = CARTESIAN_POINT('',(0.974395855685,0.168029026831));
#299 = CARTESIAN_POINT('',(0.975412985133,0.170112903506));
#300 = CARTESIAN_POINT('',(0.976713367194,0.171984991573));
#301 = CARTESIAN_POINT('',(0.978256955631,0.17359642241));
#302 = CARTESIAN_POINT('',(0.980000401103,0.174903963474));
#303 = CARTESIAN_POINT('',(0.981895744948,0.175870749231));
#304 = CARTESIAN_POINT('',(0.98388956648,0.176464257185));
#305 = CARTESIAN_POINT('',(0.986960866106,0.176768352008));
#306 = CARTESIAN_POINT('',(0.988011554746,0.176767859714));
#307 = CARTESIAN_POINT('',(0.989060924516,0.176661354879));
#308 = CARTESIAN_POINT('',(0.990099081773,0.176448002256));
#309 = CARTESIAN_POINT('',(0.991116185507,0.176128570989));
#310 = CARTESIAN_POINT('',(0.99210254848,0.175705540366));
#311 = CARTESIAN_POINT('',(0.993048738367,0.17518320556));
#312 = CARTESIAN_POINT('',(0.995051859268,0.173808794426));
#313 = CARTESIAN_POINT('',(0.996084113299,0.172907618903));
#314 = CARTESIAN_POINT('',(0.997026193364,0.171875236646));
#315 = CARTESIAN_POINT('',(0.997864908146,0.170725260187));
#316 = CARTESIAN_POINT('',(0.998589413438,0.169473120631));
#317 = CARTESIAN_POINT('',(0.999190876382,0.168135623661));
#318 = CARTESIAN_POINT('',(0.999662513141,0.166730875651));
#319 = CARTESIAN_POINT('',(1.,0.165278579893));
#320 = ( GEOMETRIC_REPRESENTATION_CONTEXT(2) 
PARAMETRIC_REPRESENTATION_CONTEXT() REPRESENTATION_CONTEXT('2D SPACE',''
  ) );
#321 = PCURVE('',#205,#322);
#322 = DEFINITIONAL_REPRESENTATION('',(#323),#368);
#323 = B_SPLINE_CURVE_WITH_KNOTS('',8,(#324,#325,#326,#327,#328,#329,
    #330,#331,#332,#333,#334,#335,#336,#337,#338,#339,#340,#341,#342,
    #343,#344,#345,#346,#347,#348,#349,#350,#351,#352,#353,#354,#355,
    #356,#357,#358,#359,#360,#361,#362,#363,#364,#365,#366,#367),
  .UNSPECIFIED.,.F.,.F.,(9,7,7,7,7,7,9),(0.,9.055417474372E-02,
    0.313771163126,0.426572866996,0.693654500857,0.830827295352,1.),
  .UNSPECIFIED.);
#324 = CARTESIAN_POINT('',(6.28318530718,-3.938774719586));
#325 = CARTESIAN_POINT('',(6.233162302924,-3.928059058305));
#326 = CARTESIAN_POINT('',(6.183187766608,-3.916939077735));
#327 = CARTESIAN_POINT('',(6.133255411037,-3.905456438303));
#328 = CARTESIAN_POINT('',(6.083357258745,-3.893666526641));
#329 = CARTESIAN_POINT('',(6.033484334406,-3.881638069597));
#330 = CARTESIAN_POINT('',(5.983627381419,-3.869452183397));
#331 = CARTESIAN_POINT('',(5.933777602679,-3.857200857965));
#332 = CARTESIAN_POINT('',(5.761046217176,-3.814872354006));
#333 = CARTESIAN_POINT('',(5.637885823964,-3.784906662517));
#334 = CARTESIAN_POINT('',(5.514471415865,-3.756633620972));
#335 = CARTESIAN_POINT('',(5.390705193412,-3.731905772056));
#336 = CARTESIAN_POINT('',(5.266488643068,-3.712693127713));
#337 = CARTESIAN_POINT('',(5.141801463359,-3.700759843726));
#338 = CARTESIAN_POINT('',(5.016689487611,-3.697300623242));
#339 = CARTESIAN_POINT('',(4.828669109779,-3.705091802198));
#340 = CARTESIAN_POINT('',(4.765589614324,-3.709913004001));
#341 = CARTESIAN_POINT('',(4.702618485609,-3.716963100805));
#342 = CARTESIAN_POINT('',(4.639798432437,-3.726202641752));
#343 = CARTESIAN_POINT('',(4.57715590242,-3.737535520873));
#344 = CARTESIAN_POINT('',(4.514708989656,-3.750816222493));
#345 = CARTESIAN_POINT('',(4.452472926771,-3.765858319025));
#346 = CARTESIAN_POINT('',(4.243642068267,-3.821714814457));
#347 = CARTESIAN_POINT('',(4.098290832419,-3.86958633516));
#348 = CARTESIAN_POINT('',(3.953887243778,-3.923320515186));
#349 = CARTESIAN_POINT('',(3.80984855664,-3.979501793182));
#350 = CARTESIAN_POINT('',(3.665634639745,-4.034565275416));
#351 = CARTESIAN_POINT('',(3.520753671097,-4.085216881364));
#352 = CARTESIAN_POINT('',(3.374686549048,-4.128820188195));
#353 = CARTESIAN_POINT('',(3.151479883274,-4.18170885637));
#354 = CARTESIAN_POINT('',(3.075427780976,-4.197358696154));
#355 = CARTESIAN_POINT('',(2.999130011267,-4.210472267486));
#356 = CARTESIAN_POINT('',(2.922629728114,-4.220919121091));
#357 = CARTESIAN_POINT('',(2.845961298812,-4.228671282755));
#358 = CARTESIAN_POINT('',(2.769165659837,-4.233796406935));
#359 = CARTESIAN_POINT('',(2.692305672706,-4.236450930367));
#360 = CARTESIAN_POINT('',(2.520735604466,-4.237394034763));
#361 = CARTESIAN_POINT('',(2.425964611064,-4.23451751165));
#362 = CARTESIAN_POINT('',(2.33128296498,-4.228672250446));
#363 = CARTESIAN_POINT('',(2.236713998156,-4.220442512797));
#364 = CARTESIAN_POINT('',(2.142236124609,-4.210469757736));
#365 = CARTESIAN_POINT('',(2.047817493034,-4.199374336937));
#366 = CARTESIAN_POINT('',(1.953439076517,-4.187697355366));
#367 = CARTESIAN_POINT('',(1.85910619937,-4.175862697338));
#368 = ( GEOMETRIC_REPRESENTATION_CONTEXT(2) 
PARAMETRIC_REPRESENTATION_CONTEXT() REPRESENTATION_CONTEXT('2D SPACE',''
  ) );
#369 = ORIENTED_EDGE('',*,*,#370,.T.);
#370 = EDGE_CURVE('',#225,#371,#373,.T.);
#371 = VERTEX_POINT('',#372);
#372 = CARTESIAN_POINT('',(-132.,4.,136.));
#373 = SEAM_CURVE('',#374,(#380,#387),.PCURVE_S1.);
#374 = ( BOUNDED_CURVE() B_SPLINE_CURVE(4,(#375,#376,#377,#378,#379),
.UNSPECIFIED.,.F.,.F.) B_SPLINE_CURVE_WITH_KNOTS((5,5),(0.,1.),
.PIECEWISE_BEZIER_KNOTS.) CURVE() GEOMETRIC_REPRESENTATION_ITEM() 
RATIONAL_B_SPLINE_CURVE((1.,1.,1.,1.,1.)) REPRESENTATION_ITEM('') );
#375 = CARTESIAN_POINT('',(-40.,32.,129.));
#376 = CARTESIAN_POINT('',(-58.84509363438,18.028679370556,
    132.31981939699));
#377 = CARTESIAN_POINT('',(-102.9171851931,58.213565528846,
    122.77162850624));
#378 = CARTESIAN_POINT('',(-105.2431440637,3.819923212929,
    132.94086540336));
#379 = CARTESIAN_POINT('',(-132.,4.,136.));
#380 = PCURVE('',#34,#381);
#381 = DEFINITIONAL_REPRESENTATION('',(#382),#386);
#382 = LINE('',#383,#384);
#383 = CARTESIAN_POINT('',(0.,0.));
#384 = VECTOR('',#385,1.);
#385 = DIRECTION('',(0.,1.));
#386 = ( GEOMETRIC_REPRESENTATION_CONTEXT(2) 
PARAMETRIC_REPRESENTATION_CONTEXT() REPRESENTATION_CONTEXT('2D SPACE',''
  ) );
#387 = PCURVE('',#34,#388);
#388 = DEFINITIONAL_REPRESENTATION('',(#389),#393);
#389 = LINE('',#390,#391);
#390 = CARTESIAN_POINT('',(1.,0.));
#391 = VECTOR('',#392,1.);
#392 = DIRECTION('',(0.,1.));
#393 = ( GEOMETRIC_REPRESENTATION_CONTEXT(2) 
PARAMETRIC_REPRESENTATION_CONTEXT() REPRESENTATION_CONTEXT('2D SPACE',''
  ) );
#394 = ORIENTED_EDGE('',*,*,#395,.F.);
#395 = EDGE_CURVE('',#371,#371,#396,.T.);
#396 = SURFACE_CURVE('',#397,(#413,#420),.PCURVE_S1.);
#397 = B_SPLINE_CURVE_WITH_KNOTS('',14,(#398,#399,#400,#401,#402,#403,
    #404,#405,#406,#407,#408,#409,#410,#411,#412),.UNSPECIFIED.,.T.,.F.,
  (15,15),(0.,1.),.PIECEWISE_BEZIER_KNOTS.);
#398 = CARTESIAN_POINT('',(-132.,4.,136.));
#399 = CARTESIAN_POINT('',(-132.,4.000000000001,137.43615664164));
#400 = CARTESIAN_POINT('',(-132.,3.132342555196,138.8723138134));
#401 = CARTESIAN_POINT('',(-132.,1.397026556404,139.94502190903));
#402 = CARTESIAN_POINT('',(-132.,-0.946442458979,140.29087230664));
#403 = CARTESIAN_POINT('',(-132.,-3.379102641574,139.67672595523));
#404 = CARTESIAN_POINT('',(-132.,-5.236166806685,138.13083278484));
#405 = CARTESIAN_POINT('',(-132.,-5.935314408139,136.00000000005));
#406 = CARTESIAN_POINT('',(-132.,-5.236166806685,133.86916721506));
#407 = CARTESIAN_POINT('',(-132.,-3.379102641575,132.32327404483));
#408 = CARTESIAN_POINT('',(-132.,-0.946442458979,131.70912769331));
#409 = CARTESIAN_POINT('',(-132.,1.397026556404,132.05497809098));
#410 = CARTESIAN_POINT('',(-132.,3.132342555196,133.12768618659));
#411 = CARTESIAN_POINT('',(-132.,4.000000000001,134.56384335836));
#412 = CARTESIAN_POINT('',(-132.,4.,136.));
#413 = PCURVE('',#34,#414);
#414 = DEFINITIONAL_REPRESENTATION('',(#415),#419);
#415 = LINE('',#416,#417);
#416 = CARTESIAN_POINT('',(0.,1.));
#417 = VECTOR('',#418,1.);
#418 = DIRECTION('',(1.,0.));
#419 = ( GEOMETRIC_REPRESENTATION_CONTEXT(2) 
PARAMETRIC_REPRESENTATION_CONTEXT() REPRESENTATION_CONTEXT('2D SPACE',''
  ) );
#420 = PCURVE('',#421,#426);
#421 = PLANE('',#422);
#422 = AXIS2_PLACEMENT_3D('',#423,#424,#425);
#423 = CARTESIAN_POINT('',(-132.,4.,136.));
#424 = DIRECTION('',(1.,0.,0.));
#425 = DIRECTION('',(0.,-1.,0.));
#426 = DEFINITIONAL_REPRESENTATION('',(#427),#443);
#427 = B_SPLINE_CURVE_WITH_KNOTS('',14,(#428,#429,#430,#431,#432,#433,
    #434,#435,#436,#437,#438,#439,#440,#441,#442),.UNSPECIFIED.,.F.,.F.,
  (15,15),(0.,1.),.PIECEWISE_BEZIER_KNOTS.);
#428 = CARTESIAN_POINT('',(0.,0.));
#429 = CARTESIAN_POINT('',(-1.476596622751E-12,-1.436156641642));
#430 = CARTESIAN_POINT('',(0.867657444804,-2.8723138134));
#431 = CARTESIAN_POINT('',(2.602973443596,-3.945021909035));
#432 = CARTESIAN_POINT('',(4.946442458979,-4.290872306641));
#433 = CARTESIAN_POINT('',(7.379102641574,-3.676725955237));
#434 = CARTESIAN_POINT('',(9.236166806685,-2.13083278484));
#435 = CARTESIAN_POINT('',(9.935314408139,-4.965272637492E-11));
#436 = CARTESIAN_POINT('',(9.236166806685,2.130832784931));
#437 = CARTESIAN_POINT('',(7.379102641575,3.676725955167));
#438 = CARTESIAN_POINT('',(4.946442458979,4.290872306684));
#439 = CARTESIAN_POINT('',(2.602973443596,3.945021909014));
#440 = CARTESIAN_POINT('',(0.867657444804,2.872313813408));
#441 = CARTESIAN_POINT('',(-1.464162124876E-12,1.43615664164));
#442 = CARTESIAN_POINT('',(4.440892098501E-16,0.));
#443 = ( GEOMETRIC_REPRESENTATION_CONTEXT(2) 
PARAMETRIC_REPRESENTATION_CONTEXT() REPRESENTATION_CONTEXT('2D SPACE',''
  ) );
#444 = ORIENTED_EDGE('',*,*,#370,.F.);
#445 = ORIENTED_EDGE('',*,*,#446,.F.);
#446 = EDGE_CURVE('',#24,#225,#447,.T.);
#447 = SURFACE_CURVE('',#448,(#456,#467),.PCURVE_S1.);
#448 = B_SPLINE_CURVE_WITH_KNOTS('',6,(#449,#450,#451,#452,#453,#454,
    #455),.UNSPECIFIED.,.F.,.F.,(7,7),(0.,1.),.PIECEWISE_BEZIER_KNOTS.);
#449 = CARTESIAN_POINT('',(-54.59245444538,29.112912230926,
    129.65042619371));
#450 = CARTESIAN_POINT('',(-54.73845928135,29.122261563253,
    129.68647968225));
#451 = CARTESIAN_POINT('',(-54.88827262283,29.132114961742,
    129.70702883222));
#452 = CARTESIAN_POINT('',(-55.03976445191,29.14256431878,
    129.71155652978));
#453 = CARTESIAN_POINT('',(-55.19081589148,29.153541713262,
    129.69998324067));
#454 = CARTESIAN_POINT('',(-55.33935357332,29.164777439777,
    129.67254373099));
#455 = CARTESIAN_POINT('',(-55.48336484745,29.175862697338,129.629833864
    ));
#456 = PCURVE('',#34,#457);
#457 = DEFINITIONAL_REPRESENTATION('',(#458),#466);
#458 = B_SPLINE_CURVE_WITH_KNOTS('',6,(#459,#460,#461,#462,#463,#464,
    #465),.UNSPECIFIED.,.F.,.F.,(7,7),(0.,1.),.PIECEWISE_BEZIER_KNOTS.);
#459 = CARTESIAN_POINT('',(0.,0.156834819313));
#460 = CARTESIAN_POINT('',(3.16563955882E-04,0.158223431132));
#461 = CARTESIAN_POINT('',(5.092762593149E-04,0.15964628547));
#462 = CARTESIAN_POINT('',(5.736840816038E-04,0.161082991479));
#463 = CARTESIAN_POINT('',(5.087969040696E-04,0.162513464904));
#464 = CARTESIAN_POINT('',(3.161163377206E-04,0.163918247174));
#465 = CARTESIAN_POINT('',(0.,0.165278579893));
#466 = ( GEOMETRIC_REPRESENTATION_CONTEXT(2) 
PARAMETRIC_REPRESENTATION_CONTEXT() REPRESENTATION_CONTEXT('2D SPACE',''
  ) );
#467 = PCURVE('',#205,#468);
#468 = DEFINITIONAL_REPRESENTATION('',(#469),#477);
#469 = B_SPLINE_CURVE_WITH_KNOTS('',6,(#470,#471,#472,#473,#474,#475,
    #476),.UNSPECIFIED.,.F.,.F.,(7,7),(0.,1.),.PIECEWISE_BEZIER_KNOTS.);
#470 = CARTESIAN_POINT('',(1.328705835441,-4.112912230926));
#471 = CARTESIAN_POINT('',(1.417170764398,-4.122261563253));
#472 = CARTESIAN_POINT('',(1.505624049943,-4.132114961742));
#473 = CARTESIAN_POINT('',(1.594023946448,-4.14256431878));
#474 = CARTESIAN_POINT('',(1.682388782179,-4.153541713262));
#475 = CARTESIAN_POINT('',(1.770746718502,-4.164777439777));
#476 = CARTESIAN_POINT('',(1.85910619937,-4.175862697338));
#477 = ( GEOMETRIC_REPRESENTATION_CONTEXT(2) 
PARAMETRIC_REPRESENTATION_CONTEXT() REPRESENTATION_CONTEXT('2D SPACE',''
  ) );
#478 = ADVANCED_FACE('',(#479),#205,.F.);
#479 = FACE_BOUND('',#480,.F.);
#480 = EDGE_LOOP('',(#481,#609,#630,#631,#632,#633,#634,#759));
#481 = ORIENTED_EDGE('',*,*,#482,.T.);
#482 = EDGE_CURVE('',#483,#485,#487,.T.);
#483 = VERTEX_POINT('',#484);
#484 = CARTESIAN_POINT('',(-54.64924431114,26.773455980054,
    129.66342130764));
#485 = VERTEX_POINT('',#486);
#486 = CARTESIAN_POINT('',(-53.3,26.57619575179,128.));
#487 = SURFACE_CURVE('',#488,(#501,#517),.PCURVE_S1.);
#488 = B_SPLINE_CURVE_WITH_KNOTS('',6,(#489,#490,#491,#492,#493,#494,
    #495,#496,#497,#498,#499,#500),.UNSPECIFIED.,.F.,.F.,(7,5,7),(0.,
    0.528936181312,1.),.UNSPECIFIED.);
#489 = CARTESIAN_POINT('',(-54.64924431114,26.773455980054,
    129.66342130764));
#490 = CARTESIAN_POINT('',(-54.4487634264,26.760950173937,
    129.62114710416));
#491 = CARTESIAN_POINT('',(-54.25421676362,26.749310116273,
    129.5498393646));
#492 = CARTESIAN_POINT('',(-54.07112654972,26.73829628547,
    129.45056523986));
#493 = CARTESIAN_POINT('',(-53.90437612629,26.726964573746,
    129.32580991314));
#494 = CARTESIAN_POINT('',(-53.75829625402,26.713988473047,
    129.1789983035));
#495 = CARTESIAN_POINT('',(-53.52736912001,26.684601451362,
    128.86865613824));
#496 = CARTESIAN_POINT('',(-53.43748299069,26.668710186075,
    128.70859449483));
#497 = CARTESIAN_POINT('',(-53.36887002575,26.650113935291,
    128.53798623261));
#498 = CARTESIAN_POINT('',(-53.32284962817,26.628351218238,
    128.36051095759));
#499 = CARTESIAN_POINT('',(-53.3,26.60350550457,128.17991712217));
#500 = CARTESIAN_POINT('',(-53.3,26.57619575179,128.));
#501 = PCURVE('',#205,#502);
#502 = DEFINITIONAL_REPRESENTATION('',(#503),#516);
#503 = B_SPLINE_CURVE_WITH_KNOTS('',6,(#504,#505,#506,#507,#508,#509,
    #510,#511,#512,#513,#514,#515),.UNSPECIFIED.,.F.,.F.,(7,5,7),(0.,
    0.528936181312,1.),.UNSPECIFIED.);
#504 = CARTESIAN_POINT('',(1.362976759099,-1.773455980054));
#505 = CARTESIAN_POINT('',(1.24245354359,-1.760950173937));
#506 = CARTESIAN_POINT('',(1.121823885153,-1.749310116273));
#507 = CARTESIAN_POINT('',(1.001232587776,-1.73829628547));
#508 = CARTESIAN_POINT('',(0.880654995683,-1.726964573746));
#509 = CARTESIAN_POINT('',(0.760076311367,-1.713988473047));
#510 = CARTESIAN_POINT('',(0.532527616436,-1.684601451362));
#511 = CARTESIAN_POINT('',(0.425427874992,-1.668710186075));
#512 = CARTESIAN_POINT('',(0.318599415696,-1.650113935291));
#513 = CARTESIAN_POINT('',(0.212064449706,-1.628351218238));
#514 = CARTESIAN_POINT('',(0.105833601282,-1.60350550457));
#515 = CARTESIAN_POINT('',(0.,-1.57619575179));
#516 = ( GEOMETRIC_REPRESENTATION_CONTEXT(2) 
PARAMETRIC_REPRESENTATION_CONTEXT() REPRESENTATION_CONTEXT('2D SPACE',''
  ) );
#517 = PCURVE('',#518,#594);
#518 = ( BOUNDED_SURFACE() B_SPLINE_SURFACE(14,4,(
    (#519,#520,#521,#522,#523)
    ,(#524,#525,#526,#527,#528)
    ,(#529,#530,#531,#532,#533)
    ,(#534,#535,#536,#537,#538)
    ,(#539,#540,#541,#542,#543)
    ,(#544,#545,#546,#547,#548)
    ,(#549,#550,#551,#552,#553)
    ,(#554,#555,#556,#557,#558)
    ,(#559,#560,#561,#562,#563)
    ,(#564,#565,#566,#567,#568)
    ,(#569,#570,#571,#572,#573)
    ,(#574,#575,#576,#577,#578)
    ,(#579,#580,#581,#582,#583)
    ,(#584,#585,#586,#587,#588)
    ,(#589,#590,#591,#592,#593
)),.UNSPECIFIED.,.T.,.F.,.F.) B_SPLINE_SURFACE_WITH_KNOTS((15,15),(5,5),
  (0.,1.),(0.,1.),.PIECEWISE_BEZIER_KNOTS.) 
GEOMETRIC_REPRESENTATION_ITEM() RATIONAL_B_SPLINE_SURFACE((
    (1.,1.,1.,1.,1.)
    ,(1.,1.,1.,1.,1.)
    ,(1.,1.,1.,1.,1.)
    ,(1.,1.,1.,1.,1.)
    ,(1.,1.,1.,1.,1.)
    ,(1.,1.,1.,1.,1.)
    ,(1.,1.,1.,1.,1.)
    ,(1.,1.,1.,1.,1.)
    ,(1.,1.,1.,1.,1.)
    ,(1.,1.,1.,1.,1.)
    ,(1.,1.,1.,1.,1.)
    ,(1.,1.,1.,1.,1.)
    ,(1.,1.,1.,1.,1.)
    ,(1.,1.,1.,1.,1.)
,(1.,1.,1.,1.,1.))) REPRESENTATION_ITEM('') SURFACE() );
#519 = CARTESIAN_POINT('',(-40.,29.6,129.));
#520 = CARTESIAN_POINT('',(-59.30872266611,15.680757904923,
    132.46781404824));
#521 = CARTESIAN_POINT('',(-104.5233926779,56.679918023799,
    122.19024831154));
#522 = CARTESIAN_POINT('',(-105.5936560158,-0.933064609687,
    133.84212132258));
#523 = CARTESIAN_POINT('',(-134.,0.8,136.));
#524 = CARTESIAN_POINT('',(-40.,29.600000000006,137.34766047954));
#525 = CARTESIAN_POINT('',(-59.30872266611,15.680757904931,
    138.17014293182));
#526 = CARTESIAN_POINT('',(-104.5233926779,56.679918023811,
    135.43405464289));
#527 = CARTESIAN_POINT('',(-105.5936560158,-0.933064609692,
    134.39727695256));
#528 = CARTESIAN_POINT('',(-134.,0.8,136.31415926535));
#529 = CARTESIAN_POINT('',(-40.,23.179334908473,145.69532404038));
#530 = CARTESIAN_POINT('',(-59.30872266611,12.27937666141,
    143.87247392024));
#531 = CARTESIAN_POINT('',(-104.5233926779,44.385229015227,
    148.67786586282));
#532 = CARTESIAN_POINT('',(-105.5936560158,-0.730668406063,
    134.95243278746));
#533 = CARTESIAN_POINT('',(-134.,0.626467541829,136.62831864668));
#534 = CARTESIAN_POINT('',(-40.,10.337996517327,151.93043984626));
#535 = CARTESIAN_POINT('',(-59.30872266611,5.476606420332,
    148.13171290577));
#536 = CARTESIAN_POINT('',(-104.5233926779,19.7958432563,158.57005857826
    ));
#537 = CARTESIAN_POINT('',(-105.5936560158,-0.325886638531,
    135.36709503345));
#538 = CARTESIAN_POINT('',(-134.,0.279412095758,136.86297354259));
#539 = CARTESIAN_POINT('',(-40.,-7.003674196313,153.94069528234));
#540 = CARTESIAN_POINT('',(-59.30872266611,-3.710225314801,
    149.50492851086));
#541 = CARTESIAN_POINT('',(-104.5233926779,-13.41109004099,
    161.75938734134));
#542 = CARTESIAN_POINT('',(-105.5936560158,0.220800038673,
    135.50078573947));
#543 = CARTESIAN_POINT('',(-134.,-0.189312545855,136.93862831708));
#544 = CARTESIAN_POINT('',(-40.,-25.00535954786,150.37096961481));
#545 = CARTESIAN_POINT('',(-59.30872266611,-13.24674193519,
    147.0664309425));
#546 = CARTESIAN_POINT('',(-104.5233926779,-47.88176993671,
    156.09591366366));
#547 = CARTESIAN_POINT('',(-105.5936560158,0.788168448439,
    135.26338349881));
#548 = CARTESIAN_POINT('',(-134.,-0.675765547603,136.80428380269));
#549 = CARTESIAN_POINT('',(-40.,-38.74763436917,141.38546556188));
#550 = CARTESIAN_POINT('',(-59.30872266611,-20.5267350179,
    140.92838790411));
#551 = CARTESIAN_POINT('',(-104.5233926779,-74.19644891769,
    141.8401499368));
#552 = CARTESIAN_POINT('',(-105.5936560158,1.221519659393,
    134.66580850461));
#553 = CARTESIAN_POINT('',(-134.,-1.047321559565,136.46611967169));
#554 = CARTESIAN_POINT('',(-40.,-43.92132662054,129.00000000028));
#555 = CARTESIAN_POINT('',(-59.30872266611,-23.2675932399,
    132.46781404828));
#556 = CARTESIAN_POINT('',(-104.5233926779,-84.10319885126,
    122.19024831218));
#557 = CARTESIAN_POINT('',(-105.5936560158,1.384392251331,
    133.84212132254));
#558 = CARTESIAN_POINT('',(-134.,-1.186959983695,136.));
#559 = CARTESIAN_POINT('',(-40.,-38.74763436918,116.6145344376));
#560 = CARTESIAN_POINT('',(-59.30872266611,-20.52673501799,
    124.00724019229));
#561 = CARTESIAN_POINT('',(-104.5233926779,-74.1964489176,
    102.54034668511));
#562 = CARTESIAN_POINT('',(-105.5936560158,1.221519659327,
    133.01843414061));
#563 = CARTESIAN_POINT('',(-134.,-1.047321559564,135.5338803283));
#564 = CARTESIAN_POINT('',(-40.,-25.00535954786,107.62903038557));
#565 = CARTESIAN_POINT('',(-59.30872266611,-13.24674193506,
    117.86919715405));
#566 = CARTESIAN_POINT('',(-104.5233926779,-47.88176993683,
    88.28458296029));
#567 = CARTESIAN_POINT('',(-105.5936560158,0.788168448533,
    132.42085914629));
#568 = CARTESIAN_POINT('',(-134.,-0.675765547604,135.1957161973));
#569 = CARTESIAN_POINT('',(-40.,-7.003674196317,104.0593047174));
#570 = CARTESIAN_POINT('',(-59.30872266611,-3.710225314913,
    115.43069958556));
#571 = CARTESIAN_POINT('',(-104.5233926779,-13.41109004088,
    82.62110928121));
#572 = CARTESIAN_POINT('',(-105.5936560158,0.220800038591,
    132.18345690571));
#573 = CARTESIAN_POINT('',(-134.,-0.189312545855,135.06137168291));
#574 = CARTESIAN_POINT('',(-40.,10.33799651733,106.06956015385));
#575 = CARTESIAN_POINT('',(-59.30872266611,5.476606420401,
    116.80391519074));
#576 = CARTESIAN_POINT('',(-104.5233926779,19.795843256234,
    85.810438045068));
#577 = CARTESIAN_POINT('',(-105.5936560158,-0.325886638481,
    132.31714761169));
#578 = CARTESIAN_POINT('',(-134.,0.279412095758,135.1370264574));
#579 = CARTESIAN_POINT('',(-40.,23.179334908472,112.30467595957));
#580 = CARTESIAN_POINT('',(-59.30872266611,12.27937666138,
    121.06315417622));
#581 = CARTESIAN_POINT('',(-104.5233926779,44.385229015256,
    95.702630760163));
#582 = CARTESIAN_POINT('',(-105.5936560158,-0.730668406083,
    132.7318098577));
#583 = CARTESIAN_POINT('',(-134.,0.626467541829,135.37168135331));
#584 = CARTESIAN_POINT('',(-40.,29.600000000006,120.65233952046));
#585 = CARTESIAN_POINT('',(-59.30872266611,15.680757904938,
    126.76548516466));
#586 = CARTESIAN_POINT('',(-104.5233926779,56.679918023804,
    108.9464419802));
#587 = CARTESIAN_POINT('',(-105.5936560158,-0.933064609687,
    133.28696569259));
#588 = CARTESIAN_POINT('',(-134.,0.8,135.68584073464));
#589 = CARTESIAN_POINT('',(-40.,29.6,129.));
#590 = CARTESIAN_POINT('',(-59.30872266611,15.680757904923,
    132.46781404824));
#591 = CARTESIAN_POINT('',(-104.5233926779,56.679918023799,
    122.19024831154));
#592 = CARTESIAN_POINT('',(-105.5936560158,-0.933064609687,
    133.84212132258));
#593 = CARTESIAN_POINT('',(-134.,0.8,136.));
#594 = DEFINITIONAL_REPRESENTATION('',(#595),#608);
#595 = B_SPLINE_CURVE_WITH_KNOTS('',6,(#596,#597,#598,#599,#600,#601,
    #602,#603,#604,#605,#606,#607),.UNSPECIFIED.,.F.,.F.,(7,5,7),(0.,
    0.528936181312,1.),.UNSPECIFIED.);
#596 = CARTESIAN_POINT('',(1.,0.154116779557));
#597 = CARTESIAN_POINT('',(0.999570144168,0.152247523675));
#598 = CARTESIAN_POINT('',(0.998876015342,0.150429996912));
#599 = CARTESIAN_POINT('',(0.9979282928,0.148715933375));
#600 = CARTESIAN_POINT('',(0.996750323764,0.147151795288));
#601 = CARTESIAN_POINT('',(0.99537351556,0.145779438806));
#602 = CARTESIAN_POINT('',(0.99247577708,0.143607547832));
#603 = CARTESIAN_POINT('',(0.99098599765,0.142760941006));
#604 = CARTESIAN_POINT('',(0.989401735373,0.142113956972));
#605 = CARTESIAN_POINT('',(0.987756243351,0.141679770706));
#606 = CARTESIAN_POINT('',(0.98608350069,0.141464193042));
#607 = CARTESIAN_POINT('',(0.984418323769,0.141464193042));
#608 = ( GEOMETRIC_REPRESENTATION_CONTEXT(2) 
PARAMETRIC_REPRESENTATION_CONTEXT() REPRESENTATION_CONTEXT('2D SPACE',''
  ) );
#609 = ORIENTED_EDGE('',*,*,#610,.T.);
#610 = EDGE_CURVE('',#485,#176,#611,.T.);
#611 = SEAM_CURVE('',#612,(#616,#623),.PCURVE_S1.);
#612 = LINE('',#613,#614);
#613 = CARTESIAN_POINT('',(-53.3,25.,128.));
#614 = VECTOR('',#615,1.);
#615 = DIRECTION('',(-0.,1.,-0.));
#616 = PCURVE('',#205,#617);
#617 = DEFINITIONAL_REPRESENTATION('',(#618),#622);
#618 = LINE('',#619,#620);
#619 = CARTESIAN_POINT('',(6.28318530718,0.));
#620 = VECTOR('',#621,1.);
#621 = DIRECTION('',(0.,-1.));
#622 = ( GEOMETRIC_REPRESENTATION_CONTEXT(2) 
PARAMETRIC_REPRESENTATION_CONTEXT() REPRESENTATION_CONTEXT('2D SPACE',''
  ) );
#623 = PCURVE('',#205,#624);
#624 = DEFINITIONAL_REPRESENTATION('',(#625),#629);
#625 = LINE('',#626,#627);
#626 = CARTESIAN_POINT('',(0.,0.));
#627 = VECTOR('',#628,1.);
#628 = DIRECTION('',(0.,-1.));
#629 = ( GEOMETRIC_REPRESENTATION_CONTEXT(2) 
PARAMETRIC_REPRESENTATION_CONTEXT() REPRESENTATION_CONTEXT('2D SPACE',''
  ) );
#630 = ORIENTED_EDGE('',*,*,#175,.F.);
#631 = ORIENTED_EDGE('',*,*,#446,.T.);
#632 = ORIENTED_EDGE('',*,*,#224,.F.);
#633 = ORIENTED_EDGE('',*,*,#610,.F.);
#634 = ORIENTED_EDGE('',*,*,#635,.T.);
#635 = EDGE_CURVE('',#485,#636,#638,.T.);
#636 = VERTEX_POINT('',#637);
#637 = CARTESIAN_POINT('',(-55.42909749894,26.826523884671,
    129.64495450891));
#638 = SURFACE_CURVE('',#639,(#677,#718),.PCURVE_S1.);
#639 = B_SPLINE_CURVE_WITH_KNOTS('',8,(#640,#641,#642,#643,#644,#645,
    #646,#647,#648,#649,#650,#651,#652,#653,#654,#655,#656,#657,#658,
    #659,#660,#661,#662,#663,#664,#665,#666,#667,#668,#669,#670,#671,
    #672,#673,#674,#675,#676),.UNSPECIFIED.,.F.,.F.,(9,7,7,7,7,9),(0.,
    0.190530580213,0.385969899185,0.692518229647,0.83053799706,1.),
  .UNSPECIFIED.);
#640 = CARTESIAN_POINT('',(-53.3,26.57619575179,128.));
#641 = CARTESIAN_POINT('',(-53.3,26.548827076675,127.81969469646));
#642 = CARTESIAN_POINT('',(-53.3218557158,26.519092372628,
    127.63997573991));
#643 = CARTESIAN_POINT('',(-53.36531671774,26.487477564071,
    127.46382664344));
#644 = CARTESIAN_POINT('',(-53.42968865873,26.454780358724,
    127.29402135058));
#645 = CARTESIAN_POINT('',(-53.51397389156,26.42207621432,
    127.13314322096));
#646 = CARTESIAN_POINT('',(-53.61692367682,26.390644568188,
    126.98362563482));
#647 = CARTESIAN_POINT('',(-53.73701971556,26.361860161385,
    126.84778133036));
#648 = CARTESIAN_POINT('',(-54.01127370875,26.311609330079,
    126.6047023851));
#649 = CARTESIAN_POINT('',(-54.16668569651,26.290266805052,
    126.49789032493));
#650 = CARTESIAN_POINT('',(-54.33601388649,26.27465767393,
    126.41060183117));
#651 = CARTESIAN_POINT('',(-54.51604260847,26.266200133131,
    126.34513874497));
#652 = CARTESIAN_POINT('',(-54.7031908755,26.265894569145,
    126.30311528319));
#653 = CARTESIAN_POINT('',(-54.89354197518,26.274102902235,
    126.28535925432));
#654 = CARTESIAN_POINT('',(-55.08286847913,26.290429519512,
    126.29184740423));
#655 = CARTESIAN_POINT('',(-55.55507969472,26.350180980597,
    126.36686214244));
#656 = CARTESIAN_POINT('',(-55.82941321369,26.403665241704,
    126.46847539829));
#657 = CARTESIAN_POINT('',(-56.07861438492,26.470228719196,
    126.62056523376));
#658 = CARTESIAN_POINT('',(-56.29438620124,26.543955578312,
    126.81624349244));
#659 = CARTESIAN_POINT('',(-56.46959700909,26.618486069302,
    127.04844236311));
#660 = CARTESIAN_POINT('',(-56.59820723098,26.687906716469,
    127.30911550742));
#661 = CARTESIAN_POINT('',(-56.67484289586,26.747545875512,
    127.58927438155));
#662 = CARTESIAN_POINT('',(-56.70496990353,26.815789959995,
    128.00799586561));
#663 = CARTESIAN_POINT('',(-56.70298411123,26.834392212732,
    128.13951913324));
#664 = CARTESIAN_POINT('',(-56.68934793839,26.850121425946,
    128.27127331653));
#665 = CARTESIAN_POINT('',(-56.66396253076,26.862812636576,
    128.40194821385));
#666 = CARTESIAN_POINT('',(-56.62692048751,26.872429094913,
    128.53022383852));
#667 = CARTESIAN_POINT('',(-56.57850777314,26.879057676112,
    128.65478354239));
#668 = CARTESIAN_POINT('',(-56.51922864823,26.882894890209,
    128.77433672156));
#669 = CARTESIAN_POINT('',(-56.36467428869,26.885854759039,
    129.02677959743));
#670 = CARTESIAN_POINT('',(-56.26419599615,26.883705540262,
    129.15663034923));
#671 = CARTESIAN_POINT('',(-56.14971565388,26.878289810749,
    129.27504439646));
#672 = CARTESIAN_POINT('',(-56.02282778031,26.870300148882,
    129.3802729345));
#673 = CARTESIAN_POINT('',(-55.88532449948,26.860483599405,
    129.47088729907));
#674 = CARTESIAN_POINT('',(-55.73913803952,26.849545061546,
    129.54573480793));
#675 = CARTESIAN_POINT('',(-55.5863257301,26.838078200844,
    129.60394046239));
#676 = CARTESIAN_POINT('',(-55.42909749894,26.826523884671,
    129.64495450891));
#677 = PCURVE('',#205,#678);
#678 = DEFINITIONAL_REPRESENTATION('',(#679),#717);
#679 = B_SPLINE_CURVE_WITH_KNOTS('',8,(#680,#681,#682,#683,#684,#685,
    #686,#687,#688,#689,#690,#691,#692,#693,#694,#695,#696,#697,#698,
    #699,#700,#701,#702,#703,#704,#705,#706,#707,#708,#709,#710,#711,
    #712,#713,#714,#715,#716),.UNSPECIFIED.,.F.,.F.,(9,7,7,7,7,9),(0.,
    0.190530580213,0.385969899185,0.692518229647,0.83053799706,1.),
  .UNSPECIFIED.);
#680 = CARTESIAN_POINT('',(6.28318530718,-1.57619575179));
#681 = CARTESIAN_POINT('',(6.177123363926,-1.548827076675));
#682 = CARTESIAN_POINT('',(6.071406350916,-1.519092372628));
#683 = CARTESIAN_POINT('',(5.965971011876,-1.487477564071));
#684 = CARTESIAN_POINT('',(5.860681627628,-1.454780358724));
#685 = CARTESIAN_POINT('',(5.755378037577,-1.42207621432));
#686 = CARTESIAN_POINT('',(5.649884709844,-1.390644568188));
#687 = CARTESIAN_POINT('',(5.544014262332,-1.361860161385));
#688 = CARTESIAN_POINT('',(5.328441775619,-1.311609330079));
#689 = CARTESIAN_POINT('',(5.218352690341,-1.290266805052));
#690 = CARTESIAN_POINT('',(5.107771753273,-1.27465767393));
#691 = CARTESIAN_POINT('',(4.996894810103,-1.266200133131));
#692 = CARTESIAN_POINT('',(4.885883613341,-1.265894569145));
#693 = CARTESIAN_POINT('',(4.774935961694,-1.274102902235));
#694 = CARTESIAN_POINT('',(4.664348010498,-1.290429519512));
#695 = CARTESIAN_POINT('',(4.383093626096,-1.350180980597));
#696 = CARTESIAN_POINT('',(4.214342915693,-1.403665241704));
#697 = CARTESIAN_POINT('',(4.047804571063,-1.470228719196));
#698 = CARTESIAN_POINT('',(3.882392778683,-1.543955578312));
#699 = CARTESIAN_POINT('',(3.717207639193,-1.618486069302));
#700 = CARTESIAN_POINT('',(3.551304836876,-1.687906716469));
#701 = CARTESIAN_POINT('',(3.383696744743,-1.747545875512));
#702 = CARTESIAN_POINT('',(3.136753271811,-1.815789959995));
#703 = CARTESIAN_POINT('',(3.059670517705,-1.834392212732));
#704 = CARTESIAN_POINT('',(2.98225544626,-1.850121425946));
#705 = CARTESIAN_POINT('',(2.904567177634,-1.862812636576));
#706 = CARTESIAN_POINT('',(2.826653008174,-1.872429094913));
#707 = CARTESIAN_POINT('',(2.74856526464,-1.879057676112));
#708 = CARTESIAN_POINT('',(2.670381121506,-1.882894890209));
#709 = CARTESIAN_POINT('',(2.496265009008,-1.885854759039));
#710 = CARTESIAN_POINT('',(2.400261586493,-1.883705540262));
#711 = CARTESIAN_POINT('',(2.304342928048,-1.878289810749));
#712 = CARTESIAN_POINT('',(2.208537458677,-1.870300148882));
#713 = CARTESIAN_POINT('',(2.112823914125,-1.860483599405));
#714 = CARTESIAN_POINT('',(2.017168404353,-1.849545061546));
#715 = CARTESIAN_POINT('',(1.921548840522,-1.838078200844));
#716 = CARTESIAN_POINT('',(1.82596672545,-1.826523884671));
#717 = ( GEOMETRIC_REPRESENTATION_CONTEXT(2) 
PARAMETRIC_REPRESENTATION_CONTEXT() REPRESENTATION_CONTEXT('2D SPACE',''
  ) );
#718 = PCURVE('',#518,#719);
#719 = DEFINITIONAL_REPRESENTATION('',(#720),#758);
#720 = B_SPLINE_CURVE_WITH_KNOTS('',8,(#721,#722,#723,#724,#725,#726,
    #727,#728,#729,#730,#731,#732,#733,#734,#735,#736,#737,#738,#739,
    #740,#741,#742,#743,#744,#745,#746,#747,#748,#749,#750,#751,#752,
    #753,#754,#755,#756,#757),.UNSPECIFIED.,.F.,.F.,(9,7,7,7,7,9),(0.,
    0.190530580213,0.385969899185,0.692518229647,0.83053799706,1.),
  .UNSPECIFIED.);
#721 = CARTESIAN_POINT('',(0.984418323769,0.141464193042));
#722 = CARTESIAN_POINT('',(0.982749554135,0.141464193042));
#723 = CARTESIAN_POINT('',(0.981087456432,0.141670393588));
#724 = CARTESIAN_POINT('',(0.979459377158,0.142080432489));
#725 = CARTESIAN_POINT('',(0.977890989462,0.142687516893));
#726 = CARTESIAN_POINT('',(0.976406578159,0.143481769779));
#727 = CARTESIAN_POINT('',(0.97502940463,0.14445080463));
#728 = CARTESIAN_POINT('',(0.973781846439,0.145579662948));
#729 = CARTESIAN_POINT('',(0.971559908103,0.14815357037));
#730 = CARTESIAN_POINT('',(0.97058969505,0.149610297881));
#731 = CARTESIAN_POINT('',(0.969805446291,0.151195079988));
#732 = CARTESIAN_POINT('',(0.969229367477,0.152877130943));
#733 = CARTESIAN_POINT('',(0.968876877119,0.154622523797));
#734 = CARTESIAN_POINT('',(0.968755263695,0.156394579987));
#735 = CARTESIAN_POINT('',(0.968862975642,0.158154118848));
#736 = CARTESIAN_POINT('',(0.969687118539,0.162536112279));
#737 = CARTESIAN_POINT('',(0.970713853673,0.165075359563));
#738 = CARTESIAN_POINT('',(0.972208461739,0.167376360529));
#739 = CARTESIAN_POINT('',(0.974099073127,0.169364752575));
#740 = CARTESIAN_POINT('',(0.976312613117,0.17097704394));
#741 = CARTESIAN_POINT('',(0.978769653054,0.172159515896));
#742 = CARTESIAN_POINT('',(0.981384857316,0.172863964788));
#743 = CARTESIAN_POINT('',(0.98526085187,0.173140887008));
#744 = CARTESIAN_POINT('',(0.986473899606,0.173122628531));
#745 = CARTESIAN_POINT('',(0.987684712908,0.172997299365));
#746 = CARTESIAN_POINT('',(0.988881380664,0.172763975974));
#747 = CARTESIAN_POINT('',(0.990052023042,0.172423449611));
#748 = CARTESIAN_POINT('',(0.991184879599,0.171978245078));
#749 = CARTESIAN_POINT('',(0.992268491343,0.171432859376));
#750 = CARTESIAN_POINT('',(0.994548622068,0.170010092943));
#751 = CARTESIAN_POINT('',(0.99571577493,0.169084655388));
#752 = CARTESIAN_POINT('',(0.99677438896,0.168029540365));
#753 = CARTESIAN_POINT('',(0.997709194239,0.16685907193));
#754 = CARTESIAN_POINT('',(0.998507805209,0.165589385959));
#755 = CARTESIAN_POINT('',(0.999160287565,0.164237945233));
#756 = CARTESIAN_POINT('',(0.999659184173,0.162823449058));
#757 = CARTESIAN_POINT('',(1.,0.161366137418));
#758 = ( GEOMETRIC_REPRESENTATION_CONTEXT(2) 
PARAMETRIC_REPRESENTATION_CONTEXT() REPRESENTATION_CONTEXT('2D SPACE',''
  ) );
#759 = ORIENTED_EDGE('',*,*,#760,.T.);
#760 = EDGE_CURVE('',#636,#483,#761,.T.);
#761 = SURFACE_CURVE('',#762,(#769,#779),.PCURVE_S1.);
#762 = B_SPLINE_CURVE_WITH_KNOTS('',5,(#763,#764,#765,#766,#767,#768),
  .UNSPECIFIED.,.F.,.F.,(6,6),(0.,1.),.PIECEWISE_BEZIER_KNOTS.);
#763 = CARTESIAN_POINT('',(-55.42909749894,26.826523884671,
    129.64495450891));
#764 = CARTESIAN_POINT('',(-55.27683845667,26.815334741972,
    129.68467230893));
#765 = CARTESIAN_POINT('',(-55.11996382032,26.804048318758,
    129.70677706563));
#766 = CARTESIAN_POINT('',(-54.96120791593,26.793220073042,
    129.71055650746));
#767 = CARTESIAN_POINT('',(-54.80337217416,26.783070328947,
    129.69592132704));
#768 = CARTESIAN_POINT('',(-54.64924431114,26.773455980054,
    129.66342130764));
#769 = PCURVE('',#205,#770);
#770 = DEFINITIONAL_REPRESENTATION('',(#771),#778);
#771 = B_SPLINE_CURVE_WITH_KNOTS('',5,(#772,#773,#774,#775,#776,#777),
  .UNSPECIFIED.,.F.,.F.,(6,6),(0.,1.),.PIECEWISE_BEZIER_KNOTS.);
#772 = CARTESIAN_POINT('',(1.82596672545,-1.826523884671));
#773 = CARTESIAN_POINT('',(1.733405477438,-1.815334741972));
#774 = CARTESIAN_POINT('',(1.640832068886,-1.804048318758));
#775 = CARTESIAN_POINT('',(1.548257056174,-1.793220073042));
#776 = CARTESIAN_POINT('',(1.455633900323,-1.783070328947));
#777 = CARTESIAN_POINT('',(1.362976759099,-1.773455980054));
#778 = ( GEOMETRIC_REPRESENTATION_CONTEXT(2) 
PARAMETRIC_REPRESENTATION_CONTEXT() REPRESENTATION_CONTEXT('2D SPACE',''
  ) );
#779 = PCURVE('',#518,#780);
#780 = DEFINITIONAL_REPRESENTATION('',(#781),#788);
#781 = B_SPLINE_CURVE_WITH_KNOTS('',5,(#782,#783,#784,#785,#786,#787),
  .UNSPECIFIED.,.F.,.F.,(6,6),(0.,1.),.PIECEWISE_BEZIER_KNOTS.);
#782 = CARTESIAN_POINT('',(0.,0.161366137418));
#783 = CARTESIAN_POINT('',(3.300443627099E-04,0.159954884025));
#784 = CARTESIAN_POINT('',(4.981121522691E-04,0.158498916585));
#785 = CARTESIAN_POINT('',(4.983383821367E-04,0.157023268507));
#786 = CARTESIAN_POINT('',(3.304692162784E-04,0.155553846313));
#787 = CARTESIAN_POINT('',(0.,0.154116779557));
#788 = ( GEOMETRIC_REPRESENTATION_CONTEXT(2) 
PARAMETRIC_REPRESENTATION_CONTEXT() REPRESENTATION_CONTEXT('2D SPACE',''
  ) );
#789 = ADVANCED_FACE('',(#790,#793),#421,.F.);
#790 = FACE_BOUND('',#791,.F.);
#791 = EDGE_LOOP('',(#792));
#792 = ORIENTED_EDGE('',*,*,#395,.T.);
#793 = FACE_BOUND('',#794,.F.);
#794 = EDGE_LOOP('',(#795));
#795 = ORIENTED_EDGE('',*,*,#796,.T.);
#796 = EDGE_CURVE('',#797,#797,#799,.T.);
#797 = VERTEX_POINT('',#798);
#798 = CARTESIAN_POINT('',(-132.,0.787241675516,135.82629273289));
#799 = SURFACE_CURVE('',#800,(#928,#1059),.PCURVE_S1.);
#800 = B_SPLINE_CURVE_WITH_KNOTS('',6,(#801,#802,#803,#804,#805,#806,
    #807,#808,#809,#810,#811,#812,#813,#814,#815,#816,#817,#818,#819,
    #820,#821,#822,#823,#824,#825,#826,#827,#828,#829,#830,#831,#832,
    #833,#834,#835,#836,#837,#838,#839,#840,#841,#842,#843,#844,#845,
    #846,#847,#848,#849,#850,#851,#852,#853,#854,#855,#856,#857,#858,
    #859,#860,#861,#862,#863,#864,#865,#866,#867,#868,#869,#870,#871,
    #872,#873,#874,#875,#876,#877,#878,#879,#880,#881,#882,#883,#884,
    #885,#886,#887,#888,#889,#890,#891,#892,#893,#894,#895,#896,#897,
    #898,#899,#900,#901,#902,#903,#904,#905,#906,#907,#908,#909,#910,
    #911,#912,#913,#914,#915,#916,#917,#918,#919,#920,#921,#922,#923,
    #924,#925,#926,#927),.UNSPECIFIED.,.T.,.F.,(7,5,5,5,5,5,5,5,5,5,5,5,
    5,5,5,5,5,5,5,5,5,5,5,5,5,7),(0.,8.316898211366E-02,0.125196421677,
    0.167169689213,0.19312861097,0.249998234105,0.289902567236,
    0.306867878725,0.332826800477,0.374800065432,0.416827503083,
    0.442868963635,0.459903873832,0.499999998329,0.557131051943,
    0.583172511579,0.625199947751,0.667173211231,0.693132132069,
    0.710097442962,0.750001774689,0.806871395824,0.832830316667,
    0.874803582727,0.916831020812,1.),.UNSPECIFIED.);
#801 = CARTESIAN_POINT('',(-132.,0.787241675516,135.82629273289));
#802 = CARTESIAN_POINT('',(-132.,0.787241678769,135.75754294354));
#803 = CARTESIAN_POINT('',(-132.,0.78011153784,135.68878243374));
#804 = CARTESIAN_POINT('',(-132.,0.765847402284,135.62095983551));
#805 = CARTESIAN_POINT('',(-132.,0.744615486734,135.55498512497));
#806 = CARTESIAN_POINT('',(-132.,0.716708651661,135.4917383324));
#807 = CARTESIAN_POINT('',(-132.,0.665355326241,135.40189349157));
#808 = CARTESIAN_POINT('',(-132.,0.646529766422,135.37264016182));
#809 = CARTESIAN_POINT('',(-132.,0.626176207567,135.34439956814));
#810 = CARTESIAN_POINT('',(-132.,0.604361972006,135.31727162673));
#811 = CARTESIAN_POINT('',(-132.,0.581163016952,135.29135024711));
#812 = CARTESIAN_POINT('',(-132.,0.532196450355,135.24212815367));
#813 = CARTESIAN_POINT('',(-132.,0.506431683237,135.21882342904));
#814 = CARTESIAN_POINT('',(-132.,0.479454061177,135.19689667053));
#815 = CARTESIAN_POINT('',(-132.,0.451354927059,135.17642715489));
#816 = CARTESIAN_POINT('',(-132.,0.422232538629,135.15748592323));
#817 = CARTESIAN_POINT('',(-132.,0.373613097525,135.12940531201));
#818 = CARTESIAN_POINT('',(-132.,0.354682805329,135.11928329226));
#819 = CARTESIAN_POINT('',(-132.,0.33542598052,135.10978447547));
#820 = CARTESIAN_POINT('',(-132.,0.315868146303,135.10092218895));
#821 = CARTESIAN_POINT('',(-132.,0.296035560471,135.09270833364));
#822 = CARTESIAN_POINT('',(-132.,0.231964650675,135.06860250577));
#823 = CARTESIAN_POINT('',(-132.,0.186782721704,135.05521324814));
#824 = CARTESIAN_POINT('',(-132.,0.140696911846,135.04509668572));
#825 = CARTESIAN_POINT('',(-132.,9.400196945343E-02,135.03832710527));
#826 = CARTESIAN_POINT('',(-132.,4.699990786439E-02,135.03494200574));
#827 = CARTESIAN_POINT('',(-132.,-3.297923949289E-02,135.03494208716));
#828 = CARTESIAN_POINT('',(-132.,-6.595885598756E-02,135.03660866701));
#829 = CARTESIAN_POINT('',(-132.,-9.883281060055E-02,135.0399417522));
#830 = CARTESIAN_POINT('',(-132.,-0.131496314229,135.0449322337));
#831 = CARTESIAN_POINT('',(-132.,-0.163845822141,135.05156197913));
#832 = CARTESIAN_POINT('',(-132.,-0.209355466827,135.06330786207));
#833 = CARTESIAN_POINT('',(-132.,-0.222856724159,135.06710329919));
#834 = CARTESIAN_POINT('',(-132.,-0.236274994927,135.07118806661));
#835 = CARTESIAN_POINT('',(-132.,-0.249602564157,135.07555980739));
#836 = CARTESIAN_POINT('',(-132.,-0.262831812961,135.08021588518));
#837 = CARTESIAN_POINT('',(-132.,-0.296035564503,135.09270833363));
#838 = CARTESIAN_POINT('',(-132.,-0.315868151238,135.10092218883));
#839 = CARTESIAN_POINT('',(-132.,-0.335425986344,135.10978447528));
#840 = CARTESIAN_POINT('',(-132.,-0.354682812013,135.11928329209));
#841 = CARTESIAN_POINT('',(-132.,-0.373613105012,135.12940531197));
#842 = CARTESIAN_POINT('',(-132.,-0.422232546148,135.15748592281));
#843 = CARTESIAN_POINT('',(-132.,-0.451354933813,135.176427154));
#844 = CARTESIAN_POINT('',(-132.,-0.479454066932,135.19689666943));
#845 = CARTESIAN_POINT('',(-132.,-0.506431687717,135.218823428));
#846 = CARTESIAN_POINT('',(-132.,-0.532196453343,135.24212815284));
#847 = CARTESIAN_POINT('',(-132.,-0.581163017268,135.29135024698));
#848 = CARTESIAN_POINT('',(-132.,-0.604361971045,135.31727162719));
#849 = CARTESIAN_POINT('',(-132.,-0.626176205516,135.34439956893));
#850 = CARTESIAN_POINT('',(-132.,-0.646529763756,135.37264016253));
#851 = CARTESIAN_POINT('',(-132.,-0.665355323673,135.40189349175));
#852 = CARTESIAN_POINT('',(-132.,-0.693275949522,135.45074181674));
#853 = CARTESIAN_POINT('',(-132.,-0.703348588462,135.46977833643));
#854 = CARTESIAN_POINT('',(-132.,-0.712798220409,135.48913810929));
#855 = CARTESIAN_POINT('',(-132.,-0.721612349087,135.50879545613));
#856 = CARTESIAN_POINT('',(-132.,-0.72977987637,135.52872410215));
#857 = CARTESIAN_POINT('',(-132.,-0.742204540227,135.56209331266));
#858 = CARTESIAN_POINT('',(-132.,-0.746837147665,135.57539405952));
#859 = CARTESIAN_POINT('',(-132.,-0.751186213534,135.58879190774));
#860 = CARTESIAN_POINT('',(-132.,-0.755249291805,135.6022792723));
#861 = CARTESIAN_POINT('',(-132.,-0.759024201475,135.61584849282));
#862 = CARTESIAN_POINT('',(-132.,-0.770711465144,135.66160493125));
#863 = CARTESIAN_POINT('',(-132.,-0.777306817169,135.69412897647));
#864 = CARTESIAN_POINT('',(-132.,-0.782270046661,135.7269625877));
#865 = CARTESIAN_POINT('',(-132.,-0.78558445271,135.76000343212));
#866 = CARTESIAN_POINT('',(-132.,-0.78724166948,135.79314822564));
#867 = CARTESIAN_POINT('',(-132.,-0.787241694382,135.87351838745));
#868 = CARTESIAN_POINT('',(-132.,-0.783877139329,135.92074573153));
#869 = CARTESIAN_POINT('',(-132.,-0.777148262722,135.96767138157));
#870 = CARTESIAN_POINT('',(-132.,-0.7670895117,136.01399755115));
#871 = CARTESIAN_POINT('',(-132.,-0.753769518864,136.05943205099));
#872 = CARTESIAN_POINT('',(-132.,-0.72977987637,136.12386136363));
#873 = CARTESIAN_POINT('',(-132.,-0.721612349087,136.14379000965));
#874 = CARTESIAN_POINT('',(-132.,-0.712798220409,136.16344735649));
#875 = CARTESIAN_POINT('',(-132.,-0.703348588462,136.18280712935));
#876 = CARTESIAN_POINT('',(-132.,-0.693275949522,136.20184364904));
#877 = CARTESIAN_POINT('',(-132.,-0.665355323673,136.25069197403));
#878 = CARTESIAN_POINT('',(-132.,-0.646529763756,136.27994530324));
#879 = CARTESIAN_POINT('',(-132.,-0.626176205516,136.30818589685));
#880 = CARTESIAN_POINT('',(-132.,-0.604361971045,136.33531383859));
#881 = CARTESIAN_POINT('',(-132.,-0.581163017268,136.3612352188));
#882 = CARTESIAN_POINT('',(-132.,-0.532196453343,136.41045731293));
#883 = CARTESIAN_POINT('',(-132.,-0.506431687717,136.43376203778));
#884 = CARTESIAN_POINT('',(-132.,-0.479454066932,136.45568879635));
#885 = CARTESIAN_POINT('',(-132.,-0.451354933813,136.47615831178));
#886 = CARTESIAN_POINT('',(-132.,-0.422232546148,136.49509954297));
#887 = CARTESIAN_POINT('',(-132.,-0.373613105012,136.52318015381));
#888 = CARTESIAN_POINT('',(-132.,-0.354682812013,136.53330217369));
#889 = CARTESIAN_POINT('',(-132.,-0.335425986344,136.5428009905));
#890 = CARTESIAN_POINT('',(-132.,-0.315868151238,136.55166327695));
#891 = CARTESIAN_POINT('',(-132.,-0.296035564503,136.55987713214));
#892 = CARTESIAN_POINT('',(-132.,-0.262831812961,136.5723695806));
#893 = CARTESIAN_POINT('',(-132.,-0.249602564157,136.57702565839));
#894 = CARTESIAN_POINT('',(-132.,-0.236274994927,136.58139739917));
#895 = CARTESIAN_POINT('',(-132.,-0.222856724159,136.58548216659));
#896 = CARTESIAN_POINT('',(-132.,-0.209355466827,136.58927760371));
#897 = CARTESIAN_POINT('',(-132.,-0.163845822141,136.60102348664));
#898 = CARTESIAN_POINT('',(-132.,-0.131496314229,136.60765323208));
#899 = CARTESIAN_POINT('',(-132.,-9.883281060052E-02,136.61264371358));
#900 = CARTESIAN_POINT('',(-132.,-6.595885598754E-02,136.61597679877));
#901 = CARTESIAN_POINT('',(-132.,-3.297923949287E-02,136.61764337862));
#902 = CARTESIAN_POINT('',(-132.,4.699990786444E-02,136.61764346004));
#903 = CARTESIAN_POINT('',(-132.,9.400196945346E-02,136.61425836051));
#904 = CARTESIAN_POINT('',(-132.,0.140696911846,136.60748878006));
#905 = CARTESIAN_POINT('',(-132.,0.186782721704,136.59737221764));
#906 = CARTESIAN_POINT('',(-132.,0.231964650675,136.58398296));
#907 = CARTESIAN_POINT('',(-132.,0.296035560471,136.55987713214));
#908 = CARTESIAN_POINT('',(-132.,0.315868146303,136.55166327683));
#909 = CARTESIAN_POINT('',(-132.,0.33542598052,136.54280099031));
#910 = CARTESIAN_POINT('',(-132.,0.354682805329,136.53330217352));
#911 = CARTESIAN_POINT('',(-132.,0.373613097525,136.52318015377));
#912 = CARTESIAN_POINT('',(-132.,0.422232538629,136.49509954255));
#913 = CARTESIAN_POINT('',(-132.,0.45135492706,136.47615831089));
#914 = CARTESIAN_POINT('',(-132.,0.479454061177,136.45568879525));
#915 = CARTESIAN_POINT('',(-132.,0.506431683237,136.43376203674));
#916 = CARTESIAN_POINT('',(-132.,0.532196450355,136.41045731211));
#917 = CARTESIAN_POINT('',(-132.,0.581163016952,136.36123521867));
#918 = CARTESIAN_POINT('',(-132.,0.604361972006,136.33531383904));
#919 = CARTESIAN_POINT('',(-132.,0.626176207567,136.30818589764));
#920 = CARTESIAN_POINT('',(-132.,0.646529766422,136.27994530396));
#921 = CARTESIAN_POINT('',(-132.,0.665355326241,136.25069197421));
#922 = CARTESIAN_POINT('',(-132.,0.716708651661,136.16084713338));
#923 = CARTESIAN_POINT('',(-132.,0.744615486734,136.09760034081));
#924 = CARTESIAN_POINT('',(-132.,0.765847402284,136.03162563027));
#925 = CARTESIAN_POINT('',(-132.,0.78011153784,135.96380303204));
#926 = CARTESIAN_POINT('',(-132.,0.787241678769,135.89504252224));
#927 = CARTESIAN_POINT('',(-132.,0.787241675517,135.82629273289));
#928 = PCURVE('',#421,#929);
#929 = DEFINITIONAL_REPRESENTATION('',(#930),#1058);
#930 = B_SPLINE_CURVE_WITH_KNOTS('',6,(#931,#932,#933,#934,#935,#936,
    #937,#938,#939,#940,#941,#942,#943,#944,#945,#946,#947,#948,#949,
    #950,#951,#952,#953,#954,#955,#956,#957,#958,#959,#960,#961,#962,
    #963,#964,#965,#966,#967,#968,#969,#970,#971,#972,#973,#974,#975,
    #976,#977,#978,#979,#980,#981,#982,#983,#984,#985,#986,#987,#988,
    #989,#990,#991,#992,#993,#994,#995,#996,#997,#998,#999,#1000,#1001,
    #1002,#1003,#1004,#1005,#1006,#1007,#1008,#1009,#1010,#1011,#1012,
    #1013,#1014,#1015,#1016,#1017,#1018,#1019,#1020,#1021,#1022,#1023,
    #1024,#1025,#1026,#1027,#1028,#1029,#1030,#1031,#1032,#1033,#1034,
    #1035,#1036,#1037,#1038,#1039,#1040,#1041,#1042,#1043,#1044,#1045,
    #1046,#1047,#1048,#1049,#1050,#1051,#1052,#1053,#1054,#1055,#1056,
    #1057),.UNSPECIFIED.,.F.,.F.,(7,5,5,5,5,5,5,5,5,5,5,5,5,5,5,5,5,5,5,
    5,5,5,5,5,5,7),(0.,8.316898211366E-02,0.125196421677,0.167169689213,
    0.19312861097,0.249998234105,0.289902567236,0.306867878725,
    0.332826800477,0.374800065432,0.416827503083,0.442868963635,
    0.459903873832,0.499999998329,0.557131051943,0.583172511579,
    0.625199947751,0.667173211231,0.693132132069,0.710097442962,
    0.750001774689,0.806871395824,0.832830316667,0.874803582727,
    0.916831020812,1.),.UNSPECIFIED.);
#931 = CARTESIAN_POINT('',(3.212758324484,0.173707267106));
#932 = CARTESIAN_POINT('',(3.212758321231,0.242457056454));
#933 = CARTESIAN_POINT('',(3.21988846216,0.311217566257));
#934 = CARTESIAN_POINT('',(3.234152597716,0.379040164487));
#935 = CARTESIAN_POINT('',(3.255384513266,0.445014875028));
#936 = CARTESIAN_POINT('',(3.283291348339,0.508261667597));
#937 = CARTESIAN_POINT('',(3.334644673759,0.598106508425));
#938 = CARTESIAN_POINT('',(3.353470233578,0.627359838175));
#939 = CARTESIAN_POINT('',(3.373823792433,0.655600431856));
#940 = CARTESIAN_POINT('',(3.395638027994,0.682728373262));
#941 = CARTESIAN_POINT('',(3.418836983048,0.708649752887));
#942 = CARTESIAN_POINT('',(3.467803549645,0.757871846325));
#943 = CARTESIAN_POINT('',(3.493568316763,0.781176570959));
#944 = CARTESIAN_POINT('',(3.520545938823,0.803103329465));
#945 = CARTESIAN_POINT('',(3.548645072941,0.823572845105));
#946 = CARTESIAN_POINT('',(3.577767461371,0.842514076765));
#947 = CARTESIAN_POINT('',(3.626386902475,0.870594687983));
#948 = CARTESIAN_POINT('',(3.645317194671,0.880716707737));
#949 = CARTESIAN_POINT('',(3.66457401948,0.89021552453));
#950 = CARTESIAN_POINT('',(3.684131853697,0.899077811048));
#951 = CARTESIAN_POINT('',(3.703964439529,0.907291666356));
#952 = CARTESIAN_POINT('',(3.768035349325,0.931397494221));
#953 = CARTESIAN_POINT('',(3.813217278296,0.944786751856));
#954 = CARTESIAN_POINT('',(3.859303088154,0.954903314275));
#955 = CARTESIAN_POINT('',(3.905998030547,0.96167289473));
#956 = CARTESIAN_POINT('',(3.953000092136,0.965057994254));
#957 = CARTESIAN_POINT('',(4.032979239493,0.965057912838));
#958 = CARTESIAN_POINT('',(4.065958855988,0.963391332989));
#959 = CARTESIAN_POINT('',(4.098832810601,0.9600582478));
#960 = CARTESIAN_POINT('',(4.131496314229,0.9550677663));
#961 = CARTESIAN_POINT('',(4.163845822141,0.948438020861));
#962 = CARTESIAN_POINT('',(4.209355466827,0.936692137924));
#963 = CARTESIAN_POINT('',(4.222856724159,0.932896700808));
#964 = CARTESIAN_POINT('',(4.236274994927,0.928811933387));
#965 = CARTESIAN_POINT('',(4.249602564157,0.924440192608));
#966 = CARTESIAN_POINT('',(4.262831812961,0.919784114818));
#967 = CARTESIAN_POINT('',(4.296035564503,0.907291666361));
#968 = CARTESIAN_POINT('',(4.315868151238,0.899077811169));
#969 = CARTESIAN_POINT('',(4.335425986344,0.890215524717));
#970 = CARTESIAN_POINT('',(4.354682812013,0.88071670791));
#971 = CARTESIAN_POINT('',(4.373613105012,0.87059468803));
#972 = CARTESIAN_POINT('',(4.422232546148,0.842514077182));
#973 = CARTESIAN_POINT('',(4.451354933813,0.823572845997));
#974 = CARTESIAN_POINT('',(4.479454066932,0.803103330565));
#975 = CARTESIAN_POINT('',(4.506431687717,0.781176572));
#976 = CARTESIAN_POINT('',(4.532196453343,0.757871847151));
#977 = CARTESIAN_POINT('',(4.581163017268,0.708649753015));
#978 = CARTESIAN_POINT('',(4.604361971045,0.68272837281));
#979 = CARTESIAN_POINT('',(4.626176205516,0.655600431069));
#980 = CARTESIAN_POINT('',(4.646529763756,0.627359837462));
#981 = CARTESIAN_POINT('',(4.665355323673,0.598106508247));
#982 = CARTESIAN_POINT('',(4.693275949522,0.549258183254));
#983 = CARTESIAN_POINT('',(4.703348588462,0.530221663562));
#984 = CARTESIAN_POINT('',(4.712798220409,0.510861890709));
#985 = CARTESIAN_POINT('',(4.721612349087,0.491204543862));
#986 = CARTESIAN_POINT('',(4.72977987637,0.471275897849));
#987 = CARTESIAN_POINT('',(4.742204540227,0.437906687331));
#988 = CARTESIAN_POINT('',(4.746837147665,0.424605940472));
#989 = CARTESIAN_POINT('',(4.751186213534,0.411208092253));
#990 = CARTESIAN_POINT('',(4.755249291805,0.397720727697));
#991 = CARTESIAN_POINT('',(4.759024201475,0.384151507172));
#992 = CARTESIAN_POINT('',(4.770711465144,0.338395068744));
#993 = CARTESIAN_POINT('',(4.777306817169,0.305871023529));
#994 = CARTESIAN_POINT('',(4.782270046661,0.273037412296));
#995 = CARTESIAN_POINT('',(4.78558445271,0.239996567871));
#996 = CARTESIAN_POINT('',(4.78724166948,0.206851774351));
#997 = CARTESIAN_POINT('',(4.787241694382,0.126481612544));
#998 = CARTESIAN_POINT('',(4.783877139329,7.925426846372E-02));
#999 = CARTESIAN_POINT('',(4.777148262722,3.232861842357E-02));
#1000 = CARTESIAN_POINT('',(4.7670895117,-1.399755115582E-02));
#1001 = CARTESIAN_POINT('',(4.753769518864,-5.943205099091E-02));
#1002 = CARTESIAN_POINT('',(4.72977987637,-0.123861363636));
#1003 = CARTESIAN_POINT('',(4.721612349087,-0.14379000965));
#1004 = CARTESIAN_POINT('',(4.712798220409,-0.163447356496));
#1005 = CARTESIAN_POINT('',(4.703348588462,-0.18280712935));
#1006 = CARTESIAN_POINT('',(4.693275949522,-0.201843649041));
#1007 = CARTESIAN_POINT('',(4.665355323673,-0.250691974035));
#1008 = CARTESIAN_POINT('',(4.646529763756,-0.279945303249));
#1009 = CARTESIAN_POINT('',(4.626176205516,-0.308185896856));
#1010 = CARTESIAN_POINT('',(4.604361971045,-0.335313838598));
#1011 = CARTESIAN_POINT('',(4.581163017268,-0.361235218802));
#1012 = CARTESIAN_POINT('',(4.532196453343,-0.410457312939));
#1013 = CARTESIAN_POINT('',(4.506431687717,-0.433762037788));
#1014 = CARTESIAN_POINT('',(4.479454066932,-0.455688796352));
#1015 = CARTESIAN_POINT('',(4.451354933813,-0.476158311784));
#1016 = CARTESIAN_POINT('',(4.422232546148,-0.49509954297));
#1017 = CARTESIAN_POINT('',(4.373613105012,-0.523180153817));
#1018 = CARTESIAN_POINT('',(4.354682812013,-0.533302173697));
#1019 = CARTESIAN_POINT('',(4.335425986344,-0.542800990504));
#1020 = CARTESIAN_POINT('',(4.315868151238,-0.551663276956));
#1021 = CARTESIAN_POINT('',(4.296035564503,-0.559877132148));
#1022 = CARTESIAN_POINT('',(4.262831812961,-0.572369580606));
#1023 = CARTESIAN_POINT('',(4.249602564157,-0.577025658395));
#1024 = CARTESIAN_POINT('',(4.236274994927,-0.581397399174));
#1025 = CARTESIAN_POINT('',(4.222856724159,-0.585482166595));
#1026 = CARTESIAN_POINT('',(4.209355466827,-0.589277603711));
#1027 = CARTESIAN_POINT('',(4.163845822141,-0.601023486648));
#1028 = CARTESIAN_POINT('',(4.131496314229,-0.607653232088));
#1029 = CARTESIAN_POINT('',(4.098832810601,-0.612643713587));
#1030 = CARTESIAN_POINT('',(4.065958855988,-0.615976798776));
#1031 = CARTESIAN_POINT('',(4.032979239493,-0.617643378625));
#1032 = CARTESIAN_POINT('',(3.953000092136,-0.617643460042));
#1033 = CARTESIAN_POINT('',(3.905998030547,-0.614258360517));
#1034 = CARTESIAN_POINT('',(3.859303088154,-0.607488780062));
#1035 = CARTESIAN_POINT('',(3.813217278296,-0.597372217644));
#1036 = CARTESIAN_POINT('',(3.768035349325,-0.583982960008));
#1037 = CARTESIAN_POINT('',(3.703964439529,-0.559877132144));
#1038 = CARTESIAN_POINT('',(3.684131853697,-0.551663276836));
#1039 = CARTESIAN_POINT('',(3.66457401948,-0.542800990317));
#1040 = CARTESIAN_POINT('',(3.645317194671,-0.533302173524));
#1041 = CARTESIAN_POINT('',(3.626386902475,-0.52318015377));
#1042 = CARTESIAN_POINT('',(3.577767461371,-0.495099542552));
#1043 = CARTESIAN_POINT('',(3.54864507294,-0.476158310893));
#1044 = CARTESIAN_POINT('',(3.520545938823,-0.455688795253));
#1045 = CARTESIAN_POINT('',(3.493568316763,-0.433762036747));
#1046 = CARTESIAN_POINT('',(3.467803549645,-0.410457312113));
#1047 = CARTESIAN_POINT('',(3.418836983048,-0.361235218675));
#1048 = CARTESIAN_POINT('',(3.395638027994,-0.335313839049));
#1049 = CARTESIAN_POINT('',(3.373823792433,-0.308185897643));
#1050 = CARTESIAN_POINT('',(3.353470233578,-0.279945303962));
#1051 = CARTESIAN_POINT('',(3.334644673759,-0.250691974212));
#1052 = CARTESIAN_POINT('',(3.283291348339,-0.160847133384));
#1053 = CARTESIAN_POINT('',(3.255384513266,-9.760034081551E-02));
#1054 = CARTESIAN_POINT('',(3.234152597716,-3.162563027361E-02));
#1055 = CARTESIAN_POINT('',(3.21988846216,3.619696795514E-02));
#1056 = CARTESIAN_POINT('',(3.212758321231,0.104957477758));
#1057 = CARTESIAN_POINT('',(3.212758324483,0.173707267106));
#1058 = ( GEOMETRIC_REPRESENTATION_CONTEXT(2) 
PARAMETRIC_REPRESENTATION_CONTEXT() REPRESENTATION_CONTEXT('2D SPACE',''
  ) );
#1059 = PCURVE('',#518,#1060);
#1060 = DEFINITIONAL_REPRESENTATION('',(#1061),#1189);
#1061 = B_SPLINE_CURVE_WITH_KNOTS('',6,(#1062,#1063,#1064,#1065,#1066,
    #1067,#1068,#1069,#1070,#1071,#1072,#1073,#1074,#1075,#1076,#1077,
    #1078,#1079,#1080,#1081,#1082,#1083,#1084,#1085,#1086,#1087,#1088,
    #1089,#1090,#1091,#1092,#1093,#1094,#1095,#1096,#1097,#1098,#1099,
    #1100,#1101,#1102,#1103,#1104,#1105,#1106,#1107,#1108,#1109,#1110,
    #1111,#1112,#1113,#1114,#1115,#1116,#1117,#1118,#1119,#1120,#1121,
    #1122,#1123,#1124,#1125,#1126,#1127,#1128,#1129,#1130,#1131,#1132,
    #1133,#1134,#1135,#1136,#1137,#1138,#1139,#1140,#1141,#1142,#1143,
    #1144,#1145,#1146,#1147,#1148,#1149,#1150,#1151,#1152,#1153,#1154,
    #1155,#1156,#1157,#1158,#1159,#1160,#1161,#1162,#1163,#1164,#1165,
    #1166,#1167,#1168,#1169,#1170,#1171,#1172,#1173,#1174,#1175,#1176,
    #1177,#1178,#1179,#1180,#1181,#1182,#1183,#1184,#1185,#1186,#1187,
    #1188),.UNSPECIFIED.,.F.,.F.,(7,5,5,5,5,5,5,5,5,5,5,5,5,5,5,5,5,5,5,
    5,5,5,5,5,5,7),(0.,8.316898211366E-02,0.125196421677,0.167169689213,
    0.19312861097,0.249998234105,0.289902567236,0.306867878725,
    0.332826800477,0.374800065432,0.416827503083,0.442868963635,
    0.459903873832,0.499999998329,0.557131051943,0.583172511579,
    0.625199947751,0.667173211231,0.693132132069,0.710097442962,
    0.750001774689,0.806871395824,0.832830316667,0.874803582727,
    0.916831020812,1.),.UNSPECIFIED.);
#1062 = CARTESIAN_POINT('',(1.,0.981942289854));
#1063 = CARTESIAN_POINT('',(0.986173162415,0.981942289854));
#1064 = CARTESIAN_POINT('',(0.972344240223,0.981942289854));
#1065 = CARTESIAN_POINT('',(0.958515848967,0.981942289854));
#1066 = CARTESIAN_POINT('',(0.944683788587,0.981942289854));
#1067 = CARTESIAN_POINT('',(0.930843949495,0.981942289854));
#1068 = CARTESIAN_POINT('',(0.910004293957,0.981942289854));
#1069 = CARTESIAN_POINT('',(0.903006998266,0.981942289854));
#1070 = CARTESIAN_POINT('',(0.896007986515,0.981942289854));
#1071 = CARTESIAN_POINT('',(0.889007172908,0.981942289854));
#1072 = CARTESIAN_POINT('',(0.88200451226,0.981942289854));
#1073 = CARTESIAN_POINT('',(0.868004516332,0.981942289854));
#1074 = CARTESIAN_POINT('',(0.861007186148,0.981942289854));
#1075 = CARTESIAN_POINT('',(0.85400800834,0.981942289854));
#1076 = CARTESIAN_POINT('',(0.847007023259,0.981942289854));
#1077 = CARTESIAN_POINT('',(0.84000431272,0.981942289854));
#1078 = CARTESIAN_POINT('',(0.828668090274,0.981942289854));
#1079 = CARTESIAN_POINT('',(0.824335567286,0.981942289854));
#1080 = CARTESIAN_POINT('',(0.820002460182,0.981942289854));
#1081 = CARTESIAN_POINT('',(0.815668803065,0.981942289854));
#1082 = CARTESIAN_POINT('',(0.811334634999,0.981942289854));
#1083 = CARTESIAN_POINT('',(0.797503879125,0.981942289854));
#1084 = CARTESIAN_POINT('',(0.788005501339,0.981942289854));
#1085 = CARTESIAN_POINT('',(0.778505356622,0.981942289854));
#1086 = CARTESIAN_POINT('',(0.769003986907,0.981942289854));
#1087 = CARTESIAN_POINT('',(0.759501986085,0.981942289854));
#1088 = CARTESIAN_POINT('',(0.743332637053,0.981942289854));
#1089 = CARTESIAN_POINT('',(0.736665271546,0.981942289854));
#1090 = CARTESIAN_POINT('',(0.729998121061,0.981942289854));
#1091 = CARTESIAN_POINT('',(0.723331394144,0.981942289854));
#1092 = CARTESIAN_POINT('',(0.716665290301,0.981942289854));
#1093 = CARTESIAN_POINT('',(0.707166254458,0.981942289854));
#1094 = CARTESIAN_POINT('',(0.704332655455,0.981942289854));
#1095 = CARTESIAN_POINT('',(0.701499217259,0.981942289854));
#1096 = CARTESIAN_POINT('',(0.698665953457,0.981942289854));
#1097 = CARTESIAN_POINT('',(0.695832876961,0.981942289854));
#1098 = CARTESIAN_POINT('',(0.688665365095,0.981942289854));
#1099 = CARTESIAN_POINT('',(0.684331197096,0.981942289854));
#1100 = CARTESIAN_POINT('',(0.67999754001,0.981942289854));
#1101 = CARTESIAN_POINT('',(0.675664432891,0.981942289854));
#1102 = CARTESIAN_POINT('',(0.671331909839,0.981942289854));
#1103 = CARTESIAN_POINT('',(0.659995687526,0.981942289854));
#1104 = CARTESIAN_POINT('',(0.652992977099,0.981942289854));
#1105 = CARTESIAN_POINT('',(0.645991992008,0.981942289854));
#1106 = CARTESIAN_POINT('',(0.638992814098,0.981942289854));
#1107 = CARTESIAN_POINT('',(0.631995483774,0.981942289854));
#1108 = CARTESIAN_POINT('',(0.617995487522,0.981942289854));
#1109 = CARTESIAN_POINT('',(0.610992826677,0.981942289854));
#1110 = CARTESIAN_POINT('',(0.603992012969,0.981942289854));
#1111 = CARTESIAN_POINT('',(0.596993001256,0.981942289854));
#1112 = CARTESIAN_POINT('',(0.589995705746,0.981942289854));
#1113 = CARTESIAN_POINT('',(0.578665250955,0.981942289854));
#1114 = CARTESIAN_POINT('',(0.574331112845,0.981942289854));
#1115 = CARTESIAN_POINT('',(0.569997555726,0.981942289854));
#1116 = CARTESIAN_POINT('',(0.565664544928,0.981942289854));
#1117 = CARTESIAN_POINT('',(0.561332041058,0.981942289854));
#1118 = CARTESIAN_POINT('',(0.554166213844,0.981942289854));
#1119 = CARTESIAN_POINT('',(0.551332625842,0.981942289854));
#1120 = CARTESIAN_POINT('',(0.548499223705,0.981942289854));
#1121 = CARTESIAN_POINT('',(0.545665994503,0.981942289854));
#1122 = CARTESIAN_POINT('',(0.542832924669,0.981942289854));
#1123 = CARTESIAN_POINT('',(0.533331969531,0.981942289854));
#1124 = CARTESIAN_POINT('',(0.526664745978,0.981942289854));
#1125 = CARTESIAN_POINT('',(0.519998139594,0.981942289854));
#1126 = CARTESIAN_POINT('',(0.513331952235,0.981942289854));
#1127 = CARTESIAN_POINT('',(0.506665977352,0.981942289854));
#1128 = CARTESIAN_POINT('',(0.490501967104,0.981942289854));
#1129 = CARTESIAN_POINT('',(0.481003948155,0.981942289854));
#1130 = CARTESIAN_POINT('',(0.471505306191,0.981942289854));
#1131 = CARTESIAN_POINT('',(0.462005452744,0.981942289854));
#1132 = CARTESIAN_POINT('',(0.452503847841,0.981942289854));
#1133 = CARTESIAN_POINT('',(0.438667958942,0.981942289854));
#1134 = CARTESIAN_POINT('',(0.434335455072,0.981942289854));
#1135 = CARTESIAN_POINT('',(0.430002444274,0.981942289854));
#1136 = CARTESIAN_POINT('',(0.425668887155,0.981942289854));
#1137 = CARTESIAN_POINT('',(0.421334749045,0.981942289854));
#1138 = CARTESIAN_POINT('',(0.410004294254,0.981942289854));
#1139 = CARTESIAN_POINT('',(0.403006998744,0.981942289854));
#1140 = CARTESIAN_POINT('',(0.396007987031,0.981942289854));
#1141 = CARTESIAN_POINT('',(0.389007173323,0.981942289854));
#1142 = CARTESIAN_POINT('',(0.382004512478,0.981942289854));
#1143 = CARTESIAN_POINT('',(0.368004516226,0.981942289854));
#1144 = CARTESIAN_POINT('',(0.361007185902,0.981942289854));
#1145 = CARTESIAN_POINT('',(0.354008007992,0.981942289854));
#1146 = CARTESIAN_POINT('',(0.347007022901,0.981942289854));
#1147 = CARTESIAN_POINT('',(0.340004312474,0.981942289854));
#1148 = CARTESIAN_POINT('',(0.328668090161,0.981942289854));
#1149 = CARTESIAN_POINT('',(0.324335567109,0.981942289854));
#1150 = CARTESIAN_POINT('',(0.32000245999,0.981942289854));
#1151 = CARTESIAN_POINT('',(0.315668802904,0.981942289854));
#1152 = CARTESIAN_POINT('',(0.311334634905,0.981942289854));
#1153 = CARTESIAN_POINT('',(0.304167123039,0.981942289854));
#1154 = CARTESIAN_POINT('',(0.301334046543,0.981942289854));
#1155 = CARTESIAN_POINT('',(0.298500782741,0.981942289854));
#1156 = CARTESIAN_POINT('',(0.295667344545,0.981942289854));
#1157 = CARTESIAN_POINT('',(0.292833745542,0.981942289854));
#1158 = CARTESIAN_POINT('',(0.283334709699,0.981942289854));
#1159 = CARTESIAN_POINT('',(0.276668605856,0.981942289854));
#1160 = CARTESIAN_POINT('',(0.270001878939,0.981942289854));
#1161 = CARTESIAN_POINT('',(0.263334728454,0.981942289854));
#1162 = CARTESIAN_POINT('',(0.256667362947,0.981942289854));
#1163 = CARTESIAN_POINT('',(0.240498013915,0.981942289854));
#1164 = CARTESIAN_POINT('',(0.230996013093,0.981942289854));
#1165 = CARTESIAN_POINT('',(0.221494643378,0.981942289854));
#1166 = CARTESIAN_POINT('',(0.211994498661,0.981942289854));
#1167 = CARTESIAN_POINT('',(0.202496120875,0.981942289854));
#1168 = CARTESIAN_POINT('',(0.188665365001,0.981942289854));
#1169 = CARTESIAN_POINT('',(0.184331196935,0.981942289854));
#1170 = CARTESIAN_POINT('',(0.179997539818,0.981942289854));
#1171 = CARTESIAN_POINT('',(0.175664432714,0.981942289854));
#1172 = CARTESIAN_POINT('',(0.171331909726,0.981942289854));
#1173 = CARTESIAN_POINT('',(0.15999568728,0.981942289854));
#1174 = CARTESIAN_POINT('',(0.152992976741,0.981942289854));
#1175 = CARTESIAN_POINT('',(0.14599199166,0.981942289854));
#1176 = CARTESIAN_POINT('',(0.138992813852,0.981942289854));
#1177 = CARTESIAN_POINT('',(0.131995483668,0.981942289854));
#1178 = CARTESIAN_POINT('',(0.11799548774,0.981942289854));
#1179 = CARTESIAN_POINT('',(0.110992827092,0.981942289854));
#1180 = CARTESIAN_POINT('',(0.103992013485,0.981942289854));
#1181 = CARTESIAN_POINT('',(9.699300173407E-02,0.981942289854));
#1182 = CARTESIAN_POINT('',(8.99957060425E-02,0.981942289854));
#1183 = CARTESIAN_POINT('',(6.91560505049E-02,0.981942289854));
#1184 = CARTESIAN_POINT('',(5.531621141298E-02,0.981942289854));
#1185 = CARTESIAN_POINT('',(4.148415103336E-02,0.981942289854));
#1186 = CARTESIAN_POINT('',(2.765575977666E-02,0.981942289854));
#1187 = CARTESIAN_POINT('',(1.382683758457E-02,0.981942289854));
#1188 = CARTESIAN_POINT('',(0.,0.981942289854));
#1189 = ( GEOMETRIC_REPRESENTATION_CONTEXT(2) 
PARAMETRIC_REPRESENTATION_CONTEXT() REPRESENTATION_CONTEXT('2D SPACE',''
  ) );
#1190 = ADVANCED_FACE('',(#1191,#1194),#150,.F.);
#1191 = FACE_BOUND('',#1192,.F.);
#1192 = EDGE_LOOP('',(#1193));
#1193 = ORIENTED_EDGE('',*,*,#124,.F.);
#1194 = FACE_BOUND('',#1195,.F.);
#1195 = EDGE_LOOP('',(#1196));
#1196 = ORIENTED_EDGE('',*,*,#1197,.T.);
#1197 = EDGE_CURVE('',#1198,#1198,#1200,.T.);
#1198 = VERTEX_POINT('',#1199);
#1199 = CARTESIAN_POINT('',(-40.,29.6,129.));
#1200 = SURFACE_CURVE('',#1201,(#1217,#1236),.PCURVE_S1.);
#1201 = B_SPLINE_CURVE_WITH_KNOTS('',14,(#1202,#1203,#1204,#1205,#1206,
    #1207,#1208,#1209,#1210,#1211,#1212,#1213,#1214,#1215,#1216),
  .UNSPECIFIED.,.T.,.F.,(15,15),(0.,1.),.PIECEWISE_BEZIER_KNOTS.);
#1202 = CARTESIAN_POINT('',(-40.,29.6,129.));
#1203 = CARTESIAN_POINT('',(-40.,29.600000000006,137.34766047954));
#1204 = CARTESIAN_POINT('',(-40.,23.179334908473,145.69532404038));
#1205 = CARTESIAN_POINT('',(-40.,10.337996517327,151.93043984626));
#1206 = CARTESIAN_POINT('',(-40.,-7.003674196313,153.94069528234));
#1207 = CARTESIAN_POINT('',(-40.,-25.00535954786,150.37096961481));
#1208 = CARTESIAN_POINT('',(-40.,-38.74763436917,141.38546556188));
#1209 = CARTESIAN_POINT('',(-40.,-43.92132662054,129.00000000028));
#1210 = CARTESIAN_POINT('',(-40.,-38.74763436918,116.6145344376));
#1211 = CARTESIAN_POINT('',(-40.,-25.00535954786,107.62903038557));
#1212 = CARTESIAN_POINT('',(-40.,-7.003674196317,104.0593047174));
#1213 = CARTESIAN_POINT('',(-40.,10.33799651733,106.06956015385));
#1214 = CARTESIAN_POINT('',(-40.,23.179334908472,112.30467595957));
#1215 = CARTESIAN_POINT('',(-40.,29.600000000006,120.65233952046));
#1216 = CARTESIAN_POINT('',(-40.,29.6,129.));
#1217 = PCURVE('',#150,#1218);
#1218 = DEFINITIONAL_REPRESENTATION('',(#1219),#1235);
#1219 = B_SPLINE_CURVE_WITH_KNOTS('',14,(#1220,#1221,#1222,#1223,#1224,
    #1225,#1226,#1227,#1228,#1229,#1230,#1231,#1232,#1233,#1234),
  .UNSPECIFIED.,.F.,.F.,(15,15),(0.,1.),.PIECEWISE_BEZIER_KNOTS.);
#1220 = CARTESIAN_POINT('',(2.4,2.84217094304E-14));
#1221 = CARTESIAN_POINT('',(2.399999999994,8.347660479545));
#1222 = CARTESIAN_POINT('',(8.820665091527,16.695324040386));
#1223 = CARTESIAN_POINT('',(21.662003482673,22.930439846269));
#1224 = CARTESIAN_POINT('',(39.003674196313,24.940695282348));
#1225 = CARTESIAN_POINT('',(57.005359547867,21.370969614815));
#1226 = CARTESIAN_POINT('',(70.747634369179,12.385465561884));
#1227 = CARTESIAN_POINT('',(75.921326620547,2.7992541618E-10));
#1228 = CARTESIAN_POINT('',(70.747634369181,-12.38546556239));
#1229 = CARTESIAN_POINT('',(57.005359547864,-21.37096961442));
#1230 = CARTESIAN_POINT('',(39.003674196317,-24.94069528259));
#1231 = CARTESIAN_POINT('',(21.66200348267,-22.93043984614));
#1232 = CARTESIAN_POINT('',(8.820665091528,-16.69532404043));
#1233 = CARTESIAN_POINT('',(2.399999999994,-8.347660479535));
#1234 = CARTESIAN_POINT('',(2.4,-2.84217094304E-14));
#1235 = ( GEOMETRIC_REPRESENTATION_CONTEXT(2) 
PARAMETRIC_REPRESENTATION_CONTEXT() REPRESENTATION_CONTEXT('2D SPACE',''
  ) );
#1236 = PCURVE('',#518,#1237);
#1237 = DEFINITIONAL_REPRESENTATION('',(#1238),#1242);
#1238 = LINE('',#1239,#1240);
#1239 = CARTESIAN_POINT('',(0.,0.));
#1240 = VECTOR('',#1241,1.);
#1241 = DIRECTION('',(1.,0.));
#1242 = ( GEOMETRIC_REPRESENTATION_CONTEXT(2) 
PARAMETRIC_REPRESENTATION_CONTEXT() REPRESENTATION_CONTEXT('2D SPACE',''
  ) );
#1243 = ADVANCED_FACE('',(#1244),#518,.T.);
#1244 = FACE_BOUND('',#1245,.T.);
#1245 = EDGE_LOOP('',(#1246,#1247,#1270,#1271,#1272,#1295,#1296,#1297,
    #1298));
#1246 = ORIENTED_EDGE('',*,*,#1197,.T.);
#1247 = ORIENTED_EDGE('',*,*,#1248,.T.);
#1248 = EDGE_CURVE('',#1198,#483,#1249,.T.);
#1249 = SEAM_CURVE('',#1250,(#1256,#1263),.PCURVE_S1.);
#1250 = ( BOUNDED_CURVE() B_SPLINE_CURVE(4,(#1251,#1252,#1253,#1254,
#1255),.UNSPECIFIED.,.F.,.F.) B_SPLINE_CURVE_WITH_KNOTS((5,5),(0.,1.),
.PIECEWISE_BEZIER_KNOTS.) CURVE() GEOMETRIC_REPRESENTATION_ITEM() 
RATIONAL_B_SPLINE_CURVE((1.,1.,1.,1.,1.)) REPRESENTATION_ITEM('') );
#1251 = CARTESIAN_POINT('',(-40.,29.6,129.));
#1252 = CARTESIAN_POINT('',(-59.30872266611,15.680757904923,
    132.46781404824));
#1253 = CARTESIAN_POINT('',(-104.5233926779,56.679918023799,
    122.19024831154));
#1254 = CARTESIAN_POINT('',(-105.5936560158,-0.933064609687,
    133.84212132258));
#1255 = CARTESIAN_POINT('',(-134.,0.8,136.));
#1256 = PCURVE('',#518,#1257);
#1257 = DEFINITIONAL_REPRESENTATION('',(#1258),#1262);
#1258 = LINE('',#1259,#1260);
#1259 = CARTESIAN_POINT('',(0.,0.));
#1260 = VECTOR('',#1261,1.);
#1261 = DIRECTION('',(0.,1.));
#1262 = ( GEOMETRIC_REPRESENTATION_CONTEXT(2) 
PARAMETRIC_REPRESENTATION_CONTEXT() REPRESENTATION_CONTEXT('2D SPACE',''
  ) );
#1263 = PCURVE('',#518,#1264);
#1264 = DEFINITIONAL_REPRESENTATION('',(#1265),#1269);
#1265 = LINE('',#1266,#1267);
#1266 = CARTESIAN_POINT('',(1.,0.));
#1267 = VECTOR('',#1268,1.);
#1268 = DIRECTION('',(0.,1.));
#1269 = ( GEOMETRIC_REPRESENTATION_CONTEXT(2) 
PARAMETRIC_REPRESENTATION_CONTEXT() REPRESENTATION_CONTEXT('2D SPACE',''
  ) );
#1270 = ORIENTED_EDGE('',*,*,#482,.T.);
#1271 = ORIENTED_EDGE('',*,*,#635,.T.);
#1272 = ORIENTED_EDGE('',*,*,#1273,.T.);
#1273 = EDGE_CURVE('',#636,#797,#1274,.T.);
#1274 = SEAM_CURVE('',#1275,(#1281,#1288),.PCURVE_S1.);
#1275 = ( BOUNDED_CURVE() B_SPLINE_CURVE(4,(#1276,#1277,#1278,#1279,
#1280),.UNSPECIFIED.,.F.,.F.) B_SPLINE_CURVE_WITH_KNOTS((5,5),(0.,1.),
.PIECEWISE_BEZIER_KNOTS.) CURVE() GEOMETRIC_REPRESENTATION_ITEM() 
RATIONAL_B_SPLINE_CURVE((1.,1.,1.,1.,1.)) REPRESENTATION_ITEM('') );
#1276 = CARTESIAN_POINT('',(-40.,29.6,129.));
#1277 = CARTESIAN_POINT('',(-59.30872266611,15.680757904923,
    132.46781404824));
#1278 = CARTESIAN_POINT('',(-104.5233926779,56.679918023799,
    122.19024831154));
#1279 = CARTESIAN_POINT('',(-105.5936560158,-0.933064609687,
    133.84212132258));
#1280 = CARTESIAN_POINT('',(-134.,0.8,136.));
#1281 = PCURVE('',#518,#1282);
#1282 = DEFINITIONAL_REPRESENTATION('',(#1283),#1287);
#1283 = LINE('',#1284,#1285);
#1284 = CARTESIAN_POINT('',(0.,0.));
#1285 = VECTOR('',#1286,1.);
#1286 = DIRECTION('',(0.,1.));
#1287 = ( GEOMETRIC_REPRESENTATION_CONTEXT(2) 
PARAMETRIC_REPRESENTATION_CONTEXT() REPRESENTATION_CONTEXT('2D SPACE',''
  ) );
#1288 = PCURVE('',#518,#1289);
#1289 = DEFINITIONAL_REPRESENTATION('',(#1290),#1294);
#1290 = LINE('',#1291,#1292);
#1291 = CARTESIAN_POINT('',(1.,0.));
#1292 = VECTOR('',#1293,1.);
#1293 = DIRECTION('',(0.,1.));
#1294 = ( GEOMETRIC_REPRESENTATION_CONTEXT(2) 
PARAMETRIC_REPRESENTATION_CONTEXT() REPRESENTATION_CONTEXT('2D SPACE',''
  ) );
#1295 = ORIENTED_EDGE('',*,*,#796,.T.);
#1296 = ORIENTED_EDGE('',*,*,#1273,.F.);
#1297 = ORIENTED_EDGE('',*,*,#760,.T.);
#1298 = ORIENTED_EDGE('',*,*,#1248,.F.);
#1299 = ( GEOMETRIC_REPRESENTATION_CONTEXT(3) 
GLOBAL_UNCERTAINTY_ASSIGNED_CONTEXT((#1303)) 
GLOBAL_UNIT_ASSIGNED_CONTEXT((#1300,#1301,#1302)) REPRESENTATION_CONTEXT
('Context #1','3D Context with UNIT and UNCERTAINTY') );
#1300 = ( LENGTH_UNIT() NAMED_UNIT(*) SI_UNIT(.MILLI.,.METRE.) );
#1301 = ( NAMED_UNIT(*) PLANE_ANGLE_UNIT() SI_UNIT($,.RADIAN.) );
#1302 = ( NAMED_UNIT(*) SI_UNIT($,.STERADIAN.) SOLID_ANGLE_UNIT() );
#1303 = UNCERTAINTY_MEASURE_WITH_UNIT(LENGTH_MEASURE(2.E-06),#1300,
  'distance_accuracy_value','confusion accuracy');
#1304 = PRODUCT_RELATED_PRODUCT_CATEGORY('part',$,(#7));
ENDSEC;
END-ISO-10303-21;
