ISO-10303-21;
HEADER;
FILE_DESCRIPTION(('Open CASCADE Model'),'2;1');
FILE_NAME('Open CASCADE Shape Model','2026-09-08T23:35:09',('Author'),(
    'Open CASCADE'),'Open CASCADE STEP processor 7.9','Open CASCADE 7.9'
  ,'Unknown');
FILE_SCHEMA(('AUTOMOTIVE_DESIGN { 1 0 10303 214 1 1 1 1 }'));
ENDSEC;
DATA;
#1 = APPLICATION_PROTOCOL_DEFINITION('international standard',
  'automotive_design',2000,#2);
#2 = APPLICATION_CONTEXT(
  'core data for automotive mechanical design processes');
#3 = SHAPE_DEFINITION_REPRESENTATION(#4,#10);
#4 = PRODUCT_DEFINITION_SHAPE('','',#5);
#5 = PRODUCT_DEFINITION('design','',#6,#9);
#6 = PRODUCT_DEFINITION_FORMATION('','',#7);
#7 = PRODUCT('Open CASCADE STEP translator 7.9 5',
  'Open CASCADE STEP translator 7.9 5','',(#8));
#8 = PRODUCT_CONTEXT('',#2,'mechanical');
#9 = PRODUCT_DEFINITION_CONTEXT('part definition',#2,'design');
#10 = ADVANCED_BREP_SHAPE_REPRESENTATION('',(#11,#15),#367);
#11 = AXIS2_PLACEMENT_3D('',#12,#13,#14);
#12 = CARTESIAN_POINT('',(0.,0.,0.));
#13 = DIRECTION('',(0.,0.,1.));
#14 = DIRECTION('',(1.,0.,-0.));
#15 = MANIFOLD_SOLID_BREP('',#16);
#16 = CLOSED_SHELL('',(#17,#183,#218,#273,#308,#363));
#17 = ADVANCED_FACE('',(#18,#22),#35,.T.);
#18 = FACE_BOUND('',#19,.T.);
#19 = VERTEX_LOOP('',#20);
#20 = VERTEX_POINT('',#21);
#21 = CARTESIAN_POINT('',(72.,-31.,233.2));
#22 = FACE_BOUND('',#23,.T.);
#23 = EDGE_LOOP('',(#24));
#24 = ORIENTED_EDGE('',*,*,#25,.F.);
#25 = EDGE_CURVE('',#26,#26,#28,.T.);
#26 = VERTEX_POINT('',#27);
#27 = CARTESIAN_POINT('',(72.,-27.,251.94650769853));
#28 = SURFACE_CURVE('',#29,(#34,#171),.PCURVE_S1.);
#29 = CIRCLE('',#30,8.946507698538);
#30 = AXIS2_PLACEMENT_3D('',#31,#32,#33);
#31 = CARTESIAN_POINT('',(72.,-27.,243.));
#32 = DIRECTION('',(0.,1.,0.));
#33 = DIRECTION('',(0.,-0.,1.));
#34 = PCURVE('',#35,#40);
#35 = SPHERICAL_SURFACE('',#36,9.8);
#36 = AXIS2_PLACEMENT_3D('',#37,#38,#39);
#37 = CARTESIAN_POINT('',(72.,-31.,243.));
#38 = DIRECTION('',(0.,0.,1.));
#39 = DIRECTION('',(1.,0.,-0.));
#40 = DEFINITIONAL_REPRESENTATION('',(#41),#170);
#41 = B_SPLINE_CURVE_WITH_KNOTS('',8,(#42,#43,#44,#45,#46,#47,#48,#49,
    #50,#51,#52,#53,#54,#55,#56,#57,#58,#59,#60,#61,#62,#63,#64,#65,#66,
    #67,#68,#69,#70,#71,#72,#73,#74,#75,#76,#77,#78,#79,#80,#81,#82,#83,
    #84,#85,#86,#87,#88,#89,#90,#91,#92,#93,#94,#95,#96,#97,#98,#99,#100
    ,#101,#102,#103,#104,#105,#106,#107,#108,#109,#110,#111,#112,#113,
    #114,#115,#116,#117,#118,#119,#120,#121,#122,#123,#124,#125,#126,
    #127,#128,#129,#130,#131,#132,#133,#134,#135,#136,#137,#138,#139,
    #140,#141,#142,#143,#144,#145,#146,#147,#148,#149,#150,#151,#152,
    #153,#154,#155,#156,#157,#158,#159,#160,#161,#162,#163,#164,#165,
    #166,#167,#168,#169),.UNSPECIFIED.,.T.,.F.,(1,8,7,7,7,7,7,7,7,7,7,7,
    7,7,7,7,7,7,7,8,1),(-0.206255587586,0.,0.196349540849,0.386563158547
    ,0.755102042837,1.44611245088,2.050746557917,2.315273979746,
    2.563268437711,2.795763242052,3.013727121123,3.218068257751,
    3.409638073341,3.768831477571,4.083125706272,4.633140606499,
    5.458162956839,5.870674132009,6.076929719594,6.28318530718,
    6.479534848029),.UNSPECIFIED.);
#42 = CARTESIAN_POINT('',(1.570796326795,1.150355129965));
#43 = CARTESIAN_POINT('',(1.515901243082,1.150355129965));
#44 = CARTESIAN_POINT('',(1.461006165825,1.148815323255));
#45 = CARTESIAN_POINT('',(1.406665586685,1.145735739198));
#46 = CARTESIAN_POINT('',(1.353434198882,1.141147925647));
#47 = CARTESIAN_POINT('',(1.30179828113,1.135115601948));
#48 = CARTESIAN_POINT('',(1.252106700194,1.127724818455));
#49 = CARTESIAN_POINT('',(1.204585232806,1.119071859408));
#50 = CARTESIAN_POINT('',(1.115540878954,1.099747106005));
#51 = CARTESIAN_POINT('',(1.073876910542,1.089146850641));
#52 = CARTESIAN_POINT('',(1.034476210473,1.07754565845));
#53 = CARTESIAN_POINT('',(0.9973588729,1.065036554948));
#54 = CARTESIAN_POINT('',(0.962476336049,1.051708435673));
#55 = CARTESIAN_POINT('',(0.929738439718,1.037642927175));
#56 = CARTESIAN_POINT('',(0.899035793089,1.022913612794));
#57 = CARTESIAN_POINT('',(0.814473756158,0.977889585811));
#58 = CARTESIAN_POINT('',(0.765889839269,0.945947973114));
#59 = CARTESIAN_POINT('',(0.723628303577,0.912240070351));
#60 = CARTESIAN_POINT('',(0.686690404783,0.87713324639));
#61 = CARTESIAN_POINT('',(0.654269746021,0.840892664451));
#62 = CARTESIAN_POINT('',(0.625695822789,0.803723878027));
#63 = CARTESIAN_POINT('',(0.6004295138,0.765784912625));
#64 = CARTESIAN_POINT('',(0.536033460609,0.654858028624));
#65 = CARTESIAN_POINT('',(0.504118080922,0.580249279851));
#66 = CARTESIAN_POINT('',(0.479384702336,0.504203874011));
#67 = CARTESIAN_POINT('',(0.460195532866,0.42714585982));
#68 = CARTESIAN_POINT('',(0.445535691284,0.349377679185));
#69 = CARTESIAN_POINT('',(0.434739291778,0.271112602982));
#70 = CARTESIAN_POINT('',(0.427407477863,0.192526363135));
#71 = CARTESIAN_POINT('',(0.419804639264,4.486876377414E-02));
#72 = CARTESIAN_POINT('',(0.418765565096,-2.416403929924E-02));
#73 = CARTESIAN_POINT('',(0.420111082368,-9.321742706652E-02));
#74 = CARTESIAN_POINT('',(0.423840815482,-0.162196720689));
#75 = CARTESIAN_POINT('',(0.430066330211,-0.23100344279));
#76 = CARTESIAN_POINT('',(0.439014337212,-0.299527460161));
#77 = CARTESIAN_POINT('',(0.451069691371,-0.367632661975));
#78 = CARTESIAN_POINT('',(0.473800992655,-0.464650178062));
#79 = CARTESIAN_POINT('',(0.481438492559,-0.494059568744));
#80 = CARTESIAN_POINT('',(0.489849774088,-0.523334878638));
#81 = CARTESIAN_POINT('',(0.499099247312,-0.552457411012));
#82 = CARTESIAN_POINT('',(0.509262959548,-0.581405710665));
#83 = CARTESIAN_POINT('',(0.520431171322,-0.610154722421));
#84 = CARTESIAN_POINT('',(0.532711777252,-0.638674571236));
#85 = CARTESIAN_POINT('',(0.558912191805,-0.693417457001));
#86 = CARTESIAN_POINT('',(0.572681520503,-0.719672629312));
#87 = CARTESIAN_POINT('',(0.587649801216,-0.745664574959));
#88 = CARTESIAN_POINT('',(0.603940487434,-0.7713582998));
#89 = CARTESIAN_POINT('',(0.621697627051,-0.796712576078));
#90 = CARTESIAN_POINT('',(0.641089301723,-0.821678129097));
#91 = CARTESIAN_POINT('',(0.662310121425,-0.846195155945));
#92 = CARTESIAN_POINT('',(0.707400886168,-0.89268550775));
#93 = CARTESIAN_POINT('',(0.731022307215,-0.914722034649));
#94 = CARTESIAN_POINT('',(0.756630108951,-0.936239244475));
#95 = CARTESIAN_POINT('',(0.78442841637,-0.957165860313));
#96 = CARTESIAN_POINT('',(0.81464043941,-0.977418032112));
#97 = CARTESIAN_POINT('',(0.847504991816,-0.996895989417));
#98 = CARTESIAN_POINT('',(0.883258545631,-1.015481630894));
#99 = CARTESIAN_POINT('',(0.958494235976,-1.049500052822));
#100 = CARTESIAN_POINT('',(0.997603530962,-1.065057314846));
#101 = CARTESIAN_POINT('',(1.039574223946,-1.079599626692));
#102 = CARTESIAN_POINT('',(1.084522177494,-1.093002587577));
#103 = CARTESIAN_POINT('',(1.132501022061,-1.105128912346));
#104 = CARTESIAN_POINT('',(1.183436563375,-1.115834504959));
#105 = CARTESIAN_POINT('',(1.237070163387,-1.12498080972));
#106 = CARTESIAN_POINT('',(1.345364540823,-1.139459099705));
#107 = CARTESIAN_POINT('',(1.399751888388,-1.144993694743));
#108 = CARTESIAN_POINT('',(1.455764799937,-1.148963104851));
#109 = CARTESIAN_POINT('',(1.512910921218,-1.151290448977));
#110 = CARTESIAN_POINT('',(1.570559657908,-1.151930109781));
#111 = CARTESIAN_POINT('',(1.628029673508,-1.150877065187));
#112 = CARTESIAN_POINT('',(1.684696078081,-1.148167283309));
#113 = CARTESIAN_POINT('',(1.79192945392,-1.139831418802));
#114 = CARTESIAN_POINT('',(1.842656170159,-1.134398237651));
#115 = CARTESIAN_POINT('',(1.891796685754,-1.127618333719));
#116 = CARTESIAN_POINT('',(1.939006442946,-1.119567609898));
#117 = CARTESIAN_POINT('',(1.984062428648,-1.110336890318));
#118 = CARTESIAN_POINT('',(2.026853860124,-1.100022415182));
#119 = CARTESIAN_POINT('',(2.067351321249,-1.088718230703));
#120 = CARTESIAN_POINT('',(2.177265722002,-1.053630688861));
#121 = CARTESIAN_POINT('',(2.240981656556,-1.027582765188));
#122 = CARTESIAN_POINT('',(2.296909513995,-0.998959723759));
#123 = CARTESIAN_POINT('',(2.345949217215,-0.968290807065));
#124 = CARTESIAN_POINT('',(2.389067819903,-0.93596690056));
#125 = CARTESIAN_POINT('',(2.427089592371,-0.902293452082));
#126 = CARTESIAN_POINT('',(2.460732628543,-0.867505610188));
#127 = CARTESIAN_POINT('',(2.516715322775,-0.80053764978));
#128 = CARTESIAN_POINT('',(2.539942343389,-0.768575113495));
#129 = CARTESIAN_POINT('',(2.560669782293,-0.736026260022));
#130 = CARTESIAN_POINT('',(2.579226656153,-0.702986286956));
#131 = CARTESIAN_POINT('',(2.59588041739,-0.669530277275));
#132 = CARTESIAN_POINT('',(2.610849523388,-0.635719004425));
#133 = CARTESIAN_POINT('',(2.624315259767,-0.601602545536));
#134 = CARTESIAN_POINT('',(2.65762413125,-0.507058514421));
#135 = CARTESIAN_POINT('',(2.674675972326,-0.446088152642));
#136 = CARTESIAN_POINT('',(2.688387209189,-0.384536611217));
#137 = CARTESIAN_POINT('',(2.699275103696,-0.322553918326));
#138 = CARTESIAN_POINT('',(2.707688642705,-0.260254004109));
#139 = CARTESIAN_POINT('',(2.713863268754,-0.197730872426));
#140 = CARTESIAN_POINT('',(2.71794022018,-0.13506515213));
#141 = CARTESIAN_POINT('',(2.723036999557,2.176295797023E-02));
#142 = CARTESIAN_POINT('',(2.721508918731,0.116007201268));
#143 = CARTESIAN_POINT('',(2.71559374319,0.210140474563));
#144 = CARTESIAN_POINT('',(2.705068652169,0.303920879747));
#145 = CARTESIAN_POINT('',(2.689348095955,0.397085881792));
#146 = CARTESIAN_POINT('',(2.667324066861,0.489258273949));
#147 = CARTESIAN_POINT('',(2.637135818558,0.579943615323));
#148 = CARTESIAN_POINT('',(2.573672733435,0.712082906681));
#149 = CARTESIAN_POINT('',(2.549488406148,0.75548120927));
#150 = CARTESIAN_POINT('',(2.521778796392,0.798092783357));
#151 = CARTESIAN_POINT('',(2.489923701538,0.8397416466));
#152 = CARTESIAN_POINT('',(2.453117040353,0.880193100171));
#153 = CARTESIAN_POINT('',(2.410369509056,0.919138966254));
#154 = CARTESIAN_POINT('',(2.360344368184,0.956132675978));
#155 = CARTESIAN_POINT('',(2.272496185779,1.007768879218));
#156 = CARTESIAN_POINT('',(2.241078470585,1.024338563585));
#157 = CARTESIAN_POINT('',(2.207367631032,1.040188727333));
#158 = CARTESIAN_POINT('',(2.171212031501,1.055231683275));
#159 = CARTESIAN_POINT('',(2.132475893651,1.069368468638));
#160 = CARTESIAN_POINT('',(2.091068108342,1.082488976255));
#161 = CARTESIAN_POINT('',(2.046980662401,1.094475498008));
#162 = CARTESIAN_POINT('',(1.953673016385,1.115948973927));
#163 = CARTESIAN_POINT('',(1.904452762098,1.125435929349));
#164 = CARTESIAN_POINT('',(1.85277864415,1.13355724534));
#165 = CARTESIAN_POINT('',(1.798883496071,1.140199055098));
#166 = CARTESIAN_POINT('',(1.743147413039,1.145257882723));
#167 = CARTESIAN_POINT('',(1.686125514041,1.148656032887));
#168 = CARTESIAN_POINT('',(1.628460926864,1.150355129965));
#169 = CARTESIAN_POINT('',(1.570796326795,1.150355129965));
#170 = ( GEOMETRIC_REPRESENTATION_CONTEXT(2) 
PARAMETRIC_REPRESENTATION_CONTEXT() REPRESENTATION_CONTEXT('2D SPACE',''
  ) );
#171 = PCURVE('',#172,#177);
#172 = PLANE('',#173);
#173 = AXIS2_PLACEMENT_3D('',#174,#175,#176);
#174 = CARTESIAN_POINT('',(52.,-27.,223.));
#175 = DIRECTION('',(0.,1.,0.));
#176 = DIRECTION('',(0.,-0.,1.));
#177 = DEFINITIONAL_REPRESENTATION('',(#178),#182);
#178 = CIRCLE('',#179,8.946507698538);
#179 = AXIS2_PLACEMENT_2D('',#180,#181);
#180 = CARTESIAN_POINT('',(20.,20.));
#181 = DIRECTION('',(1.,0.));
#182 = ( GEOMETRIC_REPRESENTATION_CONTEXT(2) 
PARAMETRIC_REPRESENTATION_CONTEXT() REPRESENTATION_CONTEXT('2D SPACE',''
  ) );
#183 = ADVANCED_FACE('',(#184,#187),#172,.T.);
#184 = FACE_BOUND('',#185,.T.);
#185 = EDGE_LOOP('',(#186));
#186 = ORIENTED_EDGE('',*,*,#25,.T.);
#187 = FACE_BOUND('',#188,.T.);
#188 = EDGE_LOOP('',(#189));
#189 = ORIENTED_EDGE('',*,*,#190,.F.);
#190 = EDGE_CURVE('',#191,#191,#193,.T.);
#191 = VERTEX_POINT('',#192);
#192 = CARTESIAN_POINT('',(76.,-27.,243.));
#193 = SURFACE_CURVE('',#194,(#199,#206),.PCURVE_S1.);
#194 = CIRCLE('',#195,4.);
#195 = AXIS2_PLACEMENT_3D('',#196,#197,#198);
#196 = CARTESIAN_POINT('',(72.,-27.,243.));
#197 = DIRECTION('',(-0.,1.,0.));
#198 = DIRECTION('',(1.,0.,0.));
#199 = PCURVE('',#172,#200);
#200 = DEFINITIONAL_REPRESENTATION('',(#201),#205);
#201 = CIRCLE('',#202,4.);
#202 = AXIS2_PLACEMENT_2D('',#203,#204);
#203 = CARTESIAN_POINT('',(20.,20.));
#204 = DIRECTION('',(0.,1.));
#205 = ( GEOMETRIC_REPRESENTATION_CONTEXT(2) 
PARAMETRIC_REPRESENTATION_CONTEXT() REPRESENTATION_CONTEXT('2D SPACE',''
  ) );
#206 = PCURVE('',#207,#212);
#207 = CYLINDRICAL_SURFACE('',#208,4.);
#208 = AXIS2_PLACEMENT_3D('',#209,#210,#211);
#209 = CARTESIAN_POINT('',(72.,-21.,243.));
#210 = DIRECTION('',(-0.,1.,-0.));
#211 = DIRECTION('',(1.,0.,0.));
#212 = DEFINITIONAL_REPRESENTATION('',(#213),#217);
#213 = LINE('',#214,#215);
#214 = CARTESIAN_POINT('',(-4.138911435803E-13,-6.));
#215 = VECTOR('',#216,1.);
#216 = DIRECTION('',(1.,-0.));
#217 = ( GEOMETRIC_REPRESENTATION_CONTEXT(2) 
PARAMETRIC_REPRESENTATION_CONTEXT() REPRESENTATION_CONTEXT('2D SPACE',''
  ) );
#218 = ADVANCED_FACE('',(#219),#207,.T.);
#219 = FACE_BOUND('',#220,.T.);
#220 = EDGE_LOOP('',(#221,#244,#245,#246));
#221 = ORIENTED_EDGE('',*,*,#222,.T.);
#222 = EDGE_CURVE('',#223,#191,#225,.T.);
#223 = VERTEX_POINT('',#224);
#224 = CARTESIAN_POINT('',(76.,-21.,243.));
#225 = SEAM_CURVE('',#226,(#230,#237),.PCURVE_S1.);
#226 = LINE('',#227,#228);
#227 = CARTESIAN_POINT('',(76.,-21.,243.));
#228 = VECTOR('',#229,1.);
#229 = DIRECTION('',(0.,-1.,0.));
#230 = PCURVE('',#207,#231);
#231 = DEFINITIONAL_REPRESENTATION('',(#232),#236);
#232 = LINE('',#233,#234);
#233 = CARTESIAN_POINT('',(-4.138911435803E-13,0.));
#234 = VECTOR('',#235,1.);
#235 = DIRECTION('',(-0.,-1.));
#236 = ( GEOMETRIC_REPRESENTATION_CONTEXT(2) 
PARAMETRIC_REPRESENTATION_CONTEXT() REPRESENTATION_CONTEXT('2D SPACE',''
  ) );
#237 = PCURVE('',#207,#238);
#238 = DEFINITIONAL_REPRESENTATION('',(#239),#243);
#239 = LINE('',#240,#241);
#240 = CARTESIAN_POINT('',(6.28318530718,0.));
#241 = VECTOR('',#242,1.);
#242 = DIRECTION('',(-0.,-1.));
#243 = ( GEOMETRIC_REPRESENTATION_CONTEXT(2) 
PARAMETRIC_REPRESENTATION_CONTEXT() REPRESENTATION_CONTEXT('2D SPACE',''
  ) );
#244 = ORIENTED_EDGE('',*,*,#190,.T.);
#245 = ORIENTED_EDGE('',*,*,#222,.F.);
#246 = ORIENTED_EDGE('',*,*,#247,.T.);
#247 = EDGE_CURVE('',#223,#223,#248,.T.);
#248 = SURFACE_CURVE('',#249,(#254,#261),.PCURVE_S1.);
#249 = CIRCLE('',#250,4.);
#250 = AXIS2_PLACEMENT_3D('',#251,#252,#253);
#251 = CARTESIAN_POINT('',(72.,-21.,243.));
#252 = DIRECTION('',(0.,-1.,0.));
#253 = DIRECTION('',(1.,0.,0.));
#254 = PCURVE('',#207,#255);
#255 = DEFINITIONAL_REPRESENTATION('',(#256),#260);
#256 = LINE('',#257,#258);
#257 = CARTESIAN_POINT('',(6.28318530718,0.));
#258 = VECTOR('',#259,1.);
#259 = DIRECTION('',(-1.,0.));
#260 = ( GEOMETRIC_REPRESENTATION_CONTEXT(2) 
PARAMETRIC_REPRESENTATION_CONTEXT() REPRESENTATION_CONTEXT('2D SPACE',''
  ) );
#261 = PCURVE('',#262,#267);
#262 = PLANE('',#263);
#263 = AXIS2_PLACEMENT_3D('',#264,#265,#266);
#264 = CARTESIAN_POINT('',(72.,-21.,243.));
#265 = DIRECTION('',(-0.,-1.,-0.));
#266 = DIRECTION('',(0.,0.,-1.));
#267 = DEFINITIONAL_REPRESENTATION('',(#268),#272);
#268 = CIRCLE('',#269,4.);
#269 = AXIS2_PLACEMENT_2D('',#270,#271);
#270 = CARTESIAN_POINT('',(0.,0.));
#271 = DIRECTION('',(0.,1.));
#272 = ( GEOMETRIC_REPRESENTATION_CONTEXT(2) 
PARAMETRIC_REPRESENTATION_CONTEXT() REPRESENTATION_CONTEXT('2D SPACE',''
  ) );
#273 = ADVANCED_FACE('',(#274,#277),#262,.F.);
#274 = FACE_BOUND('',#275,.F.);
#275 = EDGE_LOOP('',(#276));
#276 = ORIENTED_EDGE('',*,*,#247,.T.);
#277 = FACE_BOUND('',#278,.F.);
#278 = EDGE_LOOP('',(#279));
#279 = ORIENTED_EDGE('',*,*,#280,.F.);
#280 = EDGE_CURVE('',#281,#281,#283,.T.);
#281 = VERTEX_POINT('',#282);
#282 = CARTESIAN_POINT('',(73.3,-21.,243.));
#283 = SURFACE_CURVE('',#284,(#289,#296),.PCURVE_S1.);
#284 = CIRCLE('',#285,1.3);
#285 = AXIS2_PLACEMENT_3D('',#286,#287,#288);
#286 = CARTESIAN_POINT('',(72.,-21.,243.));
#287 = DIRECTION('',(0.,-1.,0.));
#288 = DIRECTION('',(1.,0.,0.));
#289 = PCURVE('',#262,#290);
#290 = DEFINITIONAL_REPRESENTATION('',(#291),#295);
#291 = CIRCLE('',#292,1.3);
#292 = AXIS2_PLACEMENT_2D('',#293,#294);
#293 = CARTESIAN_POINT('',(0.,0.));
#294 = DIRECTION('',(0.,1.));
#295 = ( GEOMETRIC_REPRESENTATION_CONTEXT(2) 
PARAMETRIC_REPRESENTATION_CONTEXT() REPRESENTATION_CONTEXT('2D SPACE',''
  ) );
#296 = PCURVE('',#297,#302);
#297 = CYLINDRICAL_SURFACE('',#298,1.3);
#298 = AXIS2_PLACEMENT_3D('',#299,#300,#301);
#299 = CARTESIAN_POINT('',(72.,-21.,243.));
#300 = DIRECTION('',(-0.,1.,-0.));
#301 = DIRECTION('',(1.,0.,0.));
#302 = DEFINITIONAL_REPRESENTATION('',(#303),#307);
#303 = LINE('',#304,#305);
#304 = CARTESIAN_POINT('',(6.28318530718,0.));
#305 = VECTOR('',#306,1.);
#306 = DIRECTION('',(-1.,0.));
#307 = ( GEOMETRIC_REPRESENTATION_CONTEXT(2) 
PARAMETRIC_REPRESENTATION_CONTEXT() REPRESENTATION_CONTEXT('2D SPACE',''
  ) );
#308 = ADVANCED_FACE('',(#309),#297,.F.);
#309 = FACE_BOUND('',#310,.F.);
#310 = EDGE_LOOP('',(#311,#312,#335,#362));
#311 = ORIENTED_EDGE('',*,*,#280,.T.);
#312 = ORIENTED_EDGE('',*,*,#313,.T.);
#313 = EDGE_CURVE('',#281,#314,#316,.T.);
#314 = VERTEX_POINT('',#315);
#315 = CARTESIAN_POINT('',(73.3,-28.,243.));
#316 = SEAM_CURVE('',#317,(#321,#328),.PCURVE_S1.);
#317 = LINE('',#318,#319);
#318 = CARTESIAN_POINT('',(73.3,-21.,243.));
#319 = VECTOR('',#320,1.);
#320 = DIRECTION('',(0.,-1.,0.));
#321 = PCURVE('',#297,#322);
#322 = DEFINITIONAL_REPRESENTATION('',(#323),#327);
#323 = LINE('',#324,#325);
#324 = CARTESIAN_POINT('',(-4.138911435803E-13,0.));
#325 = VECTOR('',#326,1.);
#326 = DIRECTION('',(-0.,-1.));
#327 = ( GEOMETRIC_REPRESENTATION_CONTEXT(2) 
PARAMETRIC_REPRESENTATION_CONTEXT() REPRESENTATION_CONTEXT('2D SPACE',''
  ) );
#328 = PCURVE('',#297,#329);
#329 = DEFINITIONAL_REPRESENTATION('',(#330),#334);
#330 = LINE('',#331,#332);
#331 = CARTESIAN_POINT('',(6.28318530718,0.));
#332 = VECTOR('',#333,1.);
#333 = DIRECTION('',(-0.,-1.));
#334 = ( GEOMETRIC_REPRESENTATION_CONTEXT(2) 
PARAMETRIC_REPRESENTATION_CONTEXT() REPRESENTATION_CONTEXT('2D SPACE',''
  ) );
#335 = ORIENTED_EDGE('',*,*,#336,.F.);
#336 = EDGE_CURVE('',#314,#314,#337,.T.);
#337 = SURFACE_CURVE('',#338,(#343,#350),.PCURVE_S1.);
#338 = CIRCLE('',#339,1.3);
#339 = AXIS2_PLACEMENT_3D('',#340,#341,#342);
#340 = CARTESIAN_POINT('',(72.,-28.,243.));
#341 = DIRECTION('',(0.,-1.,0.));
#342 = DIRECTION('',(1.,0.,0.));
#343 = PCURVE('',#297,#344);
#344 = DEFINITIONAL_REPRESENTATION('',(#345),#349);
#345 = LINE('',#346,#347);
#346 = CARTESIAN_POINT('',(6.28318530718,-7.));
#347 = VECTOR('',#348,1.);
#348 = DIRECTION('',(-1.,0.));
#349 = ( GEOMETRIC_REPRESENTATION_CONTEXT(2) 
PARAMETRIC_REPRESENTATION_CONTEXT() REPRESENTATION_CONTEXT('2D SPACE',''
  ) );
#350 = PCURVE('',#351,#356);
#351 = PLANE('',#352);
#352 = AXIS2_PLACEMENT_3D('',#353,#354,#355);
#353 = CARTESIAN_POINT('',(72.,-28.,243.));
#354 = DIRECTION('',(-0.,-1.,-0.));
#355 = DIRECTION('',(0.,0.,-1.));
#356 = DEFINITIONAL_REPRESENTATION('',(#357),#361);
#357 = CIRCLE('',#358,1.3);
#358 = AXIS2_PLACEMENT_2D('',#359,#360);
#359 = CARTESIAN_POINT('',(0.,0.));
#360 = DIRECTION('',(0.,1.));
#361 = ( GEOMETRIC_REPRESENTATION_CONTEXT(2) 
PARAMETRIC_REPRESENTATION_CONTEXT() REPRESENTATION_CONTEXT('2D SPACE',''
  ) );
#362 = ORIENTED_EDGE('',*,*,#313,.F.);
#363 = ADVANCED_FACE('',(#364),#351,.F.);
#364 = FACE_BOUND('',#365,.F.);
#365 = EDGE_LOOP('',(#366));
#366 = ORIENTED_EDGE('',*,*,#336,.T.);
#367 = ( GEOMETRIC_REPRESENTATION_CONTEXT(3) 
GLOBAL_UNCERTAINTY_ASSIGNED_CONTEXT((#371)) GLOBAL_UNIT_ASSIGNED_CONTEXT
((#368,#369,#370)) REPRESENTATION_CONTEXT('Context #1',
  '3D Context with UNIT and UNCERTAINTY') );
#368 = ( LENGTH_UNIT() NAMED_UNIT(*) SI_UNIT(.MILLI.,.METRE.) );
#369 = ( NAMED_UNIT(*) PLANE_ANGLE_UNIT() SI_UNIT($,.RADIAN.) );
#370 = ( NAMED_UNIT(*) SI_UNIT($,.STERADIAN.) SOLID_ANGLE_UNIT() );
#371 = UNCERTAINTY_MEASURE_WITH_UNIT(LENGTH_MEASURE(2.E-06),#368,
  'distance_accuracy_value','confusion accuracy');
#372 = PRODUCT_RELATED_PRODUCT_CATEGORY('part',$,(#7));
ENDSEC;
END-ISO-10303-21;
